<svg width="461" height="487" viewBox="0 0 461 487" fill="none" xmlns="http://www.w3.org/2000/svg">
<g style="mix-blend-mode:multiply" opacity="0.4">
<path d="M238.626 476.486C345.853 476.486 432.777 426.331 432.777 364.462C432.777 302.593 345.853 252.438 238.626 252.438C131.399 252.438 44.4746 302.593 44.4746 364.462C44.4746 426.331 131.399 476.486 238.626 476.486Z" fill="#00104C"/>
</g>
<path d="M238.626 448.301C345.853 448.301 432.777 398.146 432.777 336.277C432.777 274.409 345.853 224.254 238.626 224.254C131.399 224.254 44.4746 274.409 44.4746 336.277C44.4746 398.146 131.399 448.301 238.626 448.301Z" fill="#00104C"/>
<g style="mix-blend-mode:multiply" opacity="0.6">
<path d="M328.727 292.241C335.126 288.56 338.717 283.867 339.5 279.058C340.536 272.869 336.922 266.473 328.727 261.734C314.109 253.313 290.444 253.313 275.826 261.734C266.849 266.91 263.373 274.089 265.444 280.784C266.733 284.971 270.186 288.997 275.826 292.241C290.444 300.662 314.109 300.662 328.727 292.241Z" fill="#000E4A"/>
</g>
<path d="M268.023 271.005V276.481C267.93 281.818 271.43 287.179 278.474 291.251C292.424 299.304 315.03 299.304 328.98 291.251C335.863 287.271 339.362 282.071 339.431 276.872V271.396L268 271.005H268.023Z" fill="url(#paint0_linear_264_1966)"/>
<path d="M329.003 285.776C335.103 282.256 338.533 277.769 339.293 273.168C340.282 267.255 336.829 261.135 329.003 256.625C315.052 248.573 292.447 248.573 278.497 256.625C269.91 261.572 266.618 268.428 268.598 274.824C269.841 278.828 273.133 282.67 278.497 285.776C292.447 293.829 315.052 293.829 329.003 285.776Z" fill="url(#paint1_linear_264_1966)"/>
<path d="M268.575 274.824C272.281 289.48 300.067 297.509 323.616 289.158C331.236 285.73 338.05 281.427 339.293 273.19C333.193 296.244 276.471 296.198 268.575 274.847V274.824Z" fill="url(#paint2_linear_264_1966)"/>
<g style="mix-blend-mode:screen" opacity="0.3">
<path d="M335.794 267.784C336.668 273.122 333.584 278.621 326.516 282.693C313.947 289.941 293.552 289.941 280.983 282.693C273.248 278.23 270.278 272.064 272.051 266.289C272.603 264.517 274.744 249.746 276.218 239.255C277.207 232.33 279.947 225.796 284.229 220.274L292.723 209.276C293.252 208.586 293.667 207.85 294.104 207.114C294.887 205.802 296.498 204.606 298.961 203.823C302 202.857 305.292 202.834 308.331 203.754C311.139 204.606 312.889 205.986 313.579 207.505C313.924 208.241 314.27 209 314.776 209.644L323.938 221.769C327.99 227.13 330.614 233.411 331.604 240.06C333.169 250.529 335.448 265.645 335.794 267.761V267.784Z" fill="#266DC2"/>
</g>
<g style="mix-blend-mode:screen" opacity="0.3">
<path d="M326.516 134.157C313.947 126.91 293.552 126.91 280.983 134.157C273.248 138.621 270.278 144.787 272.051 150.562C272.603 152.333 274.744 167.104 276.218 177.595C277.207 184.521 279.947 191.055 284.229 196.577L292.723 207.574C293.252 208.264 293.667 209.001 294.104 209.737C294.887 211.048 296.498 212.245 298.961 213.027C302 213.993 305.292 214.016 308.331 213.096C311.139 212.245 312.889 210.864 313.579 209.346C313.924 208.61 314.27 207.85 314.776 207.206L323.938 195.081C327.99 189.72 330.614 183.439 331.604 176.79C333.169 166.322 335.448 151.206 335.794 149.089C336.668 143.751 333.584 138.253 326.516 134.18V134.157ZM308.239 208.656C308.146 209.231 307.709 209.806 306.949 210.243C305.2 211.255 302.345 211.255 300.573 210.243C299.905 209.852 299.468 209.369 299.33 208.863C299.077 208.057 299.491 207.183 300.573 206.562C302.322 205.55 305.177 205.55 306.949 206.562C307.939 207.137 308.377 207.896 308.239 208.656Z" fill="#266DC2"/>
</g>
<path d="M280.914 188.34C280.914 188.34 280.937 188.409 280.96 188.455C282.778 193.678 286.093 198.256 290.214 201.937C293.874 205.204 298.777 209.415 299.951 210.243C302.598 212.13 305.292 212.153 307.387 210.542C308.768 209.484 314.638 204.008 318.413 200.35C321.889 196.968 324.744 192.964 326.493 188.432C326.539 188.34 280.937 188.34 280.937 188.34H280.914Z" fill="#B80004"/>
<path d="M268.023 140.553V146.029C267.93 151.366 271.43 156.727 278.474 160.799C292.424 168.852 315.03 168.852 328.98 160.799C335.863 156.819 339.362 151.619 339.431 146.42V140.944L268 140.553H268.023Z" fill="url(#paint3_linear_264_1966)"/>
<path d="M329.003 155.324C335.103 151.804 338.533 147.317 339.293 142.716C340.282 136.803 336.829 130.683 329.003 126.173C315.052 118.121 292.447 118.121 278.497 126.173C269.91 131.12 266.618 137.976 268.598 144.372C269.841 148.376 273.133 152.218 278.497 155.324C292.447 163.376 315.052 163.376 329.003 155.324Z" fill="url(#paint4_linear_264_1966)"/>
<path d="M268.575 144.372C272.281 159.028 300.067 167.057 323.616 158.706C331.236 155.277 338.05 150.975 339.293 142.738C333.193 165.792 276.471 165.746 268.575 144.395V144.372Z" fill="url(#paint5_linear_264_1966)"/>
<path d="M324.491 283.177C329.509 280.278 332.318 276.596 332.962 272.823C333.054 272.294 333.101 271.742 333.101 271.19C333.101 269.763 332.64 267.992 331.834 266.013C329.694 260.721 325.136 255.591 320.278 249.263C313.234 240.106 305.569 230.443 303.773 230.443C301.425 230.443 284.62 252.554 279.257 260.468C276.218 264.932 274.422 266.197 274.422 271.213C274.422 272.202 274.584 273.214 274.883 274.204C275.896 277.494 278.612 280.646 283.032 283.2C294.496 289.803 313.073 289.803 324.537 283.2L324.491 283.177Z" fill="#B80004"/>
<path d="M320.071 195.587C324.008 193.309 326.24 190.41 326.724 187.442C327.368 183.623 325.136 179.665 320.071 176.744C311.047 171.544 296.429 171.544 287.429 176.744C281.881 179.942 279.74 184.359 281.029 188.5C281.835 191.1 283.953 193.562 287.429 195.587C296.453 200.786 311.07 200.786 320.071 195.587Z" fill="#C2130A"/>
<path d="M305.868 207.574H301.609V235.229H305.868V207.574Z" fill="#B80004"/>
<path style="mix-blend-mode:screen" d="M310.403 235.321C351.277 235.321 384.412 202.204 384.412 161.352C384.412 120.5 351.277 87.3828 310.403 87.3828C269.528 87.3828 236.393 120.5 236.393 161.352C236.393 202.204 269.528 235.321 310.403 235.321Z" fill="url(#paint6_radial_264_1966)"/>
<g style="mix-blend-mode:multiply" opacity="0.6">
<path d="M304.671 314.329L289.04 305.31C286.554 303.884 283.515 303.884 281.029 305.31L240.606 328.64L213.741 316.63L87.0618 389.725C84.5295 391.197 84.5295 393.59 87.0618 395.062L99.0322 401.965C101.564 403.437 105.731 403.437 108.286 401.965L188.373 355.743L210.634 368.604C213.166 370.076 217.332 370.076 219.888 368.604L304.671 319.69C307.203 318.217 307.203 315.825 304.671 314.352V314.329Z" fill="#000E4A"/>
</g>
<path d="M102.163 234.079L90.1694 227.107L90.1925 266.312L102.209 270.362L102.163 234.079Z" fill="#0627AE"/>
<path d="M232.387 137.677C230.73 136.711 228.451 136.849 225.942 138.299L99.2163 211.416C94.221 214.315 90.1694 221.31 90.1694 227.062L102.186 234.033C102.186 228.281 106.214 221.264 111.233 218.388L237.958 145.27C240.468 143.82 242.77 143.682 244.404 144.649L232.387 137.677Z" fill="url(#paint7_linear_264_1966)"/>
<g style="mix-blend-mode:screen" opacity="0.3">
<path d="M232.388 137.677C230.73 136.711 228.451 136.849 225.942 138.299L237.958 145.27C240.468 143.82 242.77 143.682 244.404 144.649L232.388 137.677Z" fill="#655DC2"/>
</g>
<g style="mix-blend-mode:screen" opacity="0.3">
<path d="M99.1934 211.439C94.198 214.338 90.1465 221.333 90.1465 227.085L102.163 234.056C102.163 228.304 106.191 221.287 111.21 218.411L99.1934 211.439Z" fill="#655DC2"/>
</g>
<path d="M247.051 150.47C247.051 144.718 242.954 142.394 237.958 145.293L111.233 218.411C106.238 221.31 102.186 228.304 102.186 234.056V277.011L247.097 206.171L247.051 150.493V150.47Z" fill="#3548C2"/>
<path style="mix-blend-mode:screen" d="M112.361 216.869C108.263 219.308 104.879 222.897 103.268 227.384C102.854 228.534 102.531 229.731 102.324 230.973C102.163 231.962 102.163 232.745 102.163 233.274C102.163 233.803 102.186 234.079 102.186 234.079C102.186 234.079 102.232 232.929 102.739 231.065C103.061 229.8 103.659 228.419 104.465 227.016C106.606 223.311 109.806 220.366 113.466 218.158C124.377 211.601 237.935 145.293 237.935 145.293C237.935 145.293 123.756 210.082 112.338 216.869H112.361Z" fill="url(#paint8_radial_264_1966)"/>
<path style="mix-blend-mode:color-dodge" d="M132.711 197.451C144.681 209.415 144.681 228.834 132.711 240.82C120.74 252.807 101.311 252.784 89.3177 240.82C77.3472 228.857 77.3472 209.438 89.3177 197.451C101.288 185.464 120.717 185.487 132.711 197.451Z" fill="url(#paint9_radial_264_1966)"/>
<path d="M242.632 159.488L238.396 161.927V151.781L242.632 149.342V159.488Z" fill="#0627AE"/>
<path opacity="0.2" d="M238.396 157.003V161.927L242.632 159.488L238.396 157.026V157.003Z" fill="#3548C2"/>
<path d="M235.334 163.675L231.122 166.137V155.991L235.334 153.552V163.675Z" fill="#0627AE"/>
<path opacity="0.2" d="M231.122 161.213V166.136L235.357 163.698L231.122 161.236V161.213Z" fill="#3548C2"/>
<path d="M228.06 167.886L223.824 170.325V160.201L228.06 157.763V167.886Z" fill="#0627AE"/>
<path opacity="0.2" d="M223.824 165.424V170.347L228.06 167.909L223.824 165.447V165.424Z" fill="#3548C2"/>
<path d="M220.763 172.097L216.527 174.535V164.389L220.763 161.95V172.097Z" fill="#0627AE"/>
<path opacity="0.2" d="M216.527 169.635V174.558L220.763 172.12L216.527 169.658V169.635Z" fill="#3548C2"/>
<path d="M213.488 176.306L209.252 178.745V168.599L213.488 166.16V176.306Z" fill="#0627AE"/>
<path opacity="0.2" d="M209.252 173.821V178.745L213.488 176.306L209.252 173.844V173.821Z" fill="#3548C2"/>
<path d="M206.191 180.494L201.955 182.956V172.81L206.191 170.371V180.494Z" fill="#0627AE"/>
<path opacity="0.2" d="M201.955 178.032V182.956L206.191 180.517L201.955 178.055V178.032Z" fill="#3548C2"/>
<path d="M198.916 184.704L194.681 187.143V177.02L198.916 174.581V184.704Z" fill="#0627AE"/>
<path opacity="0.2" d="M194.681 182.242V187.166L198.916 184.727L194.681 182.265V182.242Z" fill="#3548C2"/>
<path d="M191.619 188.915L187.383 191.354V181.207L191.619 178.769V188.915Z" fill="#0627AE"/>
<path opacity="0.2" d="M187.383 186.453V191.354L191.619 188.915L187.383 186.453Z" fill="#3548C2"/>
<path d="M184.345 193.125L180.109 195.564V185.417L184.345 182.979V193.125Z" fill="#0627AE"/>
<path opacity="0.2" d="M180.109 190.64V195.563L184.345 193.124L180.109 190.663V190.64Z" fill="#3548C2"/>
<path d="M177.047 197.313L172.812 199.775V189.628L177.047 187.189V197.313Z" fill="#0627AE"/>
<path opacity="0.2" d="M172.812 194.851V199.774L177.047 197.335L172.812 194.874V194.851Z" fill="#3548C2"/>
<path d="M169.75 201.523L165.538 203.962V193.838L169.75 191.399V201.523Z" fill="#0627AE"/>
<path opacity="0.2" d="M165.538 199.061V203.984L169.773 201.545L165.538 199.084V199.061Z" fill="#3548C2"/>
<path d="M162.476 205.733L158.24 208.172V198.026L162.476 195.587V205.733Z" fill="#0627AE"/>
<path opacity="0.2" d="M158.24 203.271V208.195L162.476 205.756L158.24 203.294V203.271Z" fill="#3548C2"/>
<path d="M155.178 209.943L150.966 212.382V202.236L155.178 199.797V209.943Z" fill="#0627AE"/>
<path opacity="0.2" d="M150.966 207.458V212.382L155.202 209.943L150.966 207.481V207.458Z" fill="#3548C2"/>
<path d="M147.904 214.131L143.668 216.593V206.447L147.904 204.008V214.131Z" fill="#0627AE"/>
<path opacity="0.2" d="M143.668 211.669V216.593L147.904 214.154L143.668 211.692V211.669Z" fill="#3548C2"/>
<path d="M140.607 218.341L136.394 220.78V210.657L140.607 208.218V218.341Z" fill="#0627AE"/>
<path opacity="0.2" d="M136.394 215.879V220.803L140.63 218.364L136.394 215.902V215.879Z" fill="#3548C2"/>
<path d="M133.332 222.552L129.097 224.99V214.867L133.332 212.405V222.552Z" fill="#0627AE"/>
<path opacity="0.2" d="M129.097 220.09V225.013L133.332 222.575L129.097 220.113V220.09Z" fill="#3548C2"/>
<path d="M126.035 226.763L121.799 229.201V219.055L126.035 216.616V226.763Z" fill="#0627AE"/>
<path opacity="0.2" d="M121.799 224.277V229.201L126.035 226.762L121.799 224.3V224.277Z" fill="#3548C2"/>
<path d="M118.761 230.972L114.525 233.411V223.265L118.761 220.826V230.972Z" fill="#0627AE"/>
<path opacity="0.2" d="M114.525 228.487V233.411L118.761 230.972L114.525 228.51V228.487Z" fill="#3548C2"/>
<path d="M111.463 235.159L107.228 237.598V227.475L111.463 225.036V235.159Z" fill="#0627AE"/>
<path opacity="0.2" d="M107.228 232.697V237.621L111.463 235.182L107.228 232.72V232.697Z" fill="#3548C2"/>
<path d="M102.301 393.498L106.974 267.624L90.1465 257.869L90.2846 386.527C90.2846 389.38 91.2975 391.382 92.9319 392.325L104.948 399.296C103.314 398.353 102.324 396.351 102.301 393.498Z" fill="#7C7BAE"/>
<path d="M102.301 393.498C102.301 399.25 106.399 401.551 111.394 398.675L238.12 325.557C243.115 322.658 247.166 315.664 247.166 309.912L247.051 181.3L102.186 264.886L102.301 393.498Z" fill="#0E0D41"/>
<path d="M139.018 280.6L111.118 296.705V268.797L139.018 252.691V280.6Z" fill="#0029CE"/>
<path opacity="0.4" d="M139.018 313.846L111.118 329.951V302.066L139.018 285.938V313.846Z" fill="#7271A3"/>
<path d="M139.018 347.114L111.118 363.219V335.311L139.018 319.206V347.114Z" fill="#7271A3"/>
<path opacity="0.7" d="M172.374 261.342L144.451 277.47V249.562L172.374 233.457V261.342Z" fill="#7271A3"/>
<path d="M172.374 294.611L144.451 310.717V282.808L172.374 266.703V294.611Z" fill="#0029CE"/>
<path opacity="0.4" d="M172.374 327.857L144.451 343.962V316.077L172.374 299.972V327.857Z" fill="#7271A3"/>
<path opacity="0.4" d="M205.707 242.108L177.784 258.213V230.328L205.707 214.223V242.108Z" fill="#7271A3"/>
<path d="M205.707 275.377L177.784 291.482V263.574L205.707 247.469V275.377Z" fill="#7271A3"/>
<path opacity="0.7" d="M205.707 308.623L177.784 324.728V296.843L205.707 280.715V308.623Z" fill="#7271A3"/>
<path opacity="0.4" d="M239.04 222.874L211.14 238.979V211.071L239.04 194.966V222.874Z" fill="#7271A3"/>
<path opacity="0.4" d="M239.04 256.119L211.14 272.248V244.34L239.04 228.234V256.119Z" fill="#7271A3"/>
<path opacity="0.4" d="M239.04 289.389L211.14 305.494V277.586L239.04 261.48V289.389Z" fill="#7271A3"/>
<path d="M286.231 216.432C276.954 211.048 264.132 211.808 249.952 219.975C221.775 236.219 199.031 275.63 199.123 307.979C199.169 324.038 204.832 335.358 213.994 340.673L225.067 347.115L297.304 222.874L286.231 216.432Z" fill="url(#paint10_linear_264_1966)"/>
<path d="M261.047 226.417C273.363 219.308 284.689 217.813 293.529 221.08C304.901 225.29 312.152 237.369 312.221 255.568C312.313 287.916 289.546 327.305 261.393 343.549C233.216 359.792 210.334 346.747 210.242 314.421C210.15 282.073 232.894 242.684 261.07 226.417H261.047Z" fill="#5955C2"/>
<path d="M260.771 232.215C271.867 225.819 282.065 224.461 290.03 227.406C300.274 231.203 306.811 242.085 306.857 258.467C306.949 287.594 286.439 323.095 261.07 337.727C235.702 352.36 215.076 340.603 214.984 311.476C214.892 282.325 235.403 246.848 260.771 232.192V232.215Z" fill="#09102A"/>
<path style="mix-blend-mode:screen" d="M212.774 292.748C211.485 297.189 210.357 304.045 210.219 314.398C210.864 304.574 212.268 297.396 213.626 292.978C222.167 258.973 259.897 210.98 293.506 221.08C261.531 209.553 221.292 254.947 212.774 292.771V292.748Z" fill="url(#paint11_radial_264_1966)"/>
<path d="M264.822 315.273L262.912 284.834L258.768 287.227L256.834 319.874L260.84 323.21L264.822 315.273Z" fill="#D490E5"/>
<path d="M282.778 233.987L261.186 284.557L262.567 284.58L285.265 235.252L285.794 230.674L282.778 233.987Z" fill="#D490E5"/>
<path d="M223.962 277.977L260.564 285.961L261.185 284.787L224.422 276.85L223.962 277.977Z" fill="#7910C2"/>
<path d="M260.909 279.542C262.06 278.875 263.096 278.737 263.925 279.036C264.984 279.427 265.651 280.554 265.651 282.234C265.651 285.248 263.556 288.906 260.932 290.401C258.308 291.92 256.19 290.701 256.19 287.687C256.19 284.673 258.285 281.014 260.909 279.519V279.542Z" fill="#3844C2"/>
<path style="mix-blend-mode:screen" d="M264.132 280.439C264.201 281.659 258.515 285.869 258.515 283.683C258.515 281.59 263.994 277.977 264.132 280.439Z" fill="url(#paint12_linear_264_1966)"/>
<path style="mix-blend-mode:screen" d="M270.975 280.298C305.647 250.555 319.826 210.223 302.644 190.216C285.462 170.209 243.426 178.102 208.754 207.845C174.081 237.589 159.902 277.92 177.084 297.928C194.266 317.935 236.302 310.042 270.975 280.298Z" fill="url(#paint13_radial_264_1966)"/>
<g style="mix-blend-mode:multiply" opacity="0.6">
<path d="M281.65 398.604C285.863 401.043 285.886 404.977 281.696 407.416L233.239 435.692C229.073 438.108 222.259 438.108 218.046 435.692L142.241 391.955C138.028 389.516 138.005 385.582 142.172 383.166L190.629 354.89C194.819 352.451 201.633 352.451 205.845 354.89L281.65 398.627V398.604Z" fill="#000E4A"/>
</g>
<path d="M139.041 377.185V382.637C139.041 384.248 140.077 385.858 142.218 387.078L218.023 430.815C222.236 433.254 229.05 433.254 233.216 430.815L281.673 402.539C283.745 401.319 284.804 399.755 284.804 398.167V392.715L139.041 377.185Z" fill="url(#paint14_linear_264_1966)"/>
<path d="M281.65 388.274C285.863 390.713 285.886 394.647 281.696 397.086L233.239 425.362C229.073 427.778 222.259 427.778 218.046 425.362L142.241 381.625C138.028 379.186 138.005 375.252 142.172 372.836L190.629 344.56C194.819 342.121 201.633 342.121 205.845 344.56L281.65 388.297V388.274Z" fill="#181019"/>
<path d="M217.494 368.372V369.407C217.494 369.706 217.701 370.028 218.092 370.258L226.61 375.159C227.415 375.619 228.704 375.619 229.51 375.159L238.764 369.752C239.156 369.522 239.363 369.223 239.363 368.924V367.889L217.494 368.372Z" fill="url(#paint15_linear_264_1966)"/>
<path d="M238.741 367.038C239.547 367.498 239.547 368.257 238.741 368.717L229.487 374.124C228.681 374.584 227.392 374.584 226.587 374.124L218.069 369.223C217.263 368.763 217.263 368.004 218.069 367.544L227.323 362.137C228.129 361.677 229.418 361.677 230.224 362.137L238.741 367.038Z" fill="#655DC2"/>
<path d="M202.899 376.77V377.806C202.899 378.105 203.106 378.427 203.497 378.657L212.015 383.557C212.821 384.018 214.11 384.018 214.915 383.557L224.169 378.151C224.561 377.921 224.768 377.622 224.768 377.322V376.287L202.899 376.77Z" fill="url(#paint16_linear_264_1966)"/>
<path d="M224.146 375.459C224.952 375.919 224.952 376.678 224.146 377.138L214.892 382.545C214.087 383.005 212.798 383.005 211.992 382.545L203.474 377.644C202.669 377.184 202.669 376.425 203.474 375.965L212.728 370.558C213.534 370.098 214.823 370.098 215.629 370.558L224.146 375.459Z" fill="#655DC2"/>
<path d="M188.304 385.191V386.226C188.304 386.526 188.511 386.848 188.903 387.078L197.42 391.978C198.226 392.439 199.515 392.439 200.321 391.978L209.575 386.572C209.966 386.342 210.173 386.042 210.173 385.743V384.708L188.304 385.191Z" fill="url(#paint17_linear_264_1966)"/>
<path d="M209.575 383.88C210.38 384.34 210.38 385.099 209.575 385.559L200.321 390.966C199.515 391.426 198.226 391.426 197.42 390.966L188.903 386.065C188.097 385.605 188.097 384.846 188.903 384.386L198.157 378.979C198.962 378.519 200.252 378.519 201.057 378.979L209.575 383.88Z" fill="#655DC2"/>
<path d="M173.732 393.612V394.647C173.732 394.947 173.94 395.269 174.331 395.499L182.848 400.399C183.654 400.859 184.943 400.859 185.749 400.399L195.003 394.993C195.394 394.762 195.601 394.463 195.601 394.164V393.129L173.732 393.612Z" fill="url(#paint18_linear_264_1966)"/>
<path d="M194.98 392.3C195.786 392.761 195.786 393.52 194.98 393.98L185.726 399.387C184.92 399.847 183.631 399.847 182.825 399.387L174.308 394.486C173.502 394.026 173.502 393.267 174.308 392.807L183.562 387.4C184.368 386.94 185.657 386.94 186.462 387.4L194.98 392.3Z" fill="#655DC2"/>
<path d="M231.029 376.172V377.207C231.029 377.506 231.236 377.828 231.628 378.058L240.145 382.959C240.951 383.419 242.24 383.419 243.046 382.959L252.3 377.552C252.691 377.322 252.898 377.023 252.898 376.724V375.688L231.029 376.172Z" fill="url(#paint19_linear_264_1966)"/>
<path d="M252.3 374.86C253.105 375.32 253.105 376.079 252.3 376.54L243.046 381.946C242.24 382.406 240.951 382.406 240.145 381.946L231.628 377.046C230.822 376.586 230.822 375.826 231.628 375.366L240.882 369.959C241.687 369.499 242.977 369.499 243.782 369.959L252.3 374.86Z" fill="#655DC2"/>
<path d="M216.458 384.593V385.628C216.458 385.927 216.665 386.249 217.056 386.479L225.573 391.38C226.379 391.84 227.668 391.84 228.474 391.38L237.728 385.973C238.119 385.743 238.327 385.444 238.327 385.145V384.109L216.458 384.593Z" fill="url(#paint20_linear_264_1966)"/>
<path d="M237.705 383.281C238.511 383.741 238.511 384.5 237.705 384.96L228.451 390.367C227.645 390.827 226.356 390.827 225.55 390.367L217.033 385.467C216.227 385.006 216.227 384.247 217.033 383.787L226.287 378.38C227.093 377.92 228.382 377.92 229.188 378.38L237.705 383.281Z" fill="#655DC2"/>
<path d="M201.863 393.013V394.049C201.863 394.348 202.07 394.67 202.461 394.9L210.979 399.801C211.784 400.261 213.074 400.261 213.879 399.801L223.133 394.394C223.525 394.164 223.732 393.865 223.732 393.566V392.53L201.863 393.013Z" fill="url(#paint21_linear_264_1966)"/>
<path d="M223.11 391.702C223.916 392.162 223.916 392.921 223.11 393.381L213.856 398.788C213.051 399.248 211.761 399.248 210.956 398.788L202.438 393.887C201.633 393.427 201.633 392.668 202.438 392.208L211.692 386.801C212.498 386.341 213.787 386.341 214.593 386.801L223.11 391.702Z" fill="#655DC2"/>
<path d="M187.268 401.434V402.47C187.268 402.769 187.475 403.091 187.867 403.321L196.384 408.222C197.19 408.682 198.479 408.682 199.285 408.222L208.539 402.815C208.93 402.585 209.137 402.286 209.137 401.987V400.951L187.268 401.434Z" fill="url(#paint22_linear_264_1966)"/>
<path d="M208.538 400.123C209.344 400.583 209.344 401.342 208.538 401.802L199.284 407.209C198.479 407.669 197.19 407.669 196.384 407.209L187.866 402.308C187.061 401.848 187.061 401.089 187.866 400.629L197.121 395.222C197.926 394.762 199.215 394.762 200.021 395.222L208.538 400.123Z" fill="#655DC2"/>
<path d="M244.588 383.995V385.03C244.588 385.329 244.796 385.651 245.187 385.881L253.704 390.782C254.51 391.242 255.799 391.242 256.605 390.782L265.859 385.375C266.25 385.145 266.457 384.846 266.457 384.547V383.512L244.588 383.995Z" fill="url(#paint23_linear_264_1966)"/>
<path d="M265.859 382.683C266.665 383.143 266.665 383.903 265.859 384.363L256.605 389.77C255.799 390.23 254.51 390.23 253.704 389.77L245.187 384.869C244.381 384.409 244.381 383.65 245.187 383.189L254.441 377.783C255.247 377.322 256.536 377.322 257.341 377.783L265.859 382.683Z" fill="#655DC2"/>
<path d="M230.017 392.416V393.451C230.017 393.75 230.224 394.072 230.615 394.302L239.133 399.203C239.938 399.663 241.227 399.663 242.033 399.203L251.287 393.796C251.679 393.566 251.886 393.267 251.886 392.968V391.933L230.017 392.416Z" fill="url(#paint24_linear_264_1966)"/>
<path d="M251.264 391.104C252.07 391.564 252.07 392.324 251.264 392.784L242.01 398.19C241.204 398.651 239.915 398.651 239.11 398.19L230.592 393.29C229.786 392.83 229.786 392.07 230.592 391.61L239.846 386.204C240.652 385.743 241.941 385.743 242.747 386.204L251.264 391.104Z" fill="#655DC2"/>
<path d="M215.422 400.837V401.872C215.422 402.171 215.629 402.493 216.02 402.723L224.538 407.624C225.344 408.084 226.633 408.084 227.438 407.624L236.692 402.217C237.084 401.987 237.291 401.688 237.291 401.389V400.354L215.422 400.837Z" fill="url(#paint25_linear_264_1966)"/>
<path d="M236.669 399.525C237.475 399.985 237.475 400.744 236.669 401.205L227.415 406.611C226.61 407.071 225.32 407.071 224.515 406.611L215.997 401.711C215.192 401.251 215.192 400.491 215.997 400.031L225.251 394.624C226.057 394.164 227.346 394.164 228.152 394.624L236.669 399.525Z" fill="#655DC2"/>
<path d="M200.827 409.258V410.293C200.827 410.592 201.034 410.914 201.426 411.144L209.943 416.045C210.749 416.505 212.038 416.505 212.844 416.045L222.098 410.638C222.489 410.408 222.696 410.109 222.696 409.81V408.774L200.827 409.258Z" fill="url(#paint26_linear_264_1966)"/>
<path d="M222.098 407.946C222.903 408.406 222.903 409.165 222.098 409.625L212.844 415.032C212.038 415.492 210.749 415.492 209.943 415.032L201.426 410.132C200.62 409.671 200.62 408.912 201.426 408.452L210.68 403.045C211.485 402.585 212.774 402.585 213.58 403.045L222.098 407.946Z" fill="#655DC2"/>
<path d="M258.147 391.817V392.852C258.147 393.152 258.354 393.474 258.745 393.704L267.263 398.604C268.069 399.065 269.358 399.065 270.163 398.604L279.418 393.198C279.809 392.968 280.016 392.668 280.016 392.369V391.334L258.147 391.817Z" fill="url(#paint27_linear_264_1966)"/>
<path d="M279.417 390.505C280.223 390.966 280.223 391.725 279.417 392.185L270.163 397.592C269.358 398.052 268.069 398.052 267.263 397.592L258.745 392.691C257.94 392.231 257.94 391.472 258.745 391.012L267.999 385.605C268.805 385.145 270.094 385.145 270.9 385.605L279.417 390.505Z" fill="#655DC2"/>
<path d="M243.552 400.238V401.273C243.552 401.572 243.759 401.895 244.151 402.125L252.668 407.025C253.474 407.485 254.763 407.485 255.569 407.025L264.823 401.618C265.214 401.388 265.421 401.089 265.421 400.79V399.755L243.552 400.238Z" fill="url(#paint28_linear_264_1966)"/>
<path d="M264.823 398.926C265.628 399.387 265.628 400.146 264.823 400.606L255.569 406.013C254.763 406.473 253.474 406.473 252.668 406.013L244.151 401.112C243.345 400.652 243.345 399.893 244.151 399.433L253.405 394.026C254.21 393.566 255.5 393.566 256.305 394.026L264.823 398.926Z" fill="#655DC2"/>
<path d="M228.98 408.659V409.694C228.98 409.993 229.188 410.315 229.579 410.546L238.096 415.446C238.902 415.906 240.191 415.906 240.997 415.446L250.251 410.039C250.642 409.809 250.85 409.51 250.85 409.211V408.176L228.98 408.659Z" fill="url(#paint29_linear_264_1966)"/>
<path d="M250.228 407.347C251.034 407.807 251.034 408.567 250.228 409.027L240.974 414.434C240.168 414.894 238.879 414.894 238.073 414.434L229.556 409.533C228.75 409.073 228.75 408.314 229.556 407.853L238.81 402.447C239.616 401.987 240.905 401.987 241.711 402.447L250.228 407.347Z" fill="#655DC2"/>
<path d="M214.386 417.08V418.115C214.386 418.414 214.593 418.736 214.984 418.966L223.502 423.867C224.307 424.327 225.597 424.327 226.402 423.867L235.656 418.46C236.048 418.23 236.255 417.931 236.255 417.632V416.597L214.386 417.08Z" fill="url(#paint30_linear_264_1966)"/>
<path d="M235.633 415.768C236.439 416.228 236.439 416.988 235.633 417.448L226.379 422.854C225.573 423.315 224.284 423.315 223.479 422.854L214.961 417.954C214.156 417.494 214.156 416.734 214.961 416.274L224.215 410.868C225.021 410.407 226.31 410.407 227.116 410.868L235.633 415.768Z" fill="#655DC2"/>
<path opacity="0.8" d="M218.898 357.789L200.712 347.297C199.906 346.837 198.617 346.837 197.811 347.297L147.144 376.586C146.338 377.046 146.361 377.805 147.144 378.265L165.33 388.757C166.136 389.217 167.425 389.217 168.23 388.757L218.898 359.468C219.703 359.008 219.703 358.249 218.898 357.789Z" fill="url(#paint31_linear_264_1966)"/>
<g style="mix-blend-mode:multiply" opacity="0.5">
<path d="M147.144 378.265L147.581 378.518L197.811 349.483C198.617 349.023 199.906 349.023 200.712 349.483L218.483 359.721L218.921 359.468C219.726 359.008 219.726 358.249 218.921 357.789L200.735 347.297C199.929 346.837 198.64 346.837 197.834 347.297L147.167 376.586C146.361 377.046 146.384 377.805 147.167 378.265H147.144Z" fill="#1646B2"/>
</g>
<path style="mix-blend-mode:screen" d="M228.819 437.395C269.693 437.395 302.829 404.278 302.829 363.426C302.829 322.574 269.693 289.457 228.819 289.457C187.945 289.457 154.81 322.574 154.81 363.426C154.81 404.278 187.945 437.395 228.819 437.395Z" fill="url(#paint32_radial_264_1966)"/>
<path style="mix-blend-mode:screen" d="M225.873 487C266.747 487 299.882 453.883 299.882 413.031C299.882 372.179 266.747 339.062 225.873 339.062C184.998 339.062 151.863 372.179 151.863 413.031C151.863 453.883 184.998 487 225.873 487Z" fill="url(#paint33_radial_264_1966)"/>
<path d="M396.567 305.563C396.452 305.402 396.245 305.333 396.037 305.356L391.802 305.839C391.548 305.862 391.341 306.046 391.295 306.299C391.272 306.437 391.295 306.598 391.364 306.713C391.41 306.805 391.479 306.874 391.571 306.92L392.423 307.404L278.405 373.205C278.497 373.619 278.566 374.01 278.658 374.424L393.62 308.094L394.978 308.876C395.14 308.968 395.324 308.968 395.485 308.922C395.646 308.853 395.784 308.738 395.83 308.554L396.682 306.115C396.751 305.931 396.705 305.701 396.59 305.563H396.567Z" fill="#8180C2"/>
<path d="M304.763 388.551L279.073 373.734V267.301C279.073 266.979 278.819 266.703 278.474 266.703C278.129 266.703 277.875 266.956 277.875 267.301V374.079C277.875 374.286 277.991 374.493 278.175 374.585L304.141 389.563C304.141 389.563 304.326 389.632 304.441 389.632C304.648 389.632 304.832 389.517 304.947 389.333C305.108 389.057 305.016 388.689 304.74 388.528L304.763 388.551Z" fill="#8180C2"/>
<path d="M280.592 266.565L278.888 264.61C278.75 264.449 278.543 264.38 278.359 264.403C278.152 264.426 277.991 264.564 277.898 264.748L276.195 268.659C276.103 268.889 276.149 269.165 276.333 269.326C276.448 269.418 276.586 269.464 276.724 269.464C276.816 269.464 276.932 269.441 277.024 269.395L280.408 267.44C280.569 267.348 280.661 267.21 280.684 267.026C280.707 266.842 280.684 266.68 280.546 266.542L280.592 266.565Z" fill="#8180C2"/>
<path d="M307.019 390.162L306.536 387.631C306.49 387.424 306.351 387.263 306.167 387.194C305.983 387.125 305.776 387.148 305.592 387.263L302.162 389.794C301.955 389.955 301.863 390.208 301.955 390.461C302.001 390.599 302.093 390.714 302.231 390.783C302.323 390.829 302.415 390.852 302.53 390.852H306.444C306.628 390.852 306.789 390.783 306.904 390.645C307.019 390.507 307.065 390.323 307.019 390.162Z" fill="#8180C2"/>
<path d="M390.213 257.155L409.711 245.904L390.213 234.653L370.715 245.904L390.213 257.155Z" fill="url(#paint34_linear_264_1966)"/>
<path d="M390.213 336.807L409.711 325.556V245.904L390.213 257.155V336.807Z" fill="#0627AE"/>
<path d="M370.715 325.556L390.213 336.807V257.155L370.715 245.904V325.556Z" fill="#3548C2"/>
<path d="M362.405 301.26L381.903 290.009L362.405 278.759L342.907 290.009L362.405 301.26Z" fill="url(#paint35_linear_264_1966)"/>
<path d="M362.405 352.866L381.903 341.593V290.01L362.405 301.26V352.866Z" fill="#0627AE"/>
<path d="M342.907 341.593L362.405 352.866V301.26L342.907 290.01V341.593Z" fill="#3548C2"/>
<path d="M334.62 332.688L354.118 321.437L334.62 310.187L315.122 321.437L334.62 332.688Z" fill="url(#paint36_linear_264_1966)"/>
<path d="M334.62 368.902L354.118 357.651V321.438L334.62 332.688V368.902Z" fill="#0627AE"/>
<path d="M315.122 357.651L334.62 368.902V332.688L315.122 321.438V357.651Z" fill="#3548C2"/>
<path d="M306.811 364.761L326.332 353.51L306.811 342.26L287.313 353.51L306.811 364.761Z" fill="url(#paint37_linear_264_1966)"/>
<path d="M306.812 384.939L326.333 373.688V353.511L306.812 364.761V384.939Z" fill="#0627AE"/>
<path d="M287.313 373.688L306.811 384.939V364.761L287.313 353.511V373.688Z" fill="#3548C2"/>
<path style="mix-blend-mode:screen" d="M262.314 371.801C272.558 389.54 295.279 395.637 313.027 385.376C330.776 375.137 336.876 352.429 326.609 334.69C316.342 316.951 293.644 310.854 275.896 321.116C258.147 331.354 252.047 354.063 262.314 371.801Z" fill="url(#paint38_radial_264_1966)"/>
<path style="mix-blend-mode:screen" d="M290.905 339.982C301.149 357.721 323.869 363.818 341.618 353.556C359.366 343.318 365.467 320.61 355.2 302.871C344.933 285.132 322.235 279.035 304.487 289.296C286.738 299.535 280.638 322.243 290.905 339.982Z" fill="url(#paint39_radial_264_1966)"/>
<path style="mix-blend-mode:screen" d="M350.803 327.121C371.31 327.121 387.934 310.505 387.934 290.01C387.934 269.514 371.31 252.898 350.803 252.898C330.296 252.898 313.671 269.514 313.671 290.01C313.671 310.505 330.296 327.121 350.803 327.121Z" fill="url(#paint40_radial_264_1966)"/>
<path style="mix-blend-mode:screen" d="M344.887 264.218C355.131 281.957 377.852 288.054 395.6 277.793C413.349 267.554 419.449 244.846 409.182 227.107C398.938 209.368 376.217 203.271 358.469 213.533C340.72 223.771 334.62 246.48 344.887 264.218Z" fill="url(#paint41_radial_264_1966)"/>
<path d="M323.432 388.09L317.033 391.772L315.651 390.989L322.051 387.285L323.432 388.09Z" fill="#8180C2"/>
<path d="M329.44 384.617L325.274 387.01L323.893 386.227L328.059 383.812L329.44 384.617Z" fill="#8180C2"/>
<path d="M339.938 378.542L331.305 383.535L329.924 382.752L338.556 377.76L339.938 378.542Z" fill="#8180C2"/>
<path d="M351.655 371.778L341.779 377.484L340.398 376.702L350.274 370.996L351.655 371.778Z" fill="#8180C2"/>
<path d="M352.138 369.914L353.519 370.72L363.395 365.014L362.014 364.231L352.138 369.914Z" fill="#8180C2"/>
<path d="M369.357 361.586L365.237 363.955L363.855 363.15L367.976 360.78L369.357 361.586Z" fill="#8180C2"/>
<path d="M381.212 354.73L371.199 360.504L369.817 359.722L379.831 353.947L381.212 354.73Z" fill="#8180C2"/>
<path d="M330.707 388.183L320.762 393.935L319.381 393.129L329.326 387.4L330.707 388.183Z" fill="#8180C2"/>
<path d="M336.738 384.708L332.571 387.124L331.19 386.319L335.357 383.926L336.738 384.708Z" fill="#8180C2"/>
<path d="M343.667 380.705L338.579 383.65L337.198 382.845L342.286 379.923L343.667 380.705Z" fill="#8180C2"/>
<path d="M351.195 376.379L345.532 379.647L344.15 378.841L349.813 375.574L351.195 376.379Z" fill="#8180C2"/>
<path d="M351.655 374.516L353.036 375.321L362.129 370.053L360.771 369.271L351.655 374.516Z" fill="#8180C2"/>
<path d="M370.117 365.451L363.993 368.994L362.612 368.189L368.736 364.669L370.117 365.451Z" fill="#8180C2"/>
<path d="M384.942 356.893L371.958 364.393L370.577 363.588L383.56 356.11L384.942 356.893Z" fill="#8180C2"/>
<g style="mix-blend-mode:screen">
<path d="M202.254 120.306L191.435 111.656C194.727 107.376 198.203 104.247 202.254 101.9V120.306Z" fill="#4047C2"/>
<path d="M202.254 120.307L184.736 136.113C182.227 129.832 184.851 120.261 191.435 111.679L202.254 120.33V120.307Z" fill="#655DC2"/>
<path d="M202.254 120.306V138.712C194.105 143.406 187.245 142.393 184.736 136.089L202.254 120.283V120.306Z" fill="#C26EBD"/>
<path d="M202.254 120.307L217.148 122.538C213.557 129.533 208.355 135.192 202.254 138.736V120.33V120.307Z" fill="#C27367"/>
<path d="M202.254 120.307L219.773 104.501C221.66 109.218 220.74 115.522 217.148 122.516L202.254 120.284V120.307Z" fill="#001E8B"/>
<path d="M202.254 120.307V101.901C210.404 97.2071 217.263 98.2195 219.773 104.524L202.254 120.33V120.307Z" fill="#0627AE"/>
<path d="M248.225 93.7324L240.26 115.037C236.577 115.405 233.907 114.439 231.95 111.977L248.202 93.7554L248.225 93.7324Z" fill="#4047C2"/>
<path d="M248.226 93.7324L257.065 104.891C251.679 110.942 245.809 114.485 240.261 115.037L248.226 93.7324Z" fill="#655DC2"/>
<path d="M248.225 93.7328L231.973 111.955C227.093 105.789 230.408 92.6515 239.386 82.5742C248.364 72.4969 259.62 69.3449 264.501 75.4879C266.457 77.9497 267.125 81.1707 266.595 85.5191L248.248 93.7098L248.225 93.7328Z" fill="#0627AE"/>
<path d="M248.226 93.7327L266.573 85.542C265.767 92.0761 262.452 98.8403 257.065 104.891L248.226 93.7327Z" fill="#C26EBD"/>
</g>
<g style="mix-blend-mode:screen">
<path d="M352.622 225.036L340.168 232.215V233.94L352.622 226.762V225.036ZM367.4 216.501L354.947 223.679V225.405L367.4 218.226V216.501ZM374.928 212.152L369.748 215.143V216.869L374.928 213.878V212.152ZM377.253 210.795V212.52L389.868 205.25V203.524L377.253 210.795ZM347.281 232.79L340.145 236.908V238.634L347.281 234.516V232.79ZM361.093 224.829L349.606 231.456V233.181L361.093 226.555V224.829ZM363.418 225.221L371.13 220.757V219.031L363.418 223.495V225.221ZM373.478 219.423L389.845 209.967V208.241L373.478 217.697V219.423ZM352.599 234.447L340.145 241.625V243.35L352.599 236.172V234.447ZM367.377 225.911L354.924 233.089V234.815L367.377 227.636V225.911ZM374.905 221.562L369.725 224.553V226.279L374.905 223.288V221.562ZM377.23 221.953L389.845 214.683V212.957L377.23 220.228V221.953ZM347.258 242.223L340.122 246.341V248.067L347.258 243.949V242.223ZM349.583 242.614L361.07 235.988V234.262L349.583 240.889V242.614ZM363.395 234.654L371.107 230.19V228.465L363.395 232.928V234.654ZM373.455 228.856L389.822 219.4V217.674L373.455 227.13V228.856ZM352.576 243.88L340.122 251.058V252.784L352.576 245.605V243.88ZM367.354 235.344L354.901 242.522V244.248L367.354 237.069V235.344ZM369.679 235.735L374.859 232.744V231.018L369.679 234.009V235.735ZM377.207 231.387L389.822 224.116V222.391L377.207 229.661V231.387ZM340.099 257.5L347.235 253.382V251.656L340.099 255.774V257.5ZM349.56 252.047L361.047 245.421V243.696L349.56 250.322V252.047ZM363.372 244.087L371.084 239.623V237.898L363.372 242.361V244.087ZM373.432 238.289L389.799 228.833V227.107L373.432 236.563V238.289Z" fill="#6E70C2"/>
</g>
<g style="mix-blend-mode:screen">
<path d="M352.622 190.272L340.168 197.45V199.176L352.622 191.997V190.272ZM367.4 181.736L354.947 188.914V190.64L367.4 183.462V181.736ZM374.928 177.388L369.748 180.379V182.104L374.928 179.113V177.388ZM377.253 176.03V177.756L389.868 170.485V168.76L377.253 176.03ZM347.281 198.025L340.145 202.144V203.869L347.281 199.751V198.025ZM361.093 190.065L349.606 196.691V198.416L361.093 191.79V190.065ZM363.418 190.456L371.13 185.992V184.267L363.418 188.73V190.456ZM373.478 184.658L389.845 175.202V173.476L373.478 182.932V184.658ZM352.599 199.682L340.145 206.86V208.586L352.599 201.407V199.682ZM367.377 191.146L354.924 198.324V200.05L367.377 192.872V191.146ZM374.905 186.798L369.725 189.789V191.514L374.905 188.523V186.798ZM377.23 187.189L389.845 179.918V178.193L377.23 185.463V187.189ZM347.258 207.458L340.122 211.577V213.302L347.258 209.184V207.458ZM349.583 207.85L361.07 201.223V199.498L349.583 206.124V207.85ZM363.395 199.889L371.107 195.425V193.7L363.395 198.163V199.889ZM373.455 194.091L389.822 184.635V182.909L373.455 192.365V194.091ZM352.576 209.115L340.122 216.293V218.019L352.576 210.841V209.115ZM367.354 200.579L354.901 207.758V209.483L367.354 202.305V200.579ZM369.679 200.97L374.859 197.979V196.254L369.679 199.245V200.97ZM377.207 196.622L389.822 189.352V187.626L377.207 194.896V196.622ZM340.099 222.735L347.235 218.617V216.891L340.099 221.01V222.735ZM349.56 217.283L361.047 210.656V208.931L349.56 215.557V217.283ZM363.372 209.322L371.084 204.859V203.133L363.372 207.596V209.322ZM373.432 203.524L389.799 194.068V192.342L373.432 201.799V203.524Z" fill="#6E70C2"/>
</g>
<g style="mix-blend-mode:screen">
<path d="M82.3891 175.778L72.2833 181.622V179.436L82.3891 173.592V175.778ZM91.8964 168.116L85.3126 171.912V174.098L91.8964 170.302V168.116ZM94.8199 168.599L108.471 160.731V158.545L94.8199 166.414V168.599ZM127.002 147.847L111.394 156.842V159.028L127.002 150.032V147.847ZM145.533 137.148L129.926 146.144V148.33L145.533 139.334V137.148ZM154.948 131.718L148.457 135.468V137.654L154.948 133.904V131.718ZM157.872 130.039V132.224L173.687 123.113V120.928L157.872 130.039ZM87.983 176.261L72.2603 185.326V187.511L87.983 178.447V176.261ZM97.4903 170.785L90.9065 174.581V176.767L97.4903 172.971V170.785ZM100.414 171.268L108.448 166.621V164.435L100.414 169.082V171.268ZM120.326 157.602L111.394 162.755V164.941L120.326 159.787V157.602ZM137.637 147.616L123.25 155.922V158.108L137.637 149.802V147.616ZM140.561 148.1L150.229 142.509V140.323L140.561 145.914V148.1ZM153.153 140.829L173.664 128.98V126.795L153.153 138.644V140.829ZM82.3891 185.395L72.2833 191.239V193.424L82.3891 187.58V185.395ZM85.3126 185.878L91.8964 182.082V179.896L85.3126 183.692V185.878ZM94.8199 180.402L108.471 172.534V170.348L94.8199 178.216V180.402ZM127.002 159.649L111.394 168.645V170.831L127.002 161.835V159.649ZM145.533 148.951L129.926 157.947V160.133L145.533 151.137V148.951ZM154.948 143.521L148.457 147.271V149.457L154.948 145.707V143.521ZM157.872 144.004L173.687 134.893V132.708L157.872 141.819V144.004ZM87.983 188.064L72.2603 197.129V199.314L87.983 190.249V188.064ZM97.4903 182.588L90.9065 186.384V188.57L97.4903 184.774V182.588ZM100.414 183.071L108.448 178.424V176.238L100.414 180.885V183.071ZM120.326 169.405L111.394 174.558V176.744L120.326 171.59V169.405ZM123.25 169.888L137.637 161.582V159.396L123.25 167.702V169.888ZM140.561 159.902L150.229 154.312V152.126L140.561 157.717V159.902ZM153.153 152.632L173.664 140.783V138.598L153.153 150.446V152.632ZM82.3891 197.198L72.2833 203.042V205.227L82.3891 199.383V197.198ZM85.3126 197.681L91.8964 193.885V191.699L85.3126 195.495V197.681ZM94.8199 192.205L108.471 184.336V182.151L94.8199 190.019V192.205ZM127.002 171.452L111.394 180.448V182.634L127.002 173.638V171.452ZM145.533 160.754L129.926 169.75V171.935L145.533 162.939V160.754ZM148.457 161.237L154.948 157.487V155.301L148.457 159.051V161.237ZM157.872 155.807L173.687 146.696V144.51L157.872 153.621V155.807ZM72.2603 211.117L87.983 202.052V199.867L72.2603 208.931V211.117ZM90.9065 200.35L97.4903 196.553V194.368L90.9065 198.164V200.35ZM100.414 194.874L108.448 190.226V188.041L100.414 192.688V194.874ZM111.394 188.547L120.326 183.393V181.207L111.394 186.361V188.547ZM123.25 181.691L137.637 173.385V171.199L123.25 179.505V181.691ZM140.561 171.705L150.229 166.114V163.929L140.561 169.497V171.682V171.705ZM153.153 164.435L173.664 152.586V150.4L153.153 162.249V164.435Z" fill="#6E70C2"/>
</g>
<path style="mix-blend-mode:screen" d="M257.387 190.41C309.996 190.41 352.645 147.785 352.645 95.2051C352.645 42.6248 309.996 0 257.387 0C204.778 0 162.13 42.6248 162.13 95.2051C162.13 147.785 204.778 190.41 257.387 190.41Z" fill="url(#paint42_radial_264_1966)"/>
<path style="mix-blend-mode:screen" d="M209.253 222.046C261.862 222.046 304.51 179.421 304.51 126.841C304.51 74.2605 261.862 31.6357 209.253 31.6357C156.644 31.6357 113.996 74.2605 113.996 126.841C113.996 179.421 156.644 222.046 209.253 222.046Z" fill="url(#paint43_radial_264_1966)"/>
<path style="mix-blend-mode:screen" d="M386.323 251.426C427.566 251.426 461 218.01 461 176.79C461 135.569 427.566 102.153 386.323 102.153C345.08 102.153 311.646 135.569 311.646 176.79C311.646 218.01 345.08 251.426 386.323 251.426Z" fill="url(#paint44_radial_264_1966)"/>
<path style="mix-blend-mode:screen" d="M74.6771 260.652C115.92 260.652 149.354 227.236 149.354 186.015C149.354 144.795 115.92 111.379 74.6771 111.379C33.4341 111.379 0 144.795 0 186.015C0 227.236 33.4341 260.652 74.6771 260.652Z" fill="url(#paint45_radial_264_1966)"/>
<defs>
<linearGradient id="paint0_linear_264_1966" x1="268.023" y1="284.142" x2="339.454" y2="284.142" gradientUnits="userSpaceOnUse">
<stop stop-color="#0627AE"/>
<stop offset="1" stop-color="#3548C2"/>
</linearGradient>
<linearGradient id="paint1_linear_264_1966" x1="268.022" y1="271.212" x2="339.454" y2="271.212" gradientUnits="userSpaceOnUse">
<stop stop-color="#4C4CC2"/>
<stop offset="0.41" stop-color="#4F4EC2"/>
<stop offset="0.78" stop-color="#5A55C2"/>
<stop offset="1" stop-color="#655DC2"/>
</linearGradient>
<linearGradient id="paint2_linear_264_1966" x1="268.575" y1="282.854" x2="339.293" y2="282.854" gradientUnits="userSpaceOnUse">
<stop stop-color="#6F5CC2"/>
<stop offset="0.45" stop-color="#725FC2"/>
<stop offset="0.86" stop-color="#7D68C2"/>
<stop offset="1" stop-color="#836DC2"/>
</linearGradient>
<linearGradient id="paint3_linear_264_1966" x1="-0.000179835" y1="153.69" x2="2.30183" y2="153.69" gradientUnits="userSpaceOnUse">
<stop stop-color="#0627AE"/>
<stop offset="1" stop-color="#3548C2"/>
</linearGradient>
<linearGradient id="paint4_linear_264_1966" x1="-0.000221718" y1="140.737" x2="2.30179" y2="140.737" gradientUnits="userSpaceOnUse">
<stop stop-color="#4C4CC2"/>
<stop offset="0.41" stop-color="#4F4EC2"/>
<stop offset="0.78" stop-color="#5A55C2"/>
<stop offset="1" stop-color="#655DC2"/>
</linearGradient>
<linearGradient id="paint5_linear_264_1966" x1="-3.61426e-05" y1="152.401" x2="2.30197" y2="152.401" gradientUnits="userSpaceOnUse">
<stop stop-color="#6F5CC2"/>
<stop offset="0.45" stop-color="#725FC2"/>
<stop offset="0.86" stop-color="#7D68C2"/>
<stop offset="1" stop-color="#836DC2"/>
</linearGradient>
<radialGradient id="paint6_radial_264_1966" cx="0" cy="0" r="1" gradientUnits="userSpaceOnUse" gradientTransform="translate(310.403 161.352) scale(74.0095 73.9692)">
<stop stop-color="#C24413"/>
<stop offset="0.09" stop-color="#1328C2"/>
<stop offset="0.13" stop-color="#0F209B"/>
<stop offset="0.17" stop-color="#0B1877"/>
<stop offset="0.23" stop-color="#081156"/>
<stop offset="0.28" stop-color="#050C3B"/>
<stop offset="0.35" stop-color="#030725"/>
<stop offset="0.42" stop-color="#020414"/>
<stop offset="0.51" stop-color="#000108"/>
<stop offset="0.64" stop-color="#000001"/>
<stop offset="1"/>
</radialGradient>
<linearGradient id="paint7_linear_264_1966" x1="203.497" y1="121.02" x2="129.249" y2="249.69" gradientUnits="userSpaceOnUse">
<stop stop-color="#655DC2"/>
<stop offset="1" stop-color="#4C4CC2"/>
</linearGradient>
<radialGradient id="paint8_radial_264_1966" cx="0" cy="0" r="1" gradientUnits="userSpaceOnUse" gradientTransform="translate(142.149 190.135) scale(184.667 184.566)">
<stop stop-color="#655DC2"/>
<stop offset="0.23" stop-color="#4A448F"/>
<stop offset="0.6" stop-color="#222042"/>
<stop offset="0.87" stop-color="#090812"/>
<stop offset="1"/>
</radialGradient>
<radialGradient id="paint9_radial_264_1966" cx="0" cy="0" r="1" gradientTransform="matrix(21.6981 -21.6863 21.6981 21.6863 111.032 219.139)" gradientUnits="userSpaceOnUse">
<stop stop-color="#C22354"/>
<stop offset="0.03" stop-color="#9B1C43"/>
<stop offset="0.07" stop-color="#771533"/>
<stop offset="0.11" stop-color="#560F25"/>
<stop offset="0.16" stop-color="#3B0A19"/>
<stop offset="0.21" stop-color="#250610"/>
<stop offset="0.27" stop-color="#140308"/>
<stop offset="0.34" stop-color="#080103"/>
<stop offset="0.45" stop-color="#010000"/>
<stop offset="0.74"/>
</radialGradient>
<linearGradient id="paint10_linear_264_1966" x1="273.662" y1="209.185" x2="201.829" y2="333.689" gradientUnits="userSpaceOnUse">
<stop stop-color="#655DC2"/>
<stop offset="0.08" stop-color="#5A55C2"/>
<stop offset="0.23" stop-color="#4F4EC2"/>
<stop offset="0.38" stop-color="#4C4CC2"/>
<stop offset="0.51" stop-color="#4448BF"/>
<stop offset="0.71" stop-color="#303DBA"/>
<stop offset="0.94" stop-color="#0F2BB0"/>
<stop offset="1" stop-color="#0627AE"/>
</linearGradient>
<radialGradient id="paint11_radial_264_1966" cx="0" cy="0" r="1" gradientUnits="userSpaceOnUse" gradientTransform="translate(239.777 244.018) scale(97.8583 97.8049)">
<stop stop-color="#655DC2"/>
<stop offset="0.23" stop-color="#4A448F"/>
<stop offset="0.6" stop-color="#222042"/>
<stop offset="0.87" stop-color="#090812"/>
<stop offset="1"/>
</radialGradient>
<linearGradient id="paint12_linear_264_1966" x1="261.623" y1="279.45" x2="260.68" y2="287.526" gradientUnits="userSpaceOnUse">
<stop stop-color="#655DC2"/>
<stop offset="0.23" stop-color="#4A448F"/>
<stop offset="0.6" stop-color="#222042"/>
<stop offset="0.87" stop-color="#090812"/>
<stop offset="1"/>
</linearGradient>
<radialGradient id="paint13_radial_264_1966" cx="0" cy="0" r="1" gradientTransform="matrix(22.2996 -63.4297 55.1864 19.3803 -99.9258 1210.46)" gradientUnits="userSpaceOnUse">
<stop stop-color="#C25C09"/>
<stop offset="0.22" stop-color="#0918C2"/>
<stop offset="0.24" stop-color="#0816B2"/>
<stop offset="0.29" stop-color="#061089"/>
<stop offset="0.36" stop-color="#040C64"/>
<stop offset="0.42" stop-color="#030844"/>
<stop offset="0.5" stop-color="#02052B"/>
<stop offset="0.58" stop-color="#010218"/>
<stop offset="0.67" stop-color="#00010A"/>
<stop offset="0.79" stop-color="#000002"/>
<stop offset="1"/>
</radialGradient>
<linearGradient id="paint14_linear_264_1966" x1="139.041" y1="404.909" x2="284.827" y2="404.909" gradientUnits="userSpaceOnUse">
<stop stop-color="#1044AF"/>
<stop offset="1" stop-color="#4761C2"/>
</linearGradient>
<linearGradient id="paint15_linear_264_1966" x1="217.494" y1="371.708" x2="239.34" y2="371.708" gradientUnits="userSpaceOnUse">
<stop stop-color="#1044AF"/>
<stop offset="1" stop-color="#4761C2"/>
</linearGradient>
<linearGradient id="paint16_linear_264_1966" x1="202.899" y1="380.106" x2="224.768" y2="380.106" gradientUnits="userSpaceOnUse">
<stop stop-color="#1044AF"/>
<stop offset="1" stop-color="#4761C2"/>
</linearGradient>
<linearGradient id="paint17_linear_264_1966" x1="188.304" y1="388.527" x2="210.173" y2="388.527" gradientUnits="userSpaceOnUse">
<stop stop-color="#1044AF"/>
<stop offset="1" stop-color="#4761C2"/>
</linearGradient>
<linearGradient id="paint18_linear_264_1966" x1="173.709" y1="396.948" x2="195.578" y2="396.948" gradientUnits="userSpaceOnUse">
<stop stop-color="#1044AF"/>
<stop offset="1" stop-color="#4761C2"/>
</linearGradient>
<linearGradient id="paint19_linear_264_1966" x1="231.029" y1="379.531" x2="252.898" y2="379.531" gradientUnits="userSpaceOnUse">
<stop stop-color="#1044AF"/>
<stop offset="1" stop-color="#4761C2"/>
</linearGradient>
<linearGradient id="paint20_linear_264_1966" x1="216.458" y1="387.929" x2="238.327" y2="387.929" gradientUnits="userSpaceOnUse">
<stop stop-color="#1044AF"/>
<stop offset="1" stop-color="#4761C2"/>
</linearGradient>
<linearGradient id="paint21_linear_264_1966" x1="201.863" y1="396.35" x2="223.732" y2="396.35" gradientUnits="userSpaceOnUse">
<stop stop-color="#1044AF"/>
<stop offset="1" stop-color="#4761C2"/>
</linearGradient>
<linearGradient id="paint22_linear_264_1966" x1="187.268" y1="404.77" x2="209.137" y2="404.77" gradientUnits="userSpaceOnUse">
<stop stop-color="#1044AF"/>
<stop offset="1" stop-color="#4761C2"/>
</linearGradient>
<linearGradient id="paint23_linear_264_1966" x1="244.588" y1="387.331" x2="266.457" y2="387.331" gradientUnits="userSpaceOnUse">
<stop stop-color="#1044AF"/>
<stop offset="1" stop-color="#4761C2"/>
</linearGradient>
<linearGradient id="paint24_linear_264_1966" x1="229.994" y1="395.752" x2="251.863" y2="395.752" gradientUnits="userSpaceOnUse">
<stop stop-color="#1044AF"/>
<stop offset="1" stop-color="#4761C2"/>
</linearGradient>
<linearGradient id="paint25_linear_264_1966" x1="215.422" y1="404.173" x2="237.291" y2="404.173" gradientUnits="userSpaceOnUse">
<stop stop-color="#1044AF"/>
<stop offset="1" stop-color="#4761C2"/>
</linearGradient>
<linearGradient id="paint26_linear_264_1966" x1="200.827" y1="412.594" x2="222.696" y2="412.594" gradientUnits="userSpaceOnUse">
<stop stop-color="#1044AF"/>
<stop offset="1" stop-color="#4761C2"/>
</linearGradient>
<linearGradient id="paint27_linear_264_1966" x1="258.147" y1="395.153" x2="280.016" y2="395.153" gradientUnits="userSpaceOnUse">
<stop stop-color="#1044AF"/>
<stop offset="1" stop-color="#4761C2"/>
</linearGradient>
<linearGradient id="paint28_linear_264_1966" x1="243.552" y1="403.574" x2="265.421" y2="403.574" gradientUnits="userSpaceOnUse">
<stop stop-color="#1044AF"/>
<stop offset="1" stop-color="#4761C2"/>
</linearGradient>
<linearGradient id="paint29_linear_264_1966" x1="228.98" y1="411.995" x2="250.827" y2="411.995" gradientUnits="userSpaceOnUse">
<stop stop-color="#1044AF"/>
<stop offset="1" stop-color="#4761C2"/>
</linearGradient>
<linearGradient id="paint30_linear_264_1966" x1="214.386" y1="420.416" x2="236.255" y2="420.416" gradientUnits="userSpaceOnUse">
<stop stop-color="#1044AF"/>
<stop offset="1" stop-color="#4761C2"/>
</linearGradient>
<linearGradient id="paint31_linear_264_1966" x1="193.622" y1="344.789" x2="161.722" y2="414.676" gradientUnits="userSpaceOnUse">
<stop stop-color="#1328C2"/>
<stop offset="0.28" stop-color="#1437B9"/>
<stop offset="0.62" stop-color="#1542B3"/>
<stop offset="1" stop-color="#1646B2"/>
</linearGradient>
<radialGradient id="paint32_radial_264_1966" cx="0" cy="0" r="1" gradientUnits="userSpaceOnUse" gradientTransform="translate(228.819 363.426) scale(74.0095 73.9692)">
<stop stop-color="#0918C2"/>
<stop offset="0.04" stop-color="#0714A7"/>
<stop offset="0.1" stop-color="#050F80"/>
<stop offset="0.17" stop-color="#040B5D"/>
<stop offset="0.24" stop-color="#020740"/>
<stop offset="0.33" stop-color="#010528"/>
<stop offset="0.42" stop-color="#010216"/>
<stop offset="0.53" stop-color="#000109"/>
<stop offset="0.68" stop-color="#000002"/>
<stop offset="1"/>
</radialGradient>
<radialGradient id="paint33_radial_264_1966" cx="0" cy="0" r="1" gradientUnits="userSpaceOnUse" gradientTransform="translate(225.873 413.031) scale(74.0095 73.9692)">
<stop stop-color="#0918C2"/>
<stop offset="0.04" stop-color="#0714A7"/>
<stop offset="0.1" stop-color="#050F80"/>
<stop offset="0.17" stop-color="#040B5D"/>
<stop offset="0.24" stop-color="#020740"/>
<stop offset="0.33" stop-color="#010528"/>
<stop offset="0.42" stop-color="#010216"/>
<stop offset="0.53" stop-color="#000109"/>
<stop offset="0.68" stop-color="#000002"/>
<stop offset="1"/>
</radialGradient>
<linearGradient id="paint34_linear_264_1966" x1="409.711" y1="245.904" x2="370.715" y2="245.904" gradientUnits="userSpaceOnUse">
<stop stop-color="#4C4CC2"/>
<stop offset="0.43" stop-color="#8461B1"/>
<stop offset="0.81" stop-color="#B171A4"/>
<stop offset="1" stop-color="#C278A0"/>
</linearGradient>
<linearGradient id="paint35_linear_264_1966" x1="381.926" y1="290.009" x2="342.93" y2="290.009" gradientUnits="userSpaceOnUse">
<stop stop-color="#4C4CC2"/>
<stop offset="0.43" stop-color="#8461B1"/>
<stop offset="0.81" stop-color="#B171A4"/>
<stop offset="1" stop-color="#C278A0"/>
</linearGradient>
<linearGradient id="paint36_linear_264_1966" x1="354.118" y1="321.437" x2="315.122" y2="321.437" gradientUnits="userSpaceOnUse">
<stop stop-color="#4C4CC2"/>
<stop offset="0.43" stop-color="#8461B1"/>
<stop offset="0.81" stop-color="#B171A4"/>
<stop offset="1" stop-color="#C278A0"/>
</linearGradient>
<linearGradient id="paint37_linear_264_1966" x1="326.332" y1="353.51" x2="287.336" y2="353.51" gradientUnits="userSpaceOnUse">
<stop stop-color="#4C4CC2"/>
<stop offset="0.43" stop-color="#8461B1"/>
<stop offset="0.81" stop-color="#B171A4"/>
<stop offset="1" stop-color="#C278A0"/>
</linearGradient>
<radialGradient id="paint38_radial_264_1966" cx="0" cy="0" r="1" gradientUnits="userSpaceOnUse" gradientTransform="translate(294.473 353.257) rotate(180) scale(37.1314 37.1111)">
<stop stop-color="#C25C09"/>
<stop offset="0.12" stop-color="#0918C2"/>
<stop offset="0.14" stop-color="#0816B2"/>
<stop offset="0.21" stop-color="#061089"/>
<stop offset="0.28" stop-color="#040C64"/>
<stop offset="0.35" stop-color="#030844"/>
<stop offset="0.44" stop-color="#02052B"/>
<stop offset="0.53" stop-color="#010218"/>
<stop offset="0.63" stop-color="#00010A"/>
<stop offset="0.76" stop-color="#000002"/>
<stop offset="1"/>
</radialGradient>
<radialGradient id="paint39_radial_264_1966" cx="0" cy="0" r="1" gradientUnits="userSpaceOnUse" gradientTransform="translate(323.064 321.438) rotate(180) scale(37.1314 37.1111)">
<stop stop-color="#C25C09"/>
<stop offset="0.12" stop-color="#0918C2"/>
<stop offset="0.14" stop-color="#0816B2"/>
<stop offset="0.21" stop-color="#061089"/>
<stop offset="0.28" stop-color="#040C64"/>
<stop offset="0.35" stop-color="#030844"/>
<stop offset="0.44" stop-color="#02052B"/>
<stop offset="0.53" stop-color="#010218"/>
<stop offset="0.63" stop-color="#00010A"/>
<stop offset="0.76" stop-color="#000002"/>
<stop offset="1"/>
</radialGradient>
<radialGradient id="paint40_radial_264_1966" cx="0" cy="0" r="1" gradientUnits="userSpaceOnUse" gradientTransform="translate(350.803 290.01) rotate(180) scale(37.1314 37.1111)">
<stop stop-color="#C25C09"/>
<stop offset="0.12" stop-color="#0918C2"/>
<stop offset="0.14" stop-color="#0816B2"/>
<stop offset="0.21" stop-color="#061089"/>
<stop offset="0.28" stop-color="#040C64"/>
<stop offset="0.35" stop-color="#030844"/>
<stop offset="0.44" stop-color="#02052B"/>
<stop offset="0.53" stop-color="#010218"/>
<stop offset="0.63" stop-color="#00010A"/>
<stop offset="0.76" stop-color="#000002"/>
<stop offset="1"/>
</radialGradient>
<radialGradient id="paint41_radial_264_1966" cx="0" cy="0" r="1" gradientUnits="userSpaceOnUse" gradientTransform="translate(377.046 245.674) rotate(180) scale(37.1314 37.1111)">
<stop stop-color="#C25C09"/>
<stop offset="0.12" stop-color="#0918C2"/>
<stop offset="0.14" stop-color="#0816B2"/>
<stop offset="0.21" stop-color="#061089"/>
<stop offset="0.28" stop-color="#040C64"/>
<stop offset="0.35" stop-color="#030844"/>
<stop offset="0.44" stop-color="#02052B"/>
<stop offset="0.53" stop-color="#010218"/>
<stop offset="0.63" stop-color="#00010A"/>
<stop offset="0.76" stop-color="#000002"/>
<stop offset="1"/>
</radialGradient>
<radialGradient id="paint42_radial_264_1966" cx="0" cy="0" r="1" gradientUnits="userSpaceOnUse" gradientTransform="translate(257.387 95.2051) scale(95.2571 95.2051)">
<stop stop-color="#C24413"/>
<stop offset="0.09" stop-color="#1328C2"/>
<stop offset="0.13" stop-color="#0F209B"/>
<stop offset="0.17" stop-color="#0B1877"/>
<stop offset="0.23" stop-color="#081156"/>
<stop offset="0.28" stop-color="#050C3B"/>
<stop offset="0.35" stop-color="#030725"/>
<stop offset="0.42" stop-color="#020414"/>
<stop offset="0.51" stop-color="#000108"/>
<stop offset="0.64" stop-color="#000001"/>
<stop offset="1"/>
</radialGradient>
<radialGradient id="paint43_radial_264_1966" cx="0" cy="0" r="1" gradientUnits="userSpaceOnUse" gradientTransform="translate(209.253 126.841) scale(95.2571 95.2051)">
<stop stop-color="#C24413"/>
<stop offset="0.09" stop-color="#1328C2"/>
<stop offset="0.13" stop-color="#0F209B"/>
<stop offset="0.17" stop-color="#0B1877"/>
<stop offset="0.23" stop-color="#081156"/>
<stop offset="0.28" stop-color="#050C3B"/>
<stop offset="0.35" stop-color="#030725"/>
<stop offset="0.42" stop-color="#020414"/>
<stop offset="0.51" stop-color="#000108"/>
<stop offset="0.64" stop-color="#000001"/>
<stop offset="1"/>
</radialGradient>
<radialGradient id="paint44_radial_264_1966" cx="0" cy="0" r="1" gradientUnits="userSpaceOnUse" gradientTransform="translate(386.323 176.79) scale(74.6771 74.6364)">
<stop stop-color="#C24413"/>
<stop offset="0.09" stop-color="#1328C2"/>
<stop offset="0.13" stop-color="#0F209B"/>
<stop offset="0.17" stop-color="#0B1877"/>
<stop offset="0.23" stop-color="#081156"/>
<stop offset="0.28" stop-color="#050C3B"/>
<stop offset="0.35" stop-color="#030725"/>
<stop offset="0.42" stop-color="#020414"/>
<stop offset="0.51" stop-color="#000108"/>
<stop offset="0.64" stop-color="#000001"/>
<stop offset="1"/>
</radialGradient>
<radialGradient id="paint45_radial_264_1966" cx="0" cy="0" r="1" gradientUnits="userSpaceOnUse" gradientTransform="translate(74.6771 186.015) scale(74.6771 74.6364)">
<stop stop-color="#C24413"/>
<stop offset="0.09" stop-color="#1328C2"/>
<stop offset="0.13" stop-color="#0F209B"/>
<stop offset="0.17" stop-color="#0B1877"/>
<stop offset="0.23" stop-color="#081156"/>
<stop offset="0.28" stop-color="#050C3B"/>
<stop offset="0.35" stop-color="#030725"/>
<stop offset="0.42" stop-color="#020414"/>
<stop offset="0.51" stop-color="#000108"/>
<stop offset="0.64" stop-color="#000001"/>
<stop offset="1"/>
</radialGradient>
</defs>
</svg>
