<svg version="1.2" xmlns="http://www.w3.org/2000/svg" viewBox="0 0 323 335" width="323" height="335">
	<style>
		.s0 { fill: #010101 } 
		.s1 { fill: #121619 } 
		.s2 { fill: #e9e9e9 } 
		.s3 { fill: #e7e7e7 } 
		.s4 { fill: #e5e5e5 } 
		.s5 { fill: #e6e6e6 } 
		.s6 { fill: #f1f1f1 } 
		.s7 { fill: #212121 } 
		.s8 { fill: #e0e0e0 } 
		.s9 { fill: #161616 } 
		.s10 { fill: #f6f6f6 } 
		.s11 { fill: #ebebeb } 
		.s12 { fill: #f0f0f0 } 
		.s13 { fill: #1c1c1c } 
		.s14 { fill: #eeeeee } 
		.s15 { fill: #d6d6d6 } 
		.s16 { fill: #dddddd } 
		.s17 { fill: #b9b9b9 } 
		.s18 { fill: #030303 } 
		.s19 { fill: #323232 } 
		.s20 { fill: #d0d0d0 } 
	</style>
	<path class="s0" d="m-134-47c483.94 0 967.88 0 1451.91 0 0 137.92 0 275.85 0 414-483.61 0-967.31 0-1451.46-0.47-0.45-138.15-0.45-275.84-0.45-413.53zm230.01 288.05c0 0-0.18 0.14-0.14 0.72 0.37 0.41 0.74 0.82 1.45 2.04 0.87 0.09 1.75 0.18 2.67 0.19 0 0-0.08 0.06-0.95 0.51 0.35 0.83 0.71 1.66 1.03 3.16 0.97 1.46 1.95 2.91 2.99 5.05 2 1.42 4.01 2.83 6.65 4.31 0.51 0.31 1.02 0.62 1.66 1.57 3.18 2.6 6.23 5.39 9.6 7.71 1.45 0.99 3.92 0.52 5.3 1.55 3.6 2.7 6.86 5.86 10.67 9.2 0.65-1.96 0.99-3.01 1.74-4.84 1.13 1.27 2.25 2.53 2.69 4 0.6 0.45 1.19 0.89 2.07 2.03 1.58 0.57 3.16 1.14 5.02 2.26q2.53 1.4 5.05 2.79 0.63-0.8 1.26-1.6c-1.06-0.62-2.13-1.25-3.7-2.5-0.99-0.55-1.97-1.09-2.3-1.27 0-1.61 0.42-3.04-0.1-3.85-0.77-1.18-2.22-1.92-3.5-2.95 1.41-0.86 2.58-1.57 3.76-2.28q0.89-1.12 1.78-2.23c-1.92-0.96-3.94-1.79-5.72-2.96-0.72-0.48-0.93-1.74-0.82-1.91 1.97-0.28 3.93-0.56 7.76-1.12-3.32-3.64-5.66-6.22-7.52-9.61 0.47 0.14 0.96 0.42 1.41 0.37 2.53-0.25 5.05-0.58 7.58-0.88-1.12-2.53-2.04-5.18-3.47-7.53-0.58-0.97-2.24-1.76-3.42-1.77-1.83-0.01-4.45 0.15-5.27 1.29-0.81 1.12-0.02 3.62 0.51 5.39 0.44 1.46 1.52 2.72 1.49 4.31q-2.92 0.56-5.83 1.11c0.74 1.69 1.52 3.38 2.21 5.1 0.35 0.85 0.53 1.77 0.02 2.74q-1.53 0.47-3.06 0.94c1.3 2.22 2.59 4.44 3.31 5.69-0.71 2.16-1.2 3.66-2.46 5.7-1.51-1.14-4.28-1.55-2.61-5.2-1.28-2.1-2.55-4.19-3.11-6.24 0.5-0.78 1.61-1.97 1.41-2.27-1.35-1.96-2.97-3.72-4.16-5.14 1.82-0.72 3.81-1.52 5.79-2.31-0.88-2.03-1.83-4.04-2.63-6.1-0.26-0.68-0.16-1.51 0.58-2.17 1.77-1.05 4.67-1.81 5.01-3.21 0.4-1.6-1.34-3.84-2.42-5.64-0.62-1.04-1.86-1.7-2.62-2.69-0.22-0.29 0.26-1.11 1.21-1.89 2.78 0.07 6.74 1.35 8.12 0 4.52-4.42-0.52-8.13-2.85-12.64 4.79 0.96 9.46 2.68 11.33-3.05 1.3-4-0.61-7.17-3.64-9.59-2.63-2.11-5.79-3.21-8.64-0.69-5.1 4.5-1 8.9 1.18 13.78-1.54-0.23-2.5-0.62-3.35-0.46-1.98 0.38-5.02 0.49-5.61 1.69-0.91 1.87-0.49 4.64 0.02 6.89 0.36 1.58 1.79 2.92 2.26 5.13-2.93 0.27-5.86 0.54-9.65 0.41-1.04-3.73-2.07-7.46-2.48-11.86 5.9 1.45 8.95-1.53 7.18-7.22-0.51-1.67-1.81-3.08-2.5-4.72-0.21-0.49 0.44-1.33 1.4-1.76 3.08 1.27 6.67 1.36 7.63-1.94 0.86-2.94 0.47-7.07-1.09-9.62-1.29-2.11-5.01-3.01-7.83-3.75-0.81-0.21-2.63 1.78-3.32 3.11-1.99 3.82-0.35 8.27 3.51 13-3.43-0.7-6.8-3.96-11.06-0.29-0.48-0.02-0.96-0.03-1.36-0.82-0.37-3.01-0.7-6.03-1.15-9.02-0.2-1.29-0.67-2.53-0.21-3.42 5.48 3.95 9.79-1.08 8.99-6.02-0.38-2.35-1.2-5.07-2.8-6.63-1.49-1.46-4.51-2.55-6.39-2.05-1.57 0.41-3.47 3.4-3.42 5.2 0.07 2.96 1.6 5.88 1.54 9.51-1.8-0.54-3.59-1.08-6.26-1.76-0.87-0.03-1.75-0.06-2.62-0.91-0.35-2.69-0.71-5.37-0.26-8.1 1.49-0.6 2.98-1.2 5.13-2.08 3.87-3.96 3.13-8.36 0.93-12.67-1.94-3.79-5.21-3.51-9.47-2.59 0.32-1.77 0.94-3.54 0.91-5.3-0.07-4.17-0.33-8.42-6.44-9.56-0.6-0.29-1.21-0.59-1.74-1.63 0.19-0.71 0.39-1.42 1.27-2.39-0.29-1.96-0.59-3.92-1.13-6.48-1.68-0.83-3.36-1.65-5.25-2.9-0.23-0.25-0.51-0.4-0.66-1.18 0.75-3.07 1.5-6.13 2.8-9.27 0.38-0.37 0.76-0.75 1.9-0.87 1.42-0.44 2.84-0.88 5.01-0.76-0.89 2.14-2.44 4.26-2.51 6.43-0.1 2.61 1.06 5.26 1.67 7.89 1.78-0.69 3.55-1.4 5.35-2.03 0.2-0.07 0.56 0.29 1.42 1.09-2.81 4.14-3.88 8.46-1.17 13.07 2.52 4.31 5.6 0.19 8.48 1.28-1.85 4.01-2.18 8.01 0.6 11.7 1.79 2.37 4.15 3.24 6.9 1.3 3.39-2.39 4.18-8.6 1.69-12.62-2.7-4.36-5.93-3.06-10.2-1.67 0.49-1.37 1.12-2.71 1.44-4.13 1.65-7.35-1.48-10.83-8.91-10.2 0.53-1.51 1.1-3.01 1.59-4.54 1.36-4.22-0.22-7.57-4.38-9.39-0.3-0.57-0.59-1.13-0.8-2.42 2.46-7.83 1.87-8.92-4.59-10.27 1.11-1.84 2.75-3.57 3.18-5.56 0.44-2.06-0.31-4.36-0.53-7.28-0.05-0.73-0.09-1.45 0.09-2.84 0.98-2.79 1.96-5.57 2.75-8.86-0.3-0.45-0.6-0.89-0.56-1.91 4.89-5.15 5.48-6.3 4.32-9.71 1.06-0.19 2.42-0.88 3.14-0.47 1.03 0.61 1.59 2.01 1.98 3.6-2.08 2.77-4.17 5.53-6.33 8.4 1.83 0.95 2.73 1.42 3.73 2.69-2.51 3.19-5.74 6.12-4.57 10.69 1.75 0.19 3.1 0.33 4.44 1.18-0.84 1.19-1.82 2.29-2.49 3.56-3.23 6.09-2.13 8.06 4.29 7.91 0.1-0.01 0.22 0.56 0.3 1.59-0.92 1.92-2.5 3.81-2.58 5.76-0.09 2.13 1.2 4.31 1.89 6.47 1.91-1.2 4.01-2.2 5.65-3.69 0.84-0.77 1-2.39 1.23-3.67 1.06-5.67-0.91-7.38-7.18-5.89 1.01-2.83 2.22-5.61 2.99-8.51 0.89-3.35-0.78-4.7-4.93-4.62 1.23-2.47 2.65-4.87 3.65-7.42 1-2.55 0.28-4.32-3.31-4.95 1.3-1.69 2.93-3.24 3.78-5.13 0.71-1.57 0.51-3.55 0.83-6.02 1.78-1.7 2.1-5.65 5.99-3.47q-0.7 1.83-1.4 3.66 0.77 0.44 1.53 0.88 3.32-4.27 6.65-8.54-0.65-0.6-1.3-1.21c-1.8 1.57-3.59 3.13-5.5 3.81 0.13-1.46 0.25-2.93 0.28-3.36-2.25-2.87-4.02-5.11-5.94-7.54-0.9 0.82-2.19 1.66-3.04 2.82-2.07 2.82-3.75 5.62-7.11 7.58-2.08 1.21-5.88 4.02-4.05 8.27-1.87 1.53-4.29 2.7-5.5 4.64-4.02 6.46-7.91 13.05-11.24 19.89-2.06 4.2-3.01 8.95-5.01 13.91-0.68 1.65-1.78 3.26-1.97 4.96-0.36 3.18-0.18 6.41-0.46 10.39-0.71 3.39-1.41 6.77-2.82 10.48-0.01 1.56-0.02 3.13-0.18 5.52-0.11 4.95-0.21 9.91-0.44 15.42 0.1 0.74 0.2 1.49 0.37 3.1 0.67 2.24 1.35 4.48 2.05 6.64 0 0-0.09-0.04 0.12 0.8 0.59 3.4 1.17 6.79 1.27 10.59 1.16 5.28 2.32 10.55 3.56 16.37 0.54 0.44 1.09 0.89 1.86 2.07 0.99 2.7 1.98 5.4 2.63 8.71 0.5 1.49 0.99 2.99 1.46 5.19 2.25 3.44 4.49 6.87 7.09 10.93 2.32 3.13 4.64 6.26 7.02 10.08 0.95 0.42 1.89 0.85 3.01 1.76 0.25 0.23 0.49 0.45 0.93 0.55zm64.65 26.99c1.41 0 2.83 0 5.69 0-1.65-2.42-2.78-3.93-3.74-5.55-0.44-0.76-0.53-1.73-0.03-3.05q3.19-0.94 6.38-1.89c-1.03-1.9-1.93-3.89-3.16-5.65-0.49-0.69-1.75-1.26-2.61-1.2-1.98 0.13-3.94 0.69-5.9 1.07 0.7 1.99 1.25 4.05 2.18 5.93 0.45 0.92 1.62 1.49 2.02 3.24-0.66-0.02-1.33-0.16-1.97-0.06-1.93 0.33-3.85 0.74-5.77 1.12 1.07 1.7 2.08 3.46 3.26 5.09 0.33 0.46 1.15 0.56 1.57 1.87-1.95 0.16-3.89 0.32-7.04 0.58 1.79 2.07 2.79 3.21 4.42 4.9-0.68 0.94-1.35 1.87-1.48 2.05 1.3 2.51 2.34 4.54 3.39 6.58q0.05-0.29 0.09-0.58c2.12 0.91 4.22 1.87 6.38 2.7 0.78 0.3 1.69 0.27 2.73 0.42-1.78-0.61-3.3-1.13-5.43-1.85 1.43-1.36 2.28-2.16 3.68-3.5-1.48-0.91-2.73-1.69-3.32-2.06 0.58-2.04 0.95-3.33 1.01-5.26-0.52-2-5.13-1.42-2.35-4.9zm664.44-118.57q0.22-2.73 0.45-5.47c2.34 1.05 3.5 2.37 4.57 3.74 9.96 12.7 19.87 25.44 29.91 38.06 1.22 1.54 3.17 2.49 5.64 4.36 0-19.69 0-37.8 0-56.25-1.4 0.13-2.57 0.24-4.32 0.4 0 15.32 0 30.28 0 46.43-1.56-1.85-2.3-2.68-2.98-3.54-10.56-13.49-21.08-27.01-31.75-40.42-1.15-1.45-3.15-2.23-5.68-3.95 0 18.81 0.04 35.93-0.04 53.06-0.01 3.25 1.32 3.71 4.21 2.46 0-12.58 0-25.22-0.01-38.88zm-306.03 20.07c0.17-0.64 0.36-1.28 0.5-1.93 3.38-15.65-5.96-30.31-21.38-33.55-16.27-3.43-31.46 6.03-34.49 21.47-2.98 15.21 5.16 28.68 19.8 32.78 15.11 4.23 29.74-3.21 35.57-18.77zm499.49-27.59c-4.33-2.35-8.45-6.11-13.02-6.77-9.91-1.42-20.05-1.26-30.1-1.75q-0.27 1.2-0.55 2.4c1.37 0.54 2.73 1.5 4.12 1.56 7.81 0.32 15.69-0.13 23.43 0.74 11.76 1.34 19.57 10.75 19.76 22.63 0.2 12.41-7.07 22.17-18.98 23.7-7.65 0.98-15.53 0.18-23.76 0.18q0-2.68 0-5.36c-0.01-5.16 0.08-10.33-0.11-15.48-0.04-0.89-1.31-1.73-2.01-2.59-0.69 0.71-1.98 1.41-2 2.13-0.14 8.43-0.09 16.87-0.09 25.52 9.07 0 17.6 0.65 25.98-0.16 11.01-1.07 19.67-6.62 23.49-17.45 3.69-10.48 2.05-20.34-6.16-29.3zm-127.02 44.06c6.28 3.36 13 3.91 19.9 2.97 8.21-1.13 13.91-6.63 14.34-13.61 0.41-6.55-3.62-11.26-11.98-13.85-3.01-0.93-6.14-1.52-9.15-2.47-2.84-0.89-5.76-1.74-8.36-3.14-5.75-3.1-6.7-11.13-1.49-15.05 2.61-1.97 6.34-3.56 9.51-3.47 5.81 0.15 11.58 1.67 18.32 2.78-0.48-0.9-0.83-2.74-1.85-3.25-7.4-3.73-15.17-4.79-23.18-2.07-6.81 2.32-10.43 7.21-10.29 13.67 0.12 6.14 3.42 10.27 10.32 12.46 5.07 1.61 10.26 2.81 15.33 4.39 6.33 1.97 9 5.47 8.48 10.65-0.51 4.9-4.21 8.18-10.34 9.14-8.6 1.35-16.5-0.27-23.47-6.17-2.85 4.67 1.48 4.99 3.91 7.02zm-218.87-27.88c-1.56-0.58-3.19-1.02-4.65-1.77-7.09-3.62-7.77-12.15-1.06-16.43 2.52-1.61 5.94-2.81 8.84-2.61 5.79 0.4 11.5 1.9 18.4 3.16-0.8-1.3-1.21-2.96-2.21-3.47-7.57-3.85-15.47-4.92-23.65-2.07-6.34 2.21-10.19 7.33-10.15 13.34 0.04 5.96 3.52 10.43 10.21 12.6 4.89 1.6 9.91 2.79 14.85 4.26 6.69 2 9.75 5.58 9.26 10.62-0.51 5.24-4.42 8.56-11.14 9.51-8.45 1.2-16.09-0.72-23.47-5.71 0.05 1.86 0.41 3.71 1.52 4.46 8.53 5.84 17.92 6.91 27.6 3.67 6.44-2.16 9.7-7.11 9.67-13.13-0.03-5.78-3.21-10.01-9.86-12.34-4.38-1.54-8.95-2.53-14.16-4.09zm49.02-2.09c-5.36-4.15-6.82-9.94-2.64-13.94 2.56-2.43 6.57-4.61 9.95-4.63 6.09-0.05 12.2 1.6 19.16 2.67-0.41-0.79-0.72-2.54-1.68-3.04-7.7-3.98-15.78-5.04-24.1-2.07-6.5 2.32-9.7 7.01-9.57 13.63 0.12 6.09 3.17 10.05 9.87 12.22 5.21 1.69 10.57 2.92 15.8 4.55 5.95 1.87 8.78 5.43 8.46 10.22-0.31 4.78-4.2 8.47-10.05 9.45-8.72 1.46-16.77-0.06-24.47-5.47 0.05 1.91 0.45 3.76 1.59 4.57 6.24 4.43 13.33 5.67 20.87 4.99 9.24-0.84 15.55-6.04 16.15-13.42 0.59-7.24-3.85-12.05-13.42-14.75-5.11-1.45-10.15-3.09-15.92-4.98zm-308.12-22.18q-4.14 0-8.28 0-0.25 1-0.5 2.01c1.38 0.53 2.74 1.46 4.14 1.53 6.98 0.3 14.03-0.11 20.95 0.65 10.2 1.11 15.42 10.01 12.14 19.72-2.26 6.72-7.68 8.95-14.04 9.19-7.43 0.28-14.88 0.06-22.81 0.06 0 6.95-0.13 13.25 0.13 19.53 0.04 0.95 1.91 1.83 2.93 2.75q0.56-0.54 1.11-1.08 0-8.44 0-16.81c19.25-2.49 20.28-2.05 30.84 13.07 0.57 0.82 0.98 1.88 1.75 2.4 1.46 0.98 3.12 1.65 4.69 2.45q0.38-0.6 0.75-1.21c-4.21-6.05-8.43-12.1-12.69-18.21 10.35-5.23 13.99-12.02 12.05-21.62-1.73-8.51-8.83-13.89-19.18-14.33-4.33-0.18-8.66-0.08-13.98-0.1zm169.11 7.98c-1.15-1.43-2.02-3.35-3.5-4.2-9.86-5.66-20.1-5.88-30.01-0.49-9.45 5.14-13.81 13.68-13.84 24.36-0.04 12.16 6.66 21.72 18.1 26.15 10.24 3.96 22.65 1.43 29.57-6.05-1.63-3.72-3.46-1.43-5.32-0.19-13.3 8.83-31.86 2.94-36.81-11.68-3.39-10.01-0.45-21 7.29-27.19 8.13-6.5 20.01-7.11 29.07-1.66 1.43 0.85 3.31 0.95 5.45 0.95zm-206.91 26.55c7.8-4.83 10.72-10.9 9.13-19.77-1.44-8.03-6.67-12.82-14.47-13.78-7.71-0.96-15.58-0.8-23.38-0.89-1.2-0.02-2.41 1.22-3.61 1.88 1.18 0.55 2.34 1.51 3.54 1.57 6.99 0.29 14.02-0.03 20.96 0.64 8.16 0.77 12.89 6.15 13.1 13.73 0.26 9.21-5.21 14.8-15.32 15.18-7.27 0.27-14.56 0.05-21.97 0.05 0 7.62 0 14.67 0 21.87 1.15 0 2.66 0.07 2.67-0.01 0.62-5.79 1.12-11.6 1.59-16.9 9.11-1.07 18.11-2.12 27.76-3.57zm415.47 9.08c0 2.83 0.07 5.66-0.02 8.48-0.11 3.22 1.37 3.67 4.28 2.44 0-17.27-0.02-34.55 0.02-51.82 0.01-3.84-2.05-2.83-4.28-2.19 0 14.18 0 28.14 0 43.09zm158.68-1.98c0-13.76 0-27.51 0-41.1-3.85-1.44-4.28 0.35-4.26 3.22 0.08 14.45 0.04 28.89 0.04 43.34q0 3.88 0 7.76 0.88 0.38 1.76 0.77c0.82-1.18 2.2-2.29 2.34-3.54 0.34-3.12 0.12-6.3 0.12-10.45zm-820.1 9.44c1.69 5.61 4.69 8.07 8.9 7.3 3.61-0.65 5.72-4.03 5.2-8.33-0.55-4.52-4.09-8.09-8.01-8.07-4.03 0.03-5.85 2.46-6.09 9.1zm-0.02-14.89c-1.01-1.69-1.73-3.68-3.08-5.02-2.9-2.85-7.62-2.06-9.16 1.53-1.75 4.08-1.51 8.13 1.84 11.47 3.21 3.2 7.43 2.63 9.42-1.46 0.83-1.69 0.78-3.81 0.98-6.52zm21.23 33.41c3.82 0.64 6.53-0.69 7.48-4.6 0.95-3.88-1.32-8.88-5.05-9.59-2.31-0.44-5.63 0.36-7.36 1.89-2.65 2.34-1.45 7.78 1.66 10.63 0.7 0.65 1.68 0.99 3.27 1.67zm-3.98-42.13c-4.59-0.62-6.84 1.92-7.47 6-0.58 3.75 0.78 7.35 4.5 8.29 2.14 0.55 5.76-0.52 7.19-2.18 2.8-3.23 1.81-7.11-1.05-10.25-0.63-0.69-1.64-1.05-3.17-1.86zm-20.01-7.75c0.01 2.13-0.4 4.37 0.13 6.35 1.13 4.17 6.24 6.09 8.95 3.12 1.74-1.9 2.8-5.34 2.52-7.9-0.24-2.12-2.68-5.3-4.53-5.6-2.05-0.33-4.54 2.09-7.07 4.03zm40.6 27.01c-0.5-1.39-0.6-3.3-1.59-4.07-1.83-1.43-4.18-2.97-6.32-2.99-1.59-0.02-3.76 1.98-4.69 3.63-2.16 3.8 0.07 8.59 4.2 10.04 4.11 1.45 6.74-0.39 8.4-6.61zm-6.44 28.27c0.62 0.97 1.11 2.08 1.9 2.9 2.91 3.02 7.26 3.21 9.77 0.55 2.41-2.56 2.2-7.55-1.08-9.68-1.97-1.27-5.49-2.22-7.2-1.28-1.86 1.03-2.43 4.4-3.39 7.51zm-2.14 19.33c5.58-0.01 7.69-1.81 7.07-6.17-0.61-4.23-3.6-6.52-7.38-6.73-1.9-0.1-4.72 1.66-5.74 3.4-2.06 3.5 0.51 6.12 3.15 8.28 0.61 0.51 1.45 0.73 2.9 1.22zm-37.42-91.38c-5.21 1.88-7.53 6.95-5.39 11.75 1.7 3.82 5.5 4.74 8.42 2.04 4.35-4.01 3.12-11.17-3.03-13.79zm55.81 61.66c4.28-0.47 6.13-3.12 5.78-7.13-0.34-3.72-2.7-5.98-6.45-6.37-3.6-0.37-5.49 1.92-6.39 5.01-1.06 3.63 1.44 6.81 7.06 8.49zm889.05-35.6c4.32 0 8.65 0.17 12.95-0.11 1.11-0.08 2.14-1.54 3.2-2.37q-0.47-0.66-0.94-1.31c-10.78 0-21.56-0.05-32.34 0.08-0.9 0.01-1.78 1.24-2.67 1.9 0.95 0.6 1.88 1.7 2.85 1.73 5.31 0.17 10.63 0.08 16.95 0.08zm-4 22.24c-4.33 0-8.67-0.17-12.99 0.13-1.09 0.08-2.09 1.67-3.13 2.57q0.5 0.46 0.99 0.91 17.36 0 34.72 0 0.37-0.72 0.73-1.45c-1.11-0.72-2.19-2.01-3.33-2.06-5.32-0.22-10.66-0.1-16.99-0.1zm-897.9-22.11c-0.51 4.25 1.2 7.2 5.46 7.93 3.48 0.6 5.74-1.52 6.5-4.76 0.87-3.67-0.58-6.72-4.15-7.99-3.7-1.32-6.41 0.26-7.81 4.82zm-11.56 78.06c1.95-0.87 4.65-1.22 5.68-2.72 1.73-2.54-0.85-7.7-4.6-8.59-2.44-0.59-6.52-0.21-7.78 1.39-2.5 3.16 0.2 6.13 2.9 8.3 0.88 0.7 2.05 1.03 3.8 1.62zm471.45-78.19c3.82 0 7.64 0.16 11.44-0.09 1.05-0.07 2.03-1.34 3.04-2.05-1-0.55-2-1.57-3.02-1.58q-14.67-0.2-29.34 0.01c-1.11 0.01-2.2 1.16-3.31 1.78 1.1 0.65 2.17 1.81 3.29 1.85 5.63 0.19 11.27 0.08 17.9 0.08zm8.83 26.18q2.68 0 5.35 0 0.35-0.89 0.7-1.78c-1.24-0.72-2.47-2.04-3.72-2.06-9.64-0.18-19.29-0.16-28.94-0.02-1.14 0.02-2.27 1.16-3.4 1.77 1.2 0.7 2.39 1.97 3.6 2 8.48 0.17 16.97 0.09 26.41 0.09zm-23.63-55.15q-3.1 0-6.2 0-0.25 0.84-0.51 1.68c1.09 0.61 2.18 1.74 3.28 1.76q14.93 0.21 29.85-0.01c1.05-0.02 2.08-1.3 3.12-2q-0.39-0.71-0.78-1.43c-9.27 0-18.54 0-28.76 0zm-449.96 13.96c-3.22-2.59-6.83-2.25-8.38 1.11-1.14 2.47-0.63 6.35 0.56 8.96 0.56 1.21 4.89 1.86 6.77 1.06 3.77-1.61 4.03-5.25 2.61-8.89-0.24-0.6-0.69-1.11-1.56-2.24zm-11.21-7.78c-1.72-1.74-3.17-4.17-5.25-4.96-1.2-0.46-4.49 1.39-4.93 2.79-0.8 2.55-0.74 5.74 0.12 8.27 0.43 1.25 3.64 2.55 5.25 2.21 3.68-0.78 5.07-3.87 4.81-8.31zm-41.08-4.39c0.87 2.74 3.14 5.01 5.37 3.18 2.31-1.91 3.88-5.41 4.46-8.46 0.33-1.72-1.72-4.22-3.29-5.77-0.44-0.44-3.76 0.81-4.36 1.99-1.27 2.52-1.62 5.51-2.18 9.06zm71.42 84.97c2.68 0.76 5.36 2.04 8.04 2.04 1.07 0 3.15-2.96 2.98-4.33-0.28-2.14-1.65-4.8-3.4-5.87-1.57-0.96-5.35-0.92-6.23 0.19-1.42 1.81-1.27 4.86-1.39 7.97zm9.09-39.3c4.02-1.19 5.26-4.34 3.89-7.68-0.81-1.99-3.72-4.52-5.48-4.38-2.09 0.17-4.78 2.6-5.74 4.71-1.56 3.43 1.55 6.57 7.33 7.35zm11.07 19.69c-1.38-3.79-4.08-6.09-7.9-4.28-1.87 0.89-4.19 4.43-3.7 5.86 0.79 2.24 3.58 4.86 5.88 5.27 3.84 0.68 5.87-2.18 5.72-6.85zm-65.48-64.84c1.14-2.74 3.15-5.51 3.09-8.22-0.04-1.69-3-4.29-5.02-4.73-2.73-0.6-6.14 4.77-5.44 8.23 0.7 3.44 2.15 6.48 7.37 4.72zm36.22 92.23c-1.73 3.7 0.15 6.51 3.19 7.59 2.23 0.8 5.39 0.17 7.64-0.89 0.86-0.41 1.02-4.03 0.32-5.7-1.51-3.62-4.93-4.08-8.43-3.33-0.88 0.19-1.61 1.08-2.72 2.33zm-0.88 10.53c-2.19 0.76-4.66 1.14-6.38 2.49-0.56 0.44 0.32 4.23 1.52 5.04 2.14 1.45 4.99 2.18 7.62 2.42 0.95 0.09 3.21-2.55 2.96-3.16-0.93-2.28-2.64-4.24-4.11-6.29-0.16-0.22-0.6-0.25-1.61-0.5zm-8.27-99.24c1.85 1.35 3.69 3.7 5.56 3.74 1.56 0.02 4.04-2.43 4.53-4.22 0.5-1.83-0.41-4.62-1.7-6.15-0.91-1.08-4.42-1.65-5.13-0.9-1.7 1.78-2.41 4.49-3.26 7.53zm19.14 14.33c3.98 0.23 6.2-2.28 5.94-5.62-0.17-2.08-2.41-4.71-4.4-5.65-1.25-0.6-4.47 0.95-5.56 2.44-2.15 2.96-1 5.95 1.92 8.11 0.38 0.29 0.89 0.41 2.1 0.72zm21.33 26.29c-1 0.81-2.87 1.63-2.85 2.42 0.05 2.53 0.03 5.8 1.52 7.31 1.13 1.13 5.73 0.87 6.65-0.36 1.26-1.69 1.07-5.06 0.38-7.37-0.34-1.13-3.23-1.5-5.7-2zm-53.44-52.24c0.68 3.14 2.53 5.8 5.74 4.38 2.05-0.9 4.03-3.93 4.31-6.21 0.21-1.63-2.14-4.63-3.94-5.21-3.55-1.14-5.34 1.57-6.03 4.87-0.1 0.49-0.17 0.98-0.08 2.17zm-20.25-12.96c-2.28-4.71-5.05-5.11-7.66-0.83-1.06 1.73-1.7 4.05-1.59 6.05 0.09 1.51 1.38 3.75 2.65 4.19 1.22 0.41 3.77-0.64 4.52-1.82 1.24-1.96 1.5-4.53 2.08-7.59zm950.09 22.27q2.39-0.9 4.77-1.81c-1.59-0.57-3.18-1.6-4.79-1.63-9.11-0.16-18.22-0.14-27.33 0-1.12 0.01-2.22 1.07-3.33 1.64 1.12 0.6 2.22 1.7 3.35 1.72 8.78 0.14 17.56 0.08 27.33 0.08zm-882.53 26.6c3.02 0.38 5.68-0.57 5.98-3.72 0.18-1.98-0.71-4.76-2.15-5.98-1.18-1-4.23-0.94-5.81-0.12-3.48 1.81-2.72 6.47 1.98 9.82zm9.67 65.17c1.6-3.03 0.95-5.85-2.13-6.89-1.95-0.66-5.09-0.23-6.59 1.03-1.09 0.92-1.18 5.28-0.29 5.84 2.02 1.26 4.91 1.16 7.45 1.5 0.32 0.04 0.74-0.6 1.56-1.48zm-67.32-114.98c-0.6 3.15-0.65 6.68 3.07 7.22 1.69 0.25 4.86-2.23 5.49-4.1 0.67-1.96-0.13-5.68-1.66-6.85-2.91-2.22-5.11 0.34-6.9 3.73zm69.19 101.88c2.37-0.49 5.15-0.4 6.94-1.7 0.93-0.67 0.86-4.36-0.12-5.6-1.02-1.3-3.8-1.99-5.62-1.7-3.83 0.61-4.49 4.4-1.2 9zm-20.42 24.97c1.02 1.03 1.97 2.8 3.1 2.93 2.11 0.24 4.6 0.01 6.41-0.97 0.87-0.48 1.33-3.79 0.6-4.64-1.33-1.57-3.63-3.02-5.62-3.15-2.88-0.18-5.03 1.59-4.49 5.83zm-73.6-130.35c1.33 0.53 3.61 1.78 3.85 1.47 1.74-2.26 3.4-4.71 4.37-7.37 0.43-1.18-0.48-3.27-1.44-4.35-0.43-0.47-3.29 0.16-3.73 0.99-1.42 2.67-2.22 5.66-3.05 9.26zm74.51 137.74c-5.15-1.69-9.23-0.3-8.31 2.89 0.54 1.84 2.72 3.85 4.58 4.45 1.63 0.53 3.85-0.81 5.81-1.33-0.5-1.84-1.01-3.68-2.08-6.01zm-15.84-123.28c1.95 2.47 4.61 3.47 6.64 0.88 1.19-1.53 1.45-4.61 0.76-6.49-0.44-1.18-3.72-2.38-5.17-1.9-2.99 1-4.06 3.66-2.23 7.51zm20.51 2.75c-3.19-1.46-5.89-0.62-6.5 2.75-0.32 1.79 0.89 4.46 2.3 5.74 0.88 0.8 4.03 0.38 5.13-0.62 2.42-2.22 1.97-5.02-0.93-7.87zm-59.21-17.41c4.66-1.4 5.47-5.02 4.52-8.99-0.24-1.01-3.18-2.41-4.29-2-4.51 1.64-4.89 7.94-0.23 10.99zm83.47 61.72c2.11-2.97 1.79-5.95-1.23-7.63-1.39-0.78-4.78-0.34-5.59 0.78-1.08 1.48-1.32 4.53-0.51 6.23 1.34 2.8 4.14 2.9 7.33 0.62zm-1.21 25.48c1.73 0.93 4.01 3.01 5.07 2.51 1.8-0.85 3.74-3.26 3.86-5.14 0.08-1.28-2.74-3.8-4.4-3.93-3.56-0.27-5.25 2.18-4.53 6.56zm-55.71-89.03c-0.35 1.24-1.29 2.69-0.93 3.65 0.67 1.76 2.11 3.23 3.22 4.81 1.69-1.23 4.04-2.14 4.85-3.81 0.6-1.25-0.25-4.08-1.42-5.07-1.03-0.87-3.4-0.17-5.72 0.42zm19.21 170.99c-2.23-4.12-5.59-4.79-10.61-3.51 3.6 4.01 6.62 7.39 9.65 10.76q0.52-0.58 1.05-1.15c-1.83-1.24-3.67-2.49-6.28-4.25 2.54-0.55 4.19-0.91 6.19-1.85zm31.29-136.49c-1.34-1.93-2.48-4.1-4.2-5.61-0.36-0.31-4.01 1.7-4.1 2.8-0.16 1.87 0.8 4.51 2.22 5.68 2.47 2.03 4.52 0.26 6.08-2.87zm-58.55-46.26c-0.86 0.73-2.36 1.38-2.46 2.2-0.28 2.23-0.19 4.58 0.3 6.76 0.11 0.48 3.39 1.01 3.71 0.52 1.24-1.87 2.38-4.12 2.53-6.29 0.07-1.02-2.2-2.2-4.08-3.19zm24.68 167.91c2.91 1.24 6.12 2.98 8.01-1 0.42-0.89-1.45-3.86-2.83-4.37-2.03-0.76-4.56-0.18-6.88-0.16 0.37 1.69 0.75 3.39 1.7 5.53zm-65.75-164.92c5.39 0.6 5.7-3.91 7-7.2 0.39-0.97-0.4-2.4-0.65-3.62-1.29 0.46-3.32 0.57-3.74 1.45-1.37 2.81-2.13 5.9-2.61 9.37zm105.57 130.55q-2.43 2.24-4.87 4.48c1.29 1.29 2.6 3.65 3.86 3.62 1.7-0.04 3.37-1.91 5.05-2.99-1.11-1.67-2.22-3.33-4.04-5.11zm4.85-9.92c0.46 2.96 2.23 4.72 5.09 3.72 1.54-0.54 3.22-2.48 3.54-4.04 0.22-1.09-2.17-3.89-2.73-3.73-2.05 0.62-3.82 2.16-5.9 4.05zm-15.17 23.04c-2.66 0.74-4.53 2.6-2.92 5.03 0.96 1.45 3.8 2.14 5.82 2.21 0.98 0.03 2.03-2.15 3.05-3.32-1.76-1.38-3.51-2.75-5.95-3.92zm-80.36-144.65c4.14-0.77 6.83-3.97 6.12-7.78-0.19-1.06-1.98-2.83-2.51-2.66-3.84 1.25-4.94 4.46-4.9 8.18 0.01 0.62 0.42 1.24 1.29 2.26zm97.38 48.59c-1.53 1.12-3.89 1.98-4.34 3.44-0.37 1.2 1.17 3.7 2.52 4.48 0.92 0.52 4.32-1.04 4.29-1.51-0.14-2.09-1.12-4.13-2.47-6.41zm9.81 28.24c-3.8-1.96-6.92-1.16-7.07 2.05-0.08 1.56 0.8 3.54 1.93 4.64 0.69 0.67 3.53 0.52 3.89-0.12 0.99-1.73 1.16-3.92 1.25-6.57zm-37.42 83.26c0.87 0.94 1.63 2.48 2.64 2.67 1.63 0.31 3.66 0.13 5.07-0.65 0.72-0.4 1.11-3.19 0.52-3.79-1.14-1.15-3.15-2.17-4.66-2-1.33 0.14-2.48 1.98-3.57 3.77zm-48.54-165.62c0.69-2.77 1.78-6.01-2.58-6.21-1.11-0.05-2.91 2.52-3.36 4.17-0.39 1.41 0.7 3.22 1.13 4.85 1.51-0.73 3.01-1.45 4.81-2.81zm89.92 114.95q1.13-2.81 2.26-5.63c-1.4-0.55-3.15-1.88-4.12-1.45-1.35 0.59-3.21 2.94-2.88 3.78 0.58 1.48 2.63 2.39 4.74 3.3zm-56.18-100.3q2.35 1.59 4.69 3.18c0.86-1.44 2.53-3 2.34-4.28-0.2-1.41-2.12-2.56-3.3-3.82-1.25 1.4-2.51 2.81-3.73 4.92zm-9.42 163.02c2.47 1.02 4.89 2.18 7.44 2.96 0.48 0.14 1.42-1.24 2.15-1.92-1.83-1.41-3.49-3.27-5.55-4.1-1.68-0.68-4.54-1.36-4.04 3.06zm25.21-151.45c2.65 1.14 5.16 1.28 5.58-2.27 0.16-1.3-0.94-3.26-2.08-4.05-0.85-0.6-3.7-0.13-3.87 0.43-0.51 1.64-0.14 3.56 0.37 5.89zm-0.85 145.94c-2.45-0.56-5.27-1.45-5.68 2.23-0.11 0.94 1.95 2.76 3.26 3.04 1.52 0.32 3.3-0.62 4.97-1.01-0.62-1.32-1.25-2.65-2.55-4.26zm-80.82-180.46q1.28-3.33 2.56-6.65-0.71-0.28-1.41-0.56c-3.7 2.31-6.41 5.2-6.04 11.55 2.13-1.8 3.3-2.79 4.89-4.34zm12.43-7.03c-5.08 2.52-6.34 5.13-4.5 10.25 3.91-2.34 6.26-5.16 4.5-10.25zm9.79 0.6c-0.47 0.86-1.25 1.7-1.33 2.59-0.13 1.47 0.2 2.99 0.33 4.49 1.16-0.33 3-0.33 3.34-1.05 0.92-1.95 1.22-4.21 1.76-6.34-1.2-0.08-2.4-0.16-4.1 0.31zm26.36 12.43q-0.5-3.05-1-6.11c-1.17 0.34-3.06 0.37-3.37 1.08-0.65 1.5-0.9 3.51-0.41 5.01 0.19 0.59 2.81 0.39 4.78 0.02zm9.66 10.62c2.73-2.25 2.85-4.87 0.23-6.99-0.76-0.61-3.54 0.02-4.34 0.97-1.95 2.29-1.06 4.57 1.46 6.08 0.5 0.3 1.26 0.16 2.65-0.06zm44.51 23.84c-1.51-1.1-2.94-2.34-4.59-3.13-0.23-0.11-2.27 2.09-2.14 3.04 0.19 1.32 1.79 3.56 2.5 3.46 1.51-0.22 2.84-1.7 4.23-3.37zm24.52 35.21q-2.05-1.46-4.11-2.91c-0.76 1.11-2.16 2.25-2.12 3.34 0.04 1.14 1.45 2.23 2.27 3.35 1.32-1.05 2.64-2.09 3.96-3.78zm-19.44 95.73c0.58-1.35 1.41-2.66 1.57-4.06 0.05-0.43-1.99-1.75-2.59-1.5-1.6 0.67-2.94 1.97-4.38 3.02 1.58 0.96 3.16 1.91 5.4 2.54zm7.13-17.75q-1.53 2.06-3.05 4.13c0.96 0.69 2.14 2.11 2.86 1.9 1.38-0.39 2.5-1.7 3.73-2.62-0.96-1.19-1.92-2.37-3.54-3.41zm-102.93-166.19c0.42-1.37 0.85-2.73 1.5-4.83-5.83 2.95-7.13 5.08-5.02 10.21 1.04-1.6 2.08-3.21 3.52-5.38zm115.79 115.9c1.22 0.97 2.33 2.36 3.7 2.69 0.58 0.14 2.18-1.86 2.42-3.07 0.17-0.89-1.12-2.07-1.76-3.12-1.44 0.95-2.89 1.89-4.36 3.5zm-50.64 90.23c0.63-1 1.99-2.63 1.77-2.89-2.19-2.53-4.82-2.94-8.95-0.34 2.72 1.34 4.61 2.27 7.18 3.23zm-37.63-196.59q0.21-2.92 0.42-5.85c-0.9-0.04-2.35-0.44-2.58-0.08-0.92 1.46-1.74 3.13-1.93 4.8-0.05 0.42 2.33 1.13 4.09 1.13zm87.66 143.32c-0.62-0.15-1.57-0.65-1.81-0.41-1.26 1.22-2.33 2.63-3.47 3.97 1.05 0.72 2.2 2.15 3.13 2.02 2.79-0.4 3.85-2.26 2.15-5.58zm-108.86-153.89q-0.21 2.01-0.43 4.02 0.91 0.37 1.82 0.73 2.11-3.75 4.22-7.51-0.84-0.6-1.68-1.21c-1.18 1.13-2.35 2.27-3.93 3.97zm94.57 62.43c0.97 1.26 1.86 2.61 3.01 3.69 0.15 0.13 2.24-1.08 2.36-1.83 0.17-1.09-0.46-3.22-1.05-3.33-1.29-0.24-2.77 0.5-4.32 1.47zm-11.61 128.69c-0.9-0.31-1.85-0.98-2.68-0.85-1.18 0.18-2.46 0.74-3.3 1.55-0.37 0.35-0.06 2.24 0.45 2.52 1.17 0.65 2.94 1.36 3.91 0.89 1.04-0.5 1.44-2.33 1.62-4.11zm-70.9-189.75c4.04 0.64 5.25-1.36 3-7.49-1.4 2.93-2.33 4.87-3 7.49zm106.95 141.72q-0.29-2.09-0.59-4.18c-1.05 0.26-2.55 0.19-3.03 0.86-0.64 0.88-0.48 2.34-0.66 3.55 1.25 0.09 2.5 0.19 4.28-0.23z"/>
	<path class="s1" d="m-134.5-47c0.5 137.69 0.5 275.38 0.5 413.53-0.67 0.14-1.78-0.08-1.91-0.55-0.29-1.09-0.09-2.31-0.09-3.48q-0.01-202.5 0.04-405c0-1.5 0.63-3 1.46-4.5z"/>
	<path class="s2" d="m825.11 149.98c0 13.15 0 25.79 0 38.37-2.89 1.25-4.22 0.79-4.21-2.46 0.08-17.13 0.04-34.25 0.04-53.06 2.53 1.72 4.53 2.5 5.68 3.95 10.67 13.41 21.19 26.93 31.75 40.42 0.68 0.86 1.42 1.69 2.98 3.54 0-16.15 0-31.11 0-46.43 1.75-0.16 2.92-0.27 4.32-0.4 0 18.45 0 36.56 0 56.25-2.47-1.87-4.42-2.82-5.64-4.36-10.04-12.62-19.95-25.36-29.91-38.06-1.07-1.37-2.23-2.69-4.57-3.74-0.15 1.83-0.3 3.65-0.44 5.98z"/>
	<path class="s3" d="m518.98 169.93c-5.74 15.17-20.37 22.61-35.48 18.38-14.64-4.1-22.78-17.57-19.8-32.78 3.03-15.44 18.22-24.9 34.49-21.47 15.42 3.24 24.76 17.9 21.38 33.55-0.14 0.65-0.33 1.29-0.59 2.32zm-15.9 13q0.86-0.5 1.71-1.03c10.25-6.6 14.03-18.85 9.29-30.15-4.51-10.77-16.02-16.52-27.93-13.96-11.69 2.51-19.54 12.66-19.07 24.64 0.7 17.51 17.69 27.53 36 20.5z"/>
	<path class="s3" d="m1018.8 142.21c7.97 8.7 9.61 18.56 5.92 29.04-3.82 10.83-12.48 16.38-23.49 17.45-8.38 0.81-16.91 0.16-25.98 0.16 0-8.65-0.05-17.09 0.09-25.52 0.02-0.72 1.31-1.42 2-2.13 0.7 0.86 1.97 1.7 2.01 2.59 0.19 5.15 0.1 10.32 0.11 15.48q0 2.68 0 5.36c8.23 0 16.11 0.8 23.76-0.18 11.91-1.53 19.18-11.29 18.98-23.7-0.19-11.88-8-21.29-19.76-22.63-7.74-0.87-15.62-0.42-23.43-0.74-1.39-0.06-2.75-1.02-4.12-1.56q0.28-1.2 0.55-2.4c10.05 0.49 20.19 0.33 30.1 1.75 4.57 0.66 8.69 4.42 13.26 7.03z"/>
	<path class="s4" d="m891.21 185.84c-2.1-1.86-6.43-2.18-3.58-6.85 6.97 5.9 14.87 7.52 23.47 6.17 6.13-0.96 9.83-4.24 10.34-9.14 0.52-5.18-2.15-8.68-8.48-10.65-5.07-1.58-10.26-2.78-15.33-4.39-6.9-2.19-10.2-6.32-10.32-12.46-0.14-6.46 3.48-11.35 10.29-13.67 8.01-2.72 15.78-1.66 23.18 2.07 1.02 0.51 1.37 2.35 1.85 3.25-6.74-1.11-12.51-2.63-18.32-2.78-3.17-0.09-6.9 1.5-9.51 3.47-5.21 3.92-4.26 11.95 1.49 15.05 2.6 1.4 5.52 2.25 8.36 3.14 3.01 0.95 6.14 1.54 9.15 2.47 8.36 2.59 12.39 7.3 11.98 13.85-0.43 6.98-6.13 12.48-14.34 13.61-6.9 0.94-13.62 0.39-20.23-3.14z"/>
	<path class="s5" d="m673.03 158.29c4.85 1.4 9.42 2.39 13.8 3.93 6.65 2.33 9.83 6.56 9.86 12.34 0.03 6.02-3.23 10.97-9.67 13.13-9.68 3.24-19.07 2.17-27.6-3.67-1.11-0.75-1.47-2.6-1.52-4.46 7.38 4.99 15.02 6.91 23.47 5.71 6.72-0.95 10.63-4.27 11.14-9.51 0.49-5.04-2.57-8.62-9.26-10.62-4.94-1.47-9.96-2.66-14.85-4.26-6.69-2.17-10.17-6.64-10.21-12.6-0.04-6.01 3.81-11.13 10.15-13.34 8.18-2.85 16.08-1.78 23.65 2.07 1 0.51 1.41 2.17 2.21 3.47-6.9-1.26-12.61-2.76-18.4-3.16-2.9-0.2-6.32 1-8.84 2.61-6.71 4.28-6.03 12.81 1.06 16.43 1.46 0.75 3.09 1.19 5.01 1.93z"/>
	<path class="s3" d="m722.04 156.21c5.42 1.72 10.46 3.36 15.57 4.81 9.57 2.7 14.01 7.51 13.42 14.75-0.6 7.38-6.91 12.58-16.15 13.42-7.54 0.68-14.63-0.56-20.87-4.99-1.14-0.81-1.54-2.66-1.59-4.57 7.7 5.41 15.75 6.93 24.47 5.47 5.85-0.98 9.74-4.67 10.05-9.45 0.32-4.79-2.51-8.35-8.46-10.22-5.23-1.63-10.59-2.86-15.8-4.55-6.7-2.17-9.75-6.13-9.87-12.22-0.13-6.62 3.07-11.31 9.57-13.63 8.32-2.97 16.4-1.91 24.1 2.07 0.96 0.5 1.27 2.25 1.68 3.04-6.96-1.07-13.07-2.72-19.16-2.67-3.38 0.02-7.39 2.2-9.95 4.63-4.18 4-2.72 9.79 2.99 14.11z"/>
	<path class="s3" d="m414.06 133.86c4.83 0.02 9.16-0.08 13.49 0.1 10.35 0.44 17.45 5.82 19.18 14.33 1.94 9.6-1.7 16.39-12.05 21.62 4.26 6.11 8.48 12.16 12.69 18.21q-0.37 0.61-0.75 1.21c-1.57-0.8-3.23-1.47-4.69-2.45-0.77-0.52-1.18-1.58-1.75-2.4-10.56-15.12-11.59-15.56-30.84-13.07q0 8.37 0 16.81-0.55 0.54-1.11 1.08c-1.02-0.92-2.89-1.8-2.93-2.75-0.26-6.28-0.13-12.58-0.13-19.53 7.93 0 15.38 0.22 22.81-0.06 6.36-0.24 11.78-2.47 14.04-9.19 3.28-9.71-1.94-18.61-12.14-19.72-6.92-0.76-13.97-0.35-20.95-0.65-1.4-0.07-2.76-1-4.14-1.53q0.25-1.01 0.5-2.01c2.76 0 5.52 0 8.77 0z"/>
	<path class="s3" d="m582.45 142.07c-1.91-0.23-3.79-0.33-5.22-1.18-9.06-5.45-20.94-4.84-29.07 1.66-7.74 6.19-10.68 17.18-7.29 27.19 4.95 14.62 23.51 20.51 36.81 11.68 1.86-1.24 3.69-3.53 5.32 0.19-6.92 7.48-19.33 10.01-29.57 6.05-11.44-4.43-18.14-13.99-18.1-26.15 0.03-10.68 4.39-19.22 13.84-24.36 9.91-5.39 20.15-5.17 30.01 0.49 1.48 0.85 2.35 2.77 3.27 4.43z"/>
	<path class="s5" d="m375.45 168.59c-9.33 1.25-18.33 2.3-27.44 3.37-0.47 5.3-0.97 11.11-1.59 16.9-0.01 0.08-1.52 0.01-2.67 0.01 0-7.2 0-14.25 0-21.87 7.41 0 14.7 0.22 21.97-0.05 10.11-0.38 15.58-5.97 15.32-15.18-0.21-7.58-4.94-12.96-13.1-13.73-6.94-0.67-13.97-0.35-20.96-0.64-1.2-0.06-2.36-1.02-3.54-1.57 1.2-0.66 2.41-1.9 3.61-1.88 7.8 0.09 15.67-0.07 23.38 0.89 7.8 0.96 13.03 5.75 14.47 13.78 1.59 8.87-1.33 14.94-9.45 19.97z"/>
	<path class="s6" d="m133.18 230.92c-0.95-1.45-2.38-2.79-2.74-4.37-0.51-2.25-0.93-5.02-0.02-6.89 0.59-1.2 3.63-1.31 5.61-1.69 0.85-0.16 1.81 0.23 3.35 0.46-2.18-4.88-6.28-9.28-1.18-13.78 2.85-2.52 6.01-1.42 8.64 0.69 3.03 2.42 4.94 5.59 3.64 9.59-1.87 5.73-6.54 4.01-11.33 3.05 2.33 4.51 7.37 8.22 2.85 12.64-1.38 1.35-5.34 0.07-8.5 0.13-0.38 0.14-0.32 0.17-0.32 0.17z"/>
	<path class="s7" d="m92.9 95.81c0.05 0.73 0.09 1.45-0.17 2.73-2.11 3.87-4.24 7.07-5.62 10.57-0.78 2 0.26 3.65 3.34 2.33-1.39 4.77-4.26 9.11-2.4 14.4-0.39 0.38-0.77 0.76-1.55 0.81-0.72-4.06-2.55-4.24-5.34-2.47-0.09-0.1-0.28-0.3-0.22-0.65 1.33-3.76 2.79-7.1 3.79-10.57 0.53-1.83 0.31-3.95-2.76-3.29-0.07-0.59-0.11-0.82-0.01-1.36 1.82-3.81 3.5-7.31 5.18-10.82q-1.09-0.53-2.18-1.06c-1.73 3.51-3.45 7.03-5.45 10.53-0.61-0.02-0.97-0.03-1.69 0.06-4.98 1.87-2.86 7.29-5.99 10.01-0.42 0-0.59 0-0.76 0.01 1.44-4.51 2.39-9.26 4.45-13.46 3.33-6.84 7.22-13.43 11.24-19.89 1.21-1.94 3.63-3.11 6.07-4.47 0.71 0.3 0.85 0.44 0.8 0.88 0.32 1.82 0.84 3.34 1.36 4.85 0.29 0.45 0.59 0.89 0.62 1.62-4.04 2.97-6.09 6.61-6.9 12.17 1.94-1.35 3.07-2.14 4.19-2.93z"/>
	<path class="s8" d="m791.24 176.97c0-14.45 0-28.41 0-42.59 2.23-0.64 4.29-1.65 4.28 2.19-0.04 17.27-0.02 34.55-0.02 51.82-2.91 1.23-4.39 0.78-4.28-2.44 0.09-2.82 0.02-5.65 0.02-8.98z"/>
	<path class="s4" d="m949.92 175.98c0 3.66 0.22 6.84-0.12 9.96-0.14 1.25-1.52 2.36-2.34 3.54q-0.88-0.39-1.76-0.77 0-3.88 0-7.76c0-14.45 0.04-28.89-0.04-43.34-0.02-2.87 0.41-4.66 4.26-3.22 0 13.59 0 27.34 0 41.59z"/>
	<path class="s9" d="m100.8 191.95c0.88 0.02 1.76 0.05 2.86 0.44-4.29 5.4-2.98 10.98 3.6 16.45-0.67 0.59-1.01 0.97-1.67 1.17-0.76-0.67-1.14-1.48-1.66-1.59-2.26-0.45-4.56-0.69-6.85-1.01 0.01 2.04-0.36 4.18 0.14 6.09 0.51 1.97 1.87 3.72 2.61 5.94-2.04 0.04-3.84-0.28-5.63-0.6 0.1 2.01-0.11 4.11 0.4 6.02 0.48 1.76 1.74 3.32 2.58 4.83-1.6 0.11-2.95 0.21-4.51 0.19-0.61-0.37-1-0.63-1.48-1.26-1.46-3.13-2.83-5.9-3.81-8.69 4.03 0.24 5.1-1.42 4.07-4.8-0.87-2.82-1.64-5.67-2.11-8.3 4.12 2.32 5.94 0.75 5.64-3.11-0.26-3.29-1.29-6.51-1.61-9.7 3.49 1.9 5.78 0.98 7.43-2.07z"/>
	<path class="s10" d="m129.74 184.57c0.32-6.28 2.14-8.71 6.17-8.74 3.92-0.02 7.46 3.55 8.01 8.07 0.52 4.3-1.59 7.68-5.2 8.33-4.21 0.77-7.21-1.69-8.98-7.66z"/>
	<path class="s11" d="m131.89 243.96c0.07 0.75-0.03 1.58 0.23 2.26 0.8 2.06 1.75 4.07 2.63 6.1-1.98 0.79-3.97 1.59-5.79 2.31 1.19 1.42 2.81 3.18 4.16 5.14 0.2 0.3-0.91 1.49-2.12 2.19-2.76-1.04-4.81-2-7.07-3.24-1.42-2.02-2.64-3.77-4.36-6.24 2.62-0.37 3.95-0.56 5.42-0.77-5.61-8.88-5.61-8.88 3.77-9.67 0.32 0.33 0.49 0.6 0.78 1.38 0.93 0.53 1.74 0.55 2.5 0.6-0.06 0.04-0.15-0.06-0.15-0.06z"/>
	<path class="s10" d="m129.87 170.43c-0.27 2.32-0.22 4.44-1.05 6.13-1.99 4.09-6.21 4.66-9.42 1.46-3.35-3.34-3.59-7.39-1.84-11.47 1.54-3.59 6.26-4.38 9.16-1.53 1.35 1.34 2.07 3.33 3.15 5.41z"/>
	<path class="s10" d="m126.12 206.36c-4.43-3.76-6.07-8.21-4.08-12.03 0.69-1.33 2.51-3.32 3.32-3.11 2.82 0.74 6.54 1.64 7.83 3.75 1.56 2.55 1.95 6.68 1.09 9.62-0.96 3.3-4.55 3.21-8 1.86-0.36-0.08-0.16-0.09-0.16-0.09z"/>
	<path class="s12" d="m110.66 193.09c-0.91-2.93-2.44-5.85-2.51-8.81-0.05-1.8 1.85-4.79 3.42-5.2 1.88-0.5 4.9 0.59 6.39 2.05 1.6 1.56 2.42 4.28 2.8 6.63 0.8 4.94-3.51 9.97-9.39 5.89-0.55-0.41-0.65-0.55-0.71-0.56z"/>
	<path class="s13" d="m109.07 256.97c-2-1.42-4.01-2.83-5.72-4.64 0.75-1.39 1.22-2.39 1.6-3.72-1.73-1.74-3.39-3.15-5.04-4.55 0 0 0.08-0.06 0.41-0.21 0.69-0.64 1.05-1.52 1.41-1.53 3.36-0.02 2.2-1.72 1.29-3.69-0.98-1.9-1.91-3.45-2.55-5.24 0.49-0.4 0.67-0.57 1.22-0.73 4.17-0.3 3.28-2.75 2.57-5.01-0.7-2.26-1.53-4.48-1.9-6.69 5.5 0.73 4.48-3.21 5.32-5.91 0.98 1.36 1.65 2.66 2.24 4.31 0.66 3.79 1.41 7.22 1.88 11-1.93 0.55-3.99 0.24-5.06 1.13-0.66 0.56-0.14 3.02 0.39 4.43 0.68 1.79 1.9 3.38 2.64 5.4-4.03-0.77-4.52 0.77-2.91 3.77 0.92 1.72 2.09 3.32 2.85 5.21-0.98 1.24-2.15 2.23-2.19 3.25-0.03 1.12 0.99 2.28 1.55 3.42z"/>
	<path class="s6" d="m150.66 203.35c-1.22-0.58-2.2-0.92-2.9-1.57-3.11-2.85-4.31-8.29-1.66-10.63 1.73-1.53 5.05-2.33 7.36-1.89 3.73 0.71 6 5.71 5.05 9.59-0.95 3.91-3.66 5.24-7.85 4.5z"/>
	<path class="s6" d="m106.96 152.46c3.35-2.07 6.58-3.37 9.28 0.99 2.49 4.02 1.7 10.23-1.69 12.62-2.75 1.94-5.11 1.07-6.9-1.3-2.78-3.69-2.45-7.69-0.68-12.09-0.07-0.39-0.01-0.22-0.01-0.22z"/>
	<path class="s12" d="m147.4 161.47c1.18 0.66 2.19 1.02 2.82 1.71 2.86 3.14 3.85 7.02 1.05 10.25-1.43 1.66-5.05 2.73-7.19 2.18-3.72-0.94-5.08-4.54-4.5-8.29 0.63-4.08 2.88-6.62 7.82-5.85z"/>
	<path class="s12" d="m125.83 206.84c0.29-0.48 0.09-0.47 0.1-0.52-0.24 0.64-0.89 1.48-0.68 1.97 0.69 1.64 1.99 3.05 2.5 4.72 1.77 5.69-1.28 8.67-7.46 7.59-0.28 0.38-0.25 0.48-0.06 0.1-0.31-0.5-0.81-0.64-1.26-0.74 0.04 0.03 0.1 0.12 0.14-0.22-0.37-0.5-0.77-0.66-1.13-0.79 0.04 0.02 0.1 0.1 0.06-0.27-3.05-3.6-4.09-7.32-2.82-11.6 3.53-3.71 6.9-0.45 10.61-0.24z"/>
	<path class="s14" d="m110.18 193.44c0.54-0.34 0.64-0.2 0.79 0.02 0.34 1.21 0.81 2.45 1.01 3.74 0.45 2.99 0.78 6.01 0.82 9.58-1.96 0.99-3.58 1.42-5.21 1.86-6.91-5.27-8.22-10.85-3.5-16.18 2.01 0.25 3.8 0.79 6.09 0.98z"/>
	<path class="s6" d="m127.16 153.21c2.41-1.58 4.9-4 6.95-3.67 1.85 0.3 4.29 3.48 4.53 5.6 0.28 2.56-0.78 6-2.52 7.9-2.71 2.97-7.82 1.05-8.95-3.12-0.53-1.98-0.12-4.22-0.01-6.71z"/>
	<path class="s6" d="m167.62 180.96c-1.64 5.84-4.27 7.68-8.38 6.23-4.13-1.45-6.36-6.24-4.2-10.04 0.93-1.65 3.1-3.65 4.69-3.63 2.14 0.02 4.49 1.56 6.32 2.99 0.99 0.77 1.09 2.68 1.57 4.45z"/>
	<path class="s6" d="m112.08 230.01c-0.75-3.43-1.5-6.86-1.82-10.82 2.89-0.4 5.36-0.27 7.82-0.14 0 0-0.06-0.08-0.2 0.25 0.31 0.48 0.75 0.63 1.19 0.78 0 0-0.06-0.09-0.13 0.22 0.32 0.47 0.71 0.62 1.1 0.78 0 0-0.03-0.1-0.06-0.14 1 3.69 2.03 7.42 3.53 11.31 0.47 0.16 0.56 0.22 0.19-0.07-2.48 0.35-4.59 1-6.74 1.38-1.4-0.73-2.77-1.19-4.09-1.96-0.26-0.77-0.57-1.22-0.87-1.64 0.01 0.03 0.08 0.05 0.08 0.05z"/>
	<path class="s7" d="m105.14 77.27c-0.77-1.06-1.33-2.46-2.36-3.07-0.72-0.41-2.08 0.28-3.11 0.97-1.92 1.88-3.89 3.25-5.85 4.63-0.14-0.14-0.28-0.28-0.64-0.62-2.75-4.38 1.05-7.19 3.13-8.4 3.36-1.96 5.04-4.76 7.11-7.58 0.85-1.16 2.14-2 3.04-2.82 1.92 2.43 3.69 4.68 5.94 7.54-0.03 0.43-0.15 1.9-0.25 3.8 0.03 0.43 0.08 0.48 0.08 0.48-3.98-1.7-4.3 2.25-6.33 4.46-0.42 0.55-0.59 0.58-0.76 0.61zm-5.53-6.74c0 0-0.13 0.08 0 0z"/>
	<path class="s6" d="m161.11 208.47c1.05-2.73 1.62-6.1 3.48-7.13 1.71-0.94 5.23 0.01 7.2 1.28 3.28 2.13 3.49 7.12 1.08 9.68-2.51 2.66-6.86 2.47-9.77-0.55-0.79-0.82-1.28-1.93-1.99-3.28z"/>
	<path class="s6" d="m158.71 228.11c-1.1-0.42-1.94-0.64-2.55-1.15-2.64-2.16-5.21-4.78-3.15-8.28 1.02-1.74 3.84-3.5 5.74-3.4 3.78 0.21 6.77 2.5 7.38 6.73 0.62 4.36-1.49 6.16-7.42 6.1z"/>
	<path class="s11" d="m106.5 152.12c0.46 0.34 0.4 0.17 0.44 0.15-2.77-0.29-5.85 3.83-8.37-0.48-2.71-4.61-1.64-8.93 0.85-13.37-0.32-0.3-0.37-0.23-0.37-0.23 6.95-1.37 10.08 2.11 8.43 9.46-0.32 1.42-0.95 2.76-0.98 4.47z"/>
	<path class="s10" d="m121.98 136.82c5.81 2.6 7.04 9.76 2.69 13.77-2.92 2.7-6.72 1.78-8.42-2.04-2.14-4.8 0.18-9.87 5.73-11.73z"/>
	<path class="s10" d="m98 166.07c3.4-1.31 6.67-1.59 8.61 2.2 2.2 4.31 2.94 8.71-1.65 12.71-2.46-0.33-4.21-0.69-5.96-1.02 0 0.04 0.08 0.05-0.02-0.33-3.35-4.59-2.07-9.09-0.98-13.6-0.03-0.01 0 0.04 0 0.04z"/>
	<path class="s6" d="m177.09 198.43c-5.26-1.65-7.76-4.83-6.7-8.46 0.9-3.09 2.79-5.38 6.39-5.01 3.75 0.39 6.11 2.65 6.45 6.37 0.35 4.01-1.5 6.66-6.14 7.1z"/>
	<path class="s15" d="m1066 162.86c-5.82 0-11.14 0.09-16.45-0.08-0.97-0.03-1.9-1.13-2.85-1.73 0.89-0.66 1.77-1.89 2.67-1.9 10.78-0.13 21.56-0.08 32.34-0.08q0.47 0.65 0.94 1.31c-1.06 0.83-2.09 2.29-3.2 2.37-4.3 0.28-8.63 0.11-13.45 0.11z"/>
	<path class="s8" d="m138.2 272.93c0.49-1.49 0.98-2.99 1.69-5.15-0.72-1.25-2.01-3.47-3.31-5.69 1.02-0.31 2.04-0.63 3.42-1.01 0.35-0.07 0.41-0.12 0.64 0.23 0.99 0.11 1.76-0.12 2.6-0.4 0.08-0.04 0.37 0.11 0.37 0.11 0.45 0.9 0.66 2.16 1.38 2.64 1.78 1.17 3.8 2 5.72 2.96q-0.89 1.11-1.78 2.23c-1.18 0.71-2.35 1.42-3.76 2.28 1.28 1.03 2.73 1.77 3.5 2.95 0.52 0.81 0.1 2.24 0.1 3.85 0.33 0.18 1.31 0.72 2.13 1.61-1.02 0.36-1.87 0.39-2.72 0.41-1.58-0.56-3.16-1.13-4.89-2.3-0.51-0.95-0.87-1.29-1.23-1.64-1.13-1.26-2.25-2.52-3.63-3.38-0.25 0.4-0.23 0.3-0.23 0.3zm7.31 3.06q-0.42 0.18-0.84 0.35c0.09 0.13 0.25 0.37 0.25 0.37 0.37-0.23 0.72-0.47 1.34-0.81-0.08 0.03-0.17 0.07-0.75 0.09z"/>
	<path class="s16" d="m1063 185.1c5.83 0 11.17-0.12 16.49 0.1 1.14 0.05 2.22 1.34 3.33 2.06q-0.36 0.73-0.73 1.45-17.36 0-34.72 0-0.49-0.45-0.99-0.91c1.04-0.9 2.04-2.49 3.13-2.57 4.32-0.3 8.66-0.13 13.49-0.13z"/>
	<path class="s14" d="m164.69 162.63c1.31-4.2 4.02-5.78 7.72-4.46 3.57 1.27 5.02 4.32 4.15 7.99-0.76 3.24-3.02 5.36-6.5 4.76-4.26-0.73-5.97-3.68-5.37-8.29z"/>
	<path class="s14" d="m152.68 241.01c-1.39-0.55-2.56-0.88-3.44-1.58-2.7-2.17-5.4-5.14-2.9-8.3 1.26-1.6 5.34-1.98 7.78-1.39 3.75 0.89 6.33 6.05 4.6 8.59-1.03 1.5-3.73 1.85-6.04 2.68z"/>
	<path class="s15" d="m623.99 162.86c-6.13 0-11.77 0.11-17.4-0.08-1.12-0.04-2.19-1.2-3.29-1.85 1.11-0.62 2.2-1.77 3.31-1.78q14.67-0.21 29.34-0.01c1.02 0.01 2.02 1.03 3.02 1.58-1.01 0.71-1.99 1.98-3.04 2.05-3.8 0.25-7.62 0.09-11.94 0.09z"/>
	<path class="s16" d="m632.84 189.04c-8.96 0-17.45 0.08-25.93-0.09-1.21-0.03-2.4-1.3-3.6-2 1.13-0.61 2.26-1.75 3.4-1.77 9.65-0.14 19.3-0.16 28.94 0.02 1.25 0.02 2.48 1.34 3.72 2.06q-0.35 0.89-0.7 1.78c-1.78 0-3.57 0-5.83 0z"/>
	<path class="s10" d="m610.17 133.89c9.74 0 19.01 0 28.28 0q0.39 0.72 0.78 1.43c-1.04 0.7-2.07 1.98-3.12 2q-14.92 0.22-29.85 0.01c-1.1-0.02-2.19-1.15-3.28-1.76q0.26-0.84 0.51-1.68c2.07 0 4.14 0 6.68 0z"/>
	<path class="s12" d="m159.99 148.13c0.61 0.85 1.06 1.36 1.3 1.96 1.42 3.64 1.16 7.28-2.61 8.89-1.88 0.8-6.21 0.15-6.77-1.06-1.19-2.61-1.7-6.49-0.56-8.96 1.55-3.36 5.16-3.7 8.64-0.83z"/>
	<path class="s11" d="m148.58 140.44c0.2 4.07-1.19 7.16-4.87 7.94-1.61 0.34-4.82-0.96-5.25-2.21-0.86-2.53-0.92-5.72-0.12-8.27 0.44-1.4 3.73-3.25 4.93-2.79 2.08 0.79 3.53 3.22 5.31 5.33z"/>
	<path class="s14" d="m92.21 151.13c5.51 0.83 5.77 5.08 5.84 9.25 0.03 1.76-0.59 3.53-0.48 5.49 0.43 0.2 0.4 0.15 0.19-0.18-2.36 1.31-4.45 3.29-7.51 0.77-3.43-6.99-2.86-11.04 1.96-15.33z"/>
	<path class="s6" d="m100.81 191.53c-1.66 3.47-3.95 4.39-7.43 2.52-0.37-0.02-0.3-0.04-0.39-0.4-0.24-0.66-0.34-0.98-0.52-1.25-2.49-3.81-3.58-7.91-1.3-12.09 2.28-4.18 5.28 0.59 7.91-0.3 0 0-0.08-0.01-0.46 0.14 0.13 1.07 0.63 1.99 1.12 2.92 0.36 2.68 0.72 5.36 1.07 8.46z"/>
	<path class="s14" d="m107.36 135.3c0.64-3.17 0.99-6.16 2.26-8.68 0.6-1.18 3.92-2.43 4.36-1.99 1.57 1.55 3.62 4.05 3.29 5.77-0.58 3.05-2.15 6.55-4.46 8.46-2.23 1.83-4.5-0.44-5.45-3.56z"/>
	<path class="s10" d="m124.07 232.47c0 0-0.09-0.06-0.13-0.02 2.9-0.23 5.83-0.5 9-1.15 0.24-0.38 0.18-0.41 0.16-0.44-0.17 0.54-0.65 1.36-0.43 1.65 0.76 0.99 2 1.65 2.62 2.69 1.08 1.8 2.82 4.04 2.42 5.64-0.34 1.4-3.24 2.16-5.42 3.16-0.4-0.04-0.31 0.06-0.46-0.31-0.9-0.5-1.65-0.64-2.41-0.77-0.17-0.28-0.34-0.55-0.85-1.21-1.73-3.33-3.11-6.29-4.5-9.24z"/>
	<path class="s6" d="m178.66 220.36c0.32-2.82 0.17-5.87 1.59-7.68 0.88-1.11 4.66-1.15 6.23-0.19 1.75 1.07 3.12 3.73 3.4 5.87 0.17 1.37-1.91 4.33-2.98 4.33-2.68 0-5.36-1.28-8.24-2.33z"/>
	<path class="s12" d="m187.6 181.46c-5.43-0.89-8.54-4.03-6.98-7.46 0.96-2.11 3.65-4.54 5.74-4.71 1.76-0.14 4.67 2.39 5.48 4.38 1.37 3.34 0.13 6.49-4.24 7.79z"/>
	<path class="s14" d="m144.06 251.96c-0.79-1.35-1.87-2.61-2.31-4.07-0.53-1.77-1.32-4.27-0.51-5.39 0.82-1.14 3.44-1.3 5.27-1.29 1.18 0.01 2.84 0.8 3.42 1.77 1.43 2.35 2.35 5 3.47 7.53-2.53 0.3-5.05 0.63-7.58 0.88-0.45 0.05-0.94-0.23-1.62 0.07-0.21 0.44-0.14 0.5-0.14 0.5z"/>
	<path class="s12" d="m199.06 201.39c0.11 4.32-1.92 7.18-5.76 6.5-2.3-0.41-5.09-3.03-5.88-5.27-0.49-1.43 1.83-4.97 3.7-5.86 3.82-1.81 6.52 0.49 7.94 4.63z"/>
	<path class="s14" d="m133.21 136.4c-4.89 1.56-6.34-1.48-7.04-4.92-0.7-3.46 2.71-8.83 5.44-8.23 2.02 0.44 4.98 3.04 5.02 4.73 0.06 2.71-1.95 5.48-3.42 8.42z"/>
	<path class="s12" d="m169.91 228.09c0.96-0.91 1.69-1.8 2.57-1.99 3.5-0.75 6.92-0.29 8.43 3.33 0.7 1.67 0.54 5.29-0.32 5.7-2.25 1.06-5.41 1.69-7.64 0.89-3.04-1.08-4.92-3.89-3.04-7.93z"/>
	<path class="s7" d="m83.92 136.98c0.33 0.04 0.61 0.19 0.79 0.98-3.52 5.43-3.57 10.48-1.22 15.76-0.72 0.16-1.01 0.22-1.46-0.04-1.77-1.44-3.37-2.55-5.2-3.77-0.44-0.39-0.64-0.67-0.77-1.33 0.6-3.72 1.47-7.05 1.47-10.38 0-1.07-2.34-2.13-3.66-3.58 0.84-3.79 1.75-7.18 3.01-10.57 0.58 0 0.82-0.01 1.41 0.09 1.11-0.01 1.85-0.13 2.59-0.26 0 0 0.19 0.2 0.22 0.67-0.74 3.59-1.72 6.68-2.17 9.85-0.19 1.26 0.78 2.68 1.23 4.03q1.88-0.73 3.76-1.45z"/>
	<path class="s12" d="m99.13 138.1c-0.25-0.18-0.61-0.54-0.81-0.47-1.8 0.63-3.57 1.34-5.35 2.03-0.61-2.63-1.77-5.28-1.67-7.89 0.07-2.17 1.62-4.29 2.1-6.65-0.42-0.22-0.45-0.09-0.23 0.25 1.1-0.19 1.98-0.73 2.86-1.27 3.91 1.24 5.49 4.59 4.13 8.81-0.49 1.53-1.06 3.03-1.35 4.91 0.24 0.37 0.29 0.3 0.32 0.28z"/>
	<path class="s14" d="m169.23 239.03c0.66 0.18 1.1 0.21 1.26 0.43 1.47 2.05 3.18 4.01 4.11 6.29 0.25 0.61-2.01 3.25-2.96 3.16-2.63-0.24-5.48-0.97-7.62-2.42-1.2-0.81-2.08-4.6-1.52-5.04 1.72-1.35 4.19-1.73 6.73-2.42z"/>
	<path class="s11" d="m160.48 139.36c0.98-2.68 1.69-5.39 3.39-7.17 0.71-0.75 4.22-0.18 5.13 0.9 1.29 1.53 2.2 4.32 1.7 6.15-0.49 1.79-2.97 4.24-4.53 4.22-1.87-0.04-3.71-2.39-5.69-4.1z"/>
	<path class="s2" d="m104.07 113.18c5.34-1.87 7.31-0.16 6.25 5.51-0.23 1.28-0.39 2.9-1.23 3.67-1.64 1.49-3.74 2.49-5.65 3.69-0.69-2.16-1.98-4.34-1.89-6.47 0.08-1.95 1.66-3.84 2.56-6.11-0.02-0.35-0.04-0.29-0.04-0.29z"/>
	<path class="s12" d="m179.37 154c-0.83-0.26-1.34-0.38-1.72-0.67-2.92-2.16-4.07-5.15-1.92-8.11 1.09-1.49 4.31-3.04 5.56-2.44 1.99 0.94 4.23 3.57 4.4 5.65 0.26 3.34-1.96 5.85-6.32 5.57z"/>
	<path class="s14" d="m201.45 180.23c2.1 0.61 4.99 0.98 5.33 2.11 0.69 2.31 0.88 5.68-0.38 7.37-0.92 1.23-5.52 1.49-6.65 0.36-1.49-1.51-1.47-4.78-1.52-7.31-0.02-0.79 1.85-1.61 3.22-2.53z"/>
	<path class="s11" d="m147.55 127.75c0-0.84 0.07-1.33 0.17-1.82 0.69-3.3 2.48-6.01 6.03-4.87 1.8 0.58 4.15 3.58 3.94 5.21-0.28 2.28-2.26 5.31-4.31 6.21-3.21 1.42-5.06-1.24-5.83-4.73z"/>
	<path class="s14" d="m127.44 115.51c-0.63 2.69-0.89 5.26-2.13 7.22-0.75 1.18-3.3 2.23-4.52 1.82-1.27-0.44-2.56-2.68-2.65-4.19-0.11-2 0.53-4.32 1.59-6.05 2.61-4.28 5.38-3.88 7.71 1.2z"/>
	<path class="s3" d="m76.83 211.93c-0.98-2.7-1.97-5.4-2.98-8.88 0.29-2.27 0.88-3.77 0.84-5.25-0.07-2.61-0.53-5.21-0.53-8.08 1.17-0.43 2.06-0.59 2.58-0.51 0.2 0.74 0.77 1.23 1.15 1.99 0.14 0.81 0.47 1.35 0.86 2.28 0.75 3.74 1.42 7.1 1.81 10.58-1.04 0.32-1.79 0.53-2.55 0.48-0.2-0.44-0.37-0.63-0.54-0.82-0.15 0.46-0.29 0.91-0.32 1.71 0.98 3.4 1.85 6.47 2.46 9.42-1.09-1.06-1.93-1.99-2.78-2.92z"/>
	<path class="s12" d="m83.92 153.62c-2.78-5.18-2.73-10.23 0.89-15.44 1.84 0.49 3.52 1.31 5.27 2.74 0.17 2.45 0.27 4.29 0.37 6.13-0.19 0.72-0.39 1.43-0.95 2.57-2.1 1.61-3.84 2.81-5.58 4z"/>
	<path class="s17" d="m134.86 268.96c-1.71 2.97 1.06 3.38 2.95 4.25 0.39-0.28 0.37-0.18 0.42-0.2-0.3 1.04-0.64 2.09-1.29 4.05-3.81-3.34-7.07-6.5-10.67-9.2-1.38-1.03-3.85-0.56-5.3-1.55-3.37-2.32-6.42-5.11-9.3-8.05 2.83 0.67 5.36 1.69 7.76 3.26 0.96 0.85 2.05 1.14 3.45 1.5 4.2 2.03 8.09 3.99 11.98 5.94z"/>
	<path class="s10" d="m1076.98 137.41c-9.27 0-18.05 0.06-26.83-0.08-1.13-0.02-2.23-1.12-3.35-1.72 1.11-0.57 2.21-1.63 3.33-1.64 9.11-0.14 18.22-0.16 27.33 0 1.61 0.03 3.2 1.06 4.79 1.63-1.59 0.6-3.18 1.21-5.27 1.81z"/>
	<path class="s12" d="m194.6 163.93c-4.35-3.27-5.11-7.93-1.63-9.74 1.58-0.82 4.63-0.88 5.81 0.12 1.44 1.22 2.33 4 2.15 5.98-0.3 3.15-2.96 4.1-6.33 3.64z"/>
	<path class="s14" d="m204.4 229.46c-0.6 0.6-1.02 1.24-1.34 1.2-2.54-0.34-5.43-0.24-7.45-1.5-0.89-0.56-0.8-4.92 0.29-5.84 1.5-1.26 4.64-1.69 6.59-1.03 3.08 1.04 3.73 3.86 1.91 7.17z"/>
	<path class="s11" d="m137.46 113.85c1.63-3.04 3.83-5.6 6.74-3.38 1.53 1.17 2.33 4.89 1.66 6.85-0.63 1.87-3.8 4.35-5.49 4.1-3.72-0.54-3.67-4.07-2.91-7.57z"/>
	<path class="s11" d="m88.42 125.97c-2.23-5.42 0.64-9.76 2-14.49-0.49-0.2-0.67-0.1-0.67-0.1 7.1 0.8 7.69 1.89 4.92 10.26-0.78 1.49-1.25 2.44-1.72 3.39 0 0 0.03-0.13 0.07-0.19-1.38 0.38-2.8 0.82-4.6 1.13z"/>
	<path class="s4" d="m64.77 163.7c0.1-4.95 0.2-9.91 0.67-15.31 0.79-0.81 1.2-1.18 1.94-1.56 0.42-0.32 0.54-0.61 0.61-0.89-0.04 0.01-0.04 0.1 0.28 0.29 1.44 1 2.56 1.81 3.69 2.82 0.02 0.2-0.02 0.59-0.15 1.04-0.36 4.29-0.58 8.14-1.15 12.23-2.19 0.63-4.04 1-5.89 1.38z"/>
	<path class="s11" d="m206.18 215.86c-2.98-4.38-2.32-8.17 1.51-8.78 1.82-0.29 4.6 0.4 5.62 1.7 0.98 1.24 1.05 4.93 0.12 5.6-1.79 1.3-4.57 1.21-7.25 1.48z"/>
	<path class="s11" d="m161.93 259.91c-0.84-0.72-2.01-1.29-2.46-2.21-0.93-1.88-1.48-3.94-2.18-5.93 1.96-0.38 3.92-0.94 5.9-1.07 0.86-0.06 2.12 0.51 2.61 1.2 1.23 1.76 2.13 3.75 3.16 5.65-2.12 0.63-4.25 1.26-6.74 2.14-0.36 0.25-0.29 0.22-0.29 0.22z"/>
	<path class="s12" d="m143.89 261.38c-0.28-0.36-0.57-0.51-1.18-0.56-1.17 0.01-1.73 0.08-2.3 0.14 0 0-0.06 0.05-0.03 0.08-0.23-0.86-0.41-1.78-0.76-2.63-0.69-1.72-1.47-3.41-2.21-5.1 1.94-0.37 3.89-0.74 6.24-1.23 0.41-0.12 0.34-0.18 0.3-0.22 2.32 2.55 4.66 5.13 7.98 8.77-3.83 0.56-5.79 0.84-8.04 0.75z"/>
	<path class="s13" d="m83.49 153.72c2.17-1.29 3.91-2.49 5.98-3.73 0.93 0.24 1.54 0.54 2.44 0.98-4.52 4.45-5.09 8.5-2.02 15.55-0.47 0.44-0.71 0.47-1.29 0.4-3.01-3.96-5.28-3.07-7.53 0.22-0.86-0.59-1.5-0.88-1.99-1.53 4.57-3.21 3.01-7.63 3.11-11.61 0.29-0.06 0.58-0.12 1.3-0.28z"/>
	<path class="s14" d="m185.99 240.66c-0.46-3.85 1.69-5.62 4.57-5.44 1.99 0.13 4.29 1.58 5.62 3.15 0.73 0.85 0.27 4.16-0.6 4.64-1.81 0.98-4.3 1.21-6.41 0.97-1.13-0.13-2.08-1.9-3.18-3.32z"/>
	<path class="s4" d="m112.37 110.33c0.93-3.23 1.73-6.22 3.15-8.89 0.44-0.83 3.3-1.46 3.73-0.99 0.96 1.08 1.87 3.17 1.44 4.35-0.97 2.66-2.63 5.11-4.37 7.37-0.24 0.31-2.52-0.94-3.95-1.84z"/>
	<path class="s2" d="m187.26 248.68c0.79 2.09 1.3 3.93 1.8 5.77-1.96 0.52-4.18 1.86-5.81 1.33-1.86-0.6-4.04-2.61-4.58-4.45-0.92-3.19 3.16-4.58 8.59-2.65z"/>
	<path class="s17" d="m163.32 273.58c-0.37 1.29-0.74 2.58-1.32 4.62 0.59 0.37 1.84 1.15 3.32 2.06-1.4 1.34-2.25 2.14-3.68 3.5 2.13 0.72 3.65 1.24 5.43 1.85-1.04-0.15-1.95-0.12-2.73-0.42-2.16-0.83-4.26-1.79-6.38-2.7q-0.04 0.29-0.09 0.58c-1.05-2.04-2.09-4.07-3.39-6.58 0.13-0.18 0.8-1.11 1.5-2.34 2.49 0.65 5.01 2.63 7.34-0.57z"/>
	<path class="s8" d="m76.52 124.04c-0.9 3.4-1.81 6.79-2.63 10.54 0.1 0.35 0.18 0.39-0.16 0.32-0.48 0.34-0.62 0.75-0.75 1.13 0.01-0.04 0.08-0.03-0.26-0.17-1.18 0.29-2.56 0.54-2.76 1.18-0.85 2.59-1.34 5.3-2.2 7.8-0.76-0.72-1.27-1.29-1.79-1.85 0.7-3.38 1.4-6.76 2.56-10.65 1.24-1.55 2.23-2.5 2.77-3.65 1.21-2.62 2.2-5.34 3.57-8.11 0.74 1.09 1.19 2.28 1.65 3.46z"/>
	<path class="s3" d="m170.99 124.82c-1.68-3.51-0.61-6.17 2.38-7.17 1.45-0.48 4.73 0.72 5.17 1.9 0.69 1.88 0.43 4.96-0.76 6.49-2.03 2.59-4.69 1.59-6.79-1.22z"/>
	<path class="s14" d="m102.04 100.05c3.31-0.46 4.98 0.89 4.09 4.24-0.77 2.9-1.98 5.68-2.53 8.7 0.47 0.19 0.49 0.13 0.52 0.12-0.07-0.32-0.19-0.89-0.29-0.88-6.42 0.15-7.52-1.82-4.29-7.91 0.67-1.27 1.65-2.37 2.47-3.94-0.02-0.38 0.03-0.33 0.03-0.33z"/>
	<path class="s7" d="m79.87 214.97c-0.87-3.07-1.74-6.14-2.46-9.6 0.3-0.45 0.46-0.51 0.62-0.58 0.74-0.2 1.49-0.41 2.8-0.57 0.8 0.38 1.04 0.73 1.33 1.45 1.07 3.69 2.09 7.01 2.94 10.62-1.02 0.17-1.88 0.05-3.93-0.27 2 4.21 3.64 7.64 4.88 10.94-0.72 0.27-1.04 0.68-1.36 1.08-2.24-3.44-4.48-6.87-6.35-10.68 0.75-1.04 1.14-1.72 1.53-2.39z"/>
	<path class="s11" d="m191.94 128.15c2.61 2.61 3.06 5.41 0.64 7.63-1.1 1-4.25 1.42-5.13 0.62-1.41-1.28-2.62-3.95-2.3-5.74 0.61-3.37 3.31-4.21 6.79-2.51z"/>
	<path class="s12" d="m84.01 136.61c-1.35 0.85-2.6 1.34-3.85 1.82-0.45-1.35-1.42-2.77-1.23-4.03 0.45-3.17 1.43-6.26 2.26-9.75 2.76-2.24 4.59-2.06 5.04 2.03-0.63 3.43-1.38 6.49-2.22 9.93z"/>
	<path class="s11" d="m132.1 110.49c-4.32-3.04-3.94-9.34 0.57-10.98 1.11-0.41 4.05 0.99 4.29 2 0.95 3.97 0.14 7.59-4.86 8.98z"/>
	<path class="s14" d="m215.64 172.49c-2.92 2.01-5.72 1.91-7.06-0.89-0.81-1.7-0.57-4.75 0.51-6.23 0.81-1.12 4.2-1.56 5.59-0.78 3.02 1.68 3.34 4.66 0.96 7.9z"/>
	<path class="s2" d="m214.59 197.35c-0.61-4.03 1.08-6.48 4.64-6.21 1.66 0.13 4.48 2.65 4.4 3.93-0.12 1.88-2.06 4.29-3.86 5.14-1.06 0.5-3.34-1.58-5.18-2.86z"/>
	<path class="s18" d="m118.04 218.68c-2.42 0.24-4.89 0.11-7.7 0.15-1.01-1.12-1.68-2.42-2.68-4.15-0.81-1.79-1.28-3.14-1.75-4.49 0.34-0.38 0.68-0.76 1.35-1.35 1.96-0.64 3.58-1.07 5.49-1.67 0.78-0.16 1.26-0.15 2.1-0.11-0.9 4.3 0.14 8.02 3.19 11.62z"/>
	<path class="s14" d="m159.26 108.38c2.05-0.3 4.42-1 5.45-0.13 1.17 0.99 2.02 3.82 1.42 5.07-0.81 1.67-3.16 2.58-4.85 3.81-1.11-1.58-2.55-3.05-3.22-4.81-0.36-0.96 0.58-2.41 1.2-3.94z"/>
	<path class="s14" d="m161.71 260.43c0.22-0.52 0.15-0.49 0.13-0.51 0.24 0.84 0.33 1.81 0.77 2.57 0.96 1.62 2.09 3.13 3.74 5.55-2.86 0-4.28 0-6.22-0.1-0.82-0.15-1.1-0.12-1.37-0.02-0.6-0.27-1.42-0.37-1.75-0.83-1.18-1.63-2.19-3.39-3.26-5.09 1.92-0.38 3.84-0.79 5.77-1.12 0.64-0.1 1.31 0.04 2.19-0.45z"/>
	<path class="s15" d="m178.02 279.95c-1.82 0.65-3.47 1.01-6.01 1.56 2.61 1.76 4.45 3.01 6.28 4.25q-0.53 0.57-1.05 1.15c-3.03-3.37-6.05-6.75-9.65-10.76 5.02-1.28 8.38-0.61 10.43 3.8z"/>
	<path class="s2" d="m209.39 143.52c-1.46 2.78-3.51 4.55-5.98 2.52-1.42-1.17-2.38-3.81-2.22-5.68 0.09-1.1 3.74-3.11 4.1-2.8 1.72 1.51 2.86 3.68 4.1 5.96z"/>
	<path class="s3" d="m151.28 96.86c1.54 1.04 3.81 2.22 3.74 3.24-0.15 2.17-1.29 4.42-2.53 6.29-0.32 0.49-3.6-0.04-3.71-0.52-0.49-2.18-0.58-4.53-0.3-6.76 0.1-0.82 1.6-1.47 2.8-2.25z"/>
	<path class="s8" d="m175.33 264.59c-0.66-1.91-1.04-3.61-1.41-5.3 2.32-0.02 4.85-0.6 6.88 0.16 1.38 0.51 3.25 3.48 2.83 4.37-1.89 3.98-5.1 2.24-8.3 0.77z"/>
	<path class="s5" d="m109.61 99.66c0.74-3.23 1.5-6.32 2.87-9.13 0.42-0.88 2.45-0.99 3.74-1.45 0.25 1.22 1.04 2.65 0.65 3.62-1.3 3.29-1.61 7.8-7.26 6.96z"/>
	<path class="s11" d="m215.8 230.51c1.46 1.72 2.57 3.38 3.68 5.05-1.68 1.08-3.35 2.95-5.05 2.99-1.26 0.03-2.57-2.33-3.86-3.62 1.63-1.5 3.25-2.99 5.23-4.42z"/>
	<path class="s2" d="m220.39 220.18c1.98-1.54 3.75-3.08 5.8-3.7 0.56-0.16 2.95 2.64 2.73 3.73-0.32 1.56-2 3.5-3.54 4.04-2.86 1-4.63-0.76-4.99-4.07z"/>
	<path class="s3" d="m205.46 243.47c2.1 1.27 3.85 2.64 5.61 4.02-1.02 1.17-2.07 3.35-3.05 3.32-2.02-0.07-4.86-0.76-5.82-2.21-1.61-2.43 0.26-4.29 3.26-5.13z"/>
	<path class="s15" d="m119.56 260.97c-2.53-1.02-5.06-2.04-7.96-3.03-0.87-0.29-1.38-0.6-2.21-0.94-0.88-1.17-1.9-2.33-1.87-3.45 0.04-1.02 1.21-2.01 2.15-3.28 0.26-0.26 0.28-0.35 0.35 0.03 0.56 0.5 1.06 0.62 1.81 0.68 1.19 0.55 2.15 1.15 2.98 2.22 1.5 2.89 3.12 5.33 4.75 7.77z"/>
	<path class="s8" d="m102.02 100.03c-1.33-0.12-2.68-0.26-4.43-0.45-1.17-4.57 2.06-7.5 4.49-11.13-0.08-0.43-0.14-0.35-0.14-0.35 3.19-0.17 3.91 1.6 2.91 4.15-1 2.55-2.42 4.95-3.23 7.61 0.42 0.19 0.37 0.14 0.4 0.17z"/>
	<path class="s4" d="m124.44 98.72c-0.55-0.82-0.96-1.44-0.97-2.06-0.04-3.72 1.06-6.93 4.9-8.18 0.53-0.17 2.32 1.6 2.51 2.66 0.71 3.81-1.98 7.01-6.44 7.58z"/>
	<path class="s2" d="m222.48 147.62c1.01 2.17 1.99 4.21 2.13 6.3 0.03 0.47-3.37 2.03-4.29 1.51-1.35-0.78-2.89-3.28-2.52-4.48 0.45-1.46 2.81-2.32 4.68-3.33z"/>
	<path class="s11" d="m232.15 176.07c-0.29 2.33-0.46 4.52-1.45 6.25-0.36 0.64-3.2 0.79-3.89 0.12-1.13-1.1-2.01-3.08-1.93-4.64 0.15-3.21 3.27-4.01 7.27-1.73z"/>
	<path class="s4" d="m90.07 111.1c-0.32 0.28-0.14 0.18-0.11 0.14-2.59 1.52-3.63-0.13-2.85-2.13 1.38-3.5 3.51-6.7 5.62-10.21 0.53 2.01 1.28 4.31 0.84 6.37-0.43 1.99-2.07 3.72-3.5 5.83z"/>
	<path class="s2" d="m194.46 258.66c1.16-1.44 2.31-3.28 3.64-3.42 1.51-0.17 3.52 0.85 4.66 2 0.59 0.6 0.2 3.39-0.52 3.79-1.41 0.78-3.44 0.96-5.07 0.65-1.01-0.19-1.77-1.73-2.71-3.02z"/>
	<path class="s14" d="m145.84 93.71c-1.65 1.04-3.15 1.76-4.66 2.49-0.43-1.63-1.52-3.44-1.13-4.85 0.45-1.65 2.25-4.22 3.36-4.17 4.36 0.2 3.27 3.44 2.43 6.53z"/>
	<path class="s4" d="m134.84 268.62c-3.87-1.61-7.76-3.57-12.11-5.93 0.16-1.5 0.78-2.6 1.4-3.7 2.06 0.97 4.11 1.93 6.51 2.95 1.63 2.15 2.9 4.24 4.2 6.68z"/>
	<path class="s3" d="m235.57 208.46c-1.77-1.03-3.82-1.94-4.4-3.42-0.33-0.84 1.53-3.19 2.88-3.78 0.97-0.43 2.72 0.9 4.12 1.45-0.75 1.88-1.51 3.76-2.6 5.75z"/>
	<path class="s19" d="m74.59 120.68c-1.09 2.67-2.08 5.39-3.29 8.01-0.54 1.15-1.53 2.1-2.65 3.26-0.29-3.09-0.47-6.32-0.11-9.5 0.19-1.7 1.29-3.31 2.25-5.18 0.45-0.24 0.62-0.24 1.01 0.09 0.85 1.07 1.49 1.8 2.28 2.74 0.28 0.32 0.39 0.45 0.51 0.58z"/>
	<path class="s2" d="m179.71 107.69c1.24-1.76 2.5-3.17 3.75-4.57 1.18 1.26 3.1 2.41 3.3 3.82 0.19 1.28-1.48 2.84-2.34 4.28-1.56-1.06-3.12-2.12-4.71-3.53z"/>
	<path class="s8" d="m68.94 184.98c-0.59-3.39-1.17-6.78-1.47-10.61 1.46 1.25 2.64 2.94 3.82 5.01 0.39 3.76 0.78 7.14 0.93 10.48-0.55 0.08-0.87 0.12-1.2 0.11-0.01 0.03 0.05 0.02-0.04-0.2-0.27-0.56-0.54-0.67-0.89-0.94-0.37-1.54-0.76-2.69-1.15-3.85z"/>
	<path class="s11" d="m170.14 270.71c-0.33-4.07 2.53-3.39 4.21-2.71 2.06 0.83 3.72 2.69 5.55 4.1-0.73 0.68-1.67 2.06-2.15 1.92-2.55-0.78-4.97-1.94-7.61-3.31z"/>
	<path class="s16" d="m158.67 268.44c0.36-0.62 0.64-0.65 1.05-0.54-1.84 3.62 2.77 3.04 3.44 5.36-2.17 3.52-4.69 1.54-7.5 0.62-1.33-1.13-2.33-2.27-4.12-4.34 3.15-0.26 5.09-0.42 7.13-1.1z"/>
	<path class="s7" d="m71.28 179c-1.17-1.69-2.35-3.38-3.91-5.06-0.4 0.02-0.31 0.06-0.32-0.36-0.03-2.32 0.07-4.23-0.15-6.11-0.05-0.4-1.28-0.65-1.96-0.97-0.1-0.75-0.2-1.5-0.24-2.52 1.92-0.66 3.77-1.03 5.94-1.69 0.32-0.28 0.31-0.35 0.31 0.05-1.17 5.79-1.15 11.02 1.87 16.03-0.61 0.34-1.07 0.49-1.54 0.63z"/>
	<path class="s2" d="m195.27 119.35c-0.26-2.07-0.63-3.99-0.12-5.63 0.17-0.56 3.02-1.03 3.87-0.43 1.14 0.79 2.24 2.75 2.08 4.05-0.42 3.55-2.93 3.41-5.83 2.01z"/>
	<path class="s8" d="m195.01 265.69c0.96 1.47 1.59 2.8 2.21 4.12-1.67 0.39-3.45 1.33-4.97 1.01-1.31-0.28-3.37-2.1-3.26-3.04 0.41-3.68 3.23-2.79 6.02-2.09z"/>
	<path class="s4" d="m113.64 85.37c-1.38 1.27-2.55 2.26-4.68 4.06-0.37-6.35 2.34-9.24 6.04-11.55q0.7 0.28 1.41 0.56c-0.86 2.21-1.71 4.43-2.77 6.93z"/>
	<path class="s11" d="m126.6 78.22c1.44 4.93-0.91 7.75-4.82 10.09-1.84-5.12-0.58-7.73 4.82-10.09z"/>
	<path class="s20" d="m101.74 87.7c0.2 0.4 0.26 0.32 0.29 0.35-0.87-0.43-1.77-0.9-3.6-1.85 2.16-2.87 4.25-5.63 6.52-8.67 0.36-0.29 0.53-0.32 0.89-0.53-0.01 1.62 0.19 3.6-0.52 5.17-0.85 1.89-2.48 3.44-3.58 5.53z"/>
	<path class="s8" d="m136.32 78.39c1.45-0.2 2.65-0.12 3.85-0.04-0.54 2.13-0.84 4.39-1.76 6.34-0.34 0.72-2.18 0.72-3.34 1.05-0.13-1.5-0.46-3.02-0.33-4.49 0.08-0.89 0.86-1.73 1.58-2.86z"/>
	<path class="s5" d="m162.2 91.36c-1.74 0.1-4.36 0.3-4.55-0.29-0.49-1.5-0.24-3.51 0.41-5.01 0.31-0.71 2.2-0.74 3.37-1.08 0.34 2.04 0.67 4.08 0.77 6.38z"/>
	<path class="s11" d="m171.72 101.85c-1.02 0.08-1.78 0.22-2.28-0.08-2.52-1.51-3.41-3.79-1.46-6.08 0.8-0.95 3.58-1.58 4.34-0.97 2.62 2.12 2.5 4.74-0.6 7.13z"/>
	<path class="s16" d="m216.6 125.9c-1.39 1.32-2.72 2.8-4.23 3.02-0.71 0.1-2.31-2.14-2.5-3.46-0.13-0.95 1.91-3.15 2.14-3.04 1.65 0.79 3.08 2.03 4.59 3.48z"/>
	<path class="s3" d="m241.12 161.08c-1.32 1.37-2.64 2.41-3.96 3.46-0.82-1.12-2.23-2.21-2.27-3.35-0.04-1.09 1.36-2.23 2.12-3.34 1.37 0.97 2.74 1.94 4.11 3.23z"/>
	<path class="s17" d="m93.63 80.1c2.15-1.68 4.12-3.05 6.29-4.72 0.88 2.7 0.29 3.85-4.77 9.28q-1.03-1.83-1.52-4.56z"/>
	<path class="s8" d="m221.35 256.66c-1.91-0.8-3.49-1.75-5.07-2.71 1.44-1.05 2.78-2.35 4.38-3.02 0.6-0.25 2.64 1.07 2.59 1.5-0.16 1.4-0.99 2.71-1.9 4.23z"/>
	<path class="s5" d="m229.14 238.66c1.29 1.12 2.25 2.3 3.21 3.49-1.23 0.92-2.35 2.23-3.73 2.62-0.72 0.21-1.9-1.21-2.86-1.9 1.01-1.38 2.03-2.76 3.38-4.21z"/>
	<path class="s20" d="m125.68 72.83c-1.24 1.89-2.28 3.5-3.32 5.1-2.11-5.13-0.81-7.26 5.02-10.21-0.65 2.1-1.08 3.46-1.7 5.11z"/>
	<path class="s5" d="m241.68 188.12c1.46-1.28 2.91-2.22 4.35-3.17 0.64 1.05 1.93 2.23 1.76 3.12-0.24 1.21-1.84 3.21-2.42 3.07-1.37-0.33-2.48-1.72-3.69-3.02z"/>
	<path class="s20" d="m112.2 72.16q2.73-2.34 5.42-4.69 0.65 0.61 1.3 1.21-3.33 4.27-6.65 8.54-0.76-0.44-1.53-0.88c0.47-1.22 0.94-2.44 1.45-3.9 0.04-0.24-0.01-0.29 0.01-0.28z"/>
	<path class="s16" d="m190.69 278.67c-2.23-0.95-4.12-1.88-6.84-3.22 4.13-2.6 6.76-2.19 8.95 0.34 0.22 0.26-1.14 1.89-2.11 2.88z"/>
	<path class="s16" d="m93.01 95.48c-1.23 1.12-2.36 1.91-4.3 3.26 0.81-5.56 2.86-9.2 7-11.91-0.62 2.75-1.6 5.53-2.7 8.65z"/>
	<path class="s8" d="m153.15 82.38c-1.51-0.29-3.89-1-3.84-1.42 0.19-1.67 1.01-3.34 1.93-4.8 0.23-0.36 1.68 0.04 2.58 0.08-0.14 1.95-0.28 3.9-0.67 6.14z"/>
	<path class="s4" d="m241.35 225.68c1.41 3.05 0.35 4.91-2.44 5.31-0.93 0.13-2.08-1.3-3.13-2.02 1.14-1.34 2.21-2.75 3.47-3.97 0.24-0.24 1.19 0.26 2.1 0.68z"/>
	<path class="s8" d="m132.4 71.24c1.38-1.42 2.55-2.56 3.73-3.69q0.84 0.61 1.68 1.21-2.11 3.76-4.22 7.51-0.91-0.36-1.82-0.73c0.14-1.34 0.29-2.68 0.63-4.3z"/>
	<path class="s17" d="m68.69 185.19c0.64 0.95 1.03 2.1 1.51 3.9 0.35 0.72 0.61 0.81 0.87 0.9 0 0-0.06 0.01-0.3 0.34 0.23 3.85 0.7 7.36 1.17 10.88-1.17-5.27-2.33-10.54-3.25-16.02z"/>
	<path class="s8" d="m226.84 133.63c1.48-0.65 2.96-1.39 4.25-1.15 0.59 0.11 1.22 2.24 1.05 3.33-0.12 0.75-2.21 1.96-2.36 1.83-1.15-1.08-2.04-2.43-2.94-4.01z"/>
	<path class="s4" d="m215.4 262.91c-0.42 1.51-0.82 3.34-1.86 3.84-0.97 0.47-2.74-0.24-3.91-0.89-0.51-0.28-0.82-2.17-0.45-2.52 0.84-0.81 2.12-1.37 3.3-1.55 0.83-0.13 1.78 0.54 2.92 1.12z"/>
	<path class="s7" d="m91.27 228.99c0.4 0.26 0.79 0.52 1.43 1.27 1.86 3.26 3.48 6.04 4.69 8.88-1.1 0.32-1.79 0.6-2.48 0.88-0.95-0.43-1.89-0.86-2.82-2-1.03-3.16-2.06-5.6-2.74-8.04 0.87-0.33 1.4-0.66 1.92-0.99z"/>
	<path class="s19" d="m71.97 201.49c-0.5-3.8-0.97-7.31-1.19-11.19 0.57-0.32 0.89-0.36 1.79-0.43 0.83 0.06 1.06 0.09 1.3 0.11 0.29 2.61 0.75 5.21 0.82 7.82 0.04 1.48-0.55 2.98-0.95 4.88-0.64-0.03-1.19-0.48-1.77-1.19z"/>
	<path class="s20" d="m144.14 72.54c0.79-2.27 1.72-4.21 3.12-7.14 2.25 6.13 1.04 8.13-3.12 7.14z"/>
	<path class="s20" d="m88.99 229.98c1.04 2.44 2.07 4.88 3.07 7.7-2.37-2.76-4.69-5.89-7.19-9.33 0.14-0.71 0.46-1.12 1.44-1.4 1.33 1.09 2.01 2.06 2.68 3.03z"/>
	<path class="s16" d="m250.95 214.87c-1.52 0.16-2.77 0.06-4.02-0.03 0.18-1.21 0.02-2.67 0.66-3.55 0.48-0.67 1.98-0.6 3.03-0.86 0.2 1.39 0.4 2.79 0.33 4.44z"/>
	<path class="s17" d="m148.32 280.23c0.71-0.3 1.56-0.33 2.83-0.38 1.49 0.6 2.56 1.23 3.62 1.85q-0.63 0.8-1.26 1.6c-1.68-0.93-3.37-1.86-5.19-3.07z"/>
	<path class="s3" d="m99.47 244.29c2.09 1.17 3.75 2.58 5.3 4.56-1.62-0.24-3.14-1.04-4.66-1.85-0.36-0.83-0.72-1.66-0.64-2.71z"/>
	<path class="s3" d="m103.06 238.97c0.87 1.63 2.03 3.33-1.33 3.35-0.36 0.01-0.72 0.89-1.44 1.57-1.22 0.1-2.1 0.01-2.87-0.63 0.88-1.44 1.67-2.33 2.79-3.27 1.17-0.37 2.01-0.69 2.85-1.02z"/>
	<path class="s20" d="m100.09 247.34c1.54 0.47 3.06 1.27 4.76 1.85-0.28 0.75-0.75 1.75-1.53 2.79-1.3-1.4-2.28-2.85-3.23-4.64z"/>
	<path class="s20" d="m99.87 240.03c-0.78 0.9-1.57 1.79-2.62 2.83-0.64-0.27-1.01-0.68-1.27-1.46 0.03-0.33-0.07-0.28-0.17-0.23-0.24-0.22-0.48-0.44-0.82-0.91 0.61-0.52 1.3-0.8 2.63-1.11 1.17 0.27 1.71 0.58 2.25 0.88z"/>
	<path class="s9" d="m100.15 183.04c-0.9-0.9-1.4-1.82-1.52-2.93 2.12 0.18 3.87 0.54 6 1.01-1.1 0.7-2.59 1.3-4.48 1.92z"/>
	<path class="s4" d="m64.97 166.93c0.65-0.11 1.88 0.14 1.93 0.54 0.22 1.88 0.12 3.79 0.14 6.15q-1.01-2.67-2.07-6.69z"/>
	<path class="s20" d="m79.61 214.85c-0.13 0.79-0.52 1.47-1.26 2.16-0.86-1.48-1.35-2.98-1.68-4.77 1.01 0.62 1.85 1.55 2.94 2.61z"/>
	<path class="s13" d="m90.79 146.93c-0.44-1.72-0.54-3.56-0.59-5.71 0.35 1.66 0.65 3.62 0.59 5.71z"/>
	<path class="s16" d="m65.61 143.16c0.88 0.39 1.39 0.96 2.16 1.94 0.23 0.59 0.2 0.77 0.18 0.94 0 0 0-0.09-0.16 0.02-0.43 0.26-0.63 0.48-0.73 0.79-0.42 0.36-0.83 0.73-1.54 1.13-0.28-1.53-0.27-3.1 0.09-4.82z"/>
	<path class="s7" d="m93.17 125.37c0.25-1.29 0.72-2.24 1.46-3.37 0.56 0.39 0.85 0.95 1.27 1.81-0.75 0.83-1.63 1.37-2.73 1.56z"/>
	<path class="s17" d="m141.71 276.12c0.71 0.24 1.07 0.58 1.44 1.18-0.59-0.19-1.18-0.63-1.44-1.18z"/>
	<path class="s18" d="m502.73 183.09c-17.96 6.87-34.95-3.15-35.65-20.66-0.47-11.98 7.38-22.13 19.07-24.64 11.91-2.56 23.42 3.19 27.93 13.96 4.74 11.3 0.96 23.55-9.29 30.15-0.56 0.36-1.14 0.69-2.06 1.19z"/>
	<path class="s3" d="m80.94 123.53c-0.8 0.48-1.54 0.6-2.7 0.18 0.98-4.93 2.37-9.3 3.77-13.68 3.03-1.02 3.25 1.1 2.72 2.93-1 3.47-2.46 6.81-3.79 10.57z"/>
	<path class="s19" d="m81.97 109.67c-1.36 4.74-2.75 9.11-4.09 13.92-0.18 0.45-0.42 0.46-1 0.46-0.82-1.19-1.27-2.38-2.01-3.47-0.4-0.03-0.51-0.16-0.68-0.82 1.29-4.64 2.65-8.73 4-12.83 0.35 0 0.71 0.01 1.37 0.39 0.96 0.68 1.61 0.99 2.26 1.3 0.04 0.23 0.08 0.46 0.15 1.05z"/>
	<path class="s16" d="m81.96 108.31c-0.79 0-1.44-0.31-2.13-0.97 1.68-3.88 3.4-7.4 5.13-10.91q1.09 0.53 2.18 1.06c-1.68 3.51-3.36 7.01-5.18 10.82z"/>
	<path class="s15" d="m77.82 107.02c-0.98 4.01-2.34 8.1-3.79 12.54-0.74-0.4-1.38-1.13-1.98-2.19 2.91-3.06 0.79-8.48 5.77-10.35z"/>
	<path class="s8" d="m100.21 239.99c-0.88-0.26-1.42-0.57-2.19-0.89-1.84-2.8-3.46-5.58-5.11-8.74 1.32-0.46 2.67-0.56 4.27-0.67-0.84-1.51-2.1-3.07-2.58-4.83-0.51-1.91-0.3-4.01-0.4-6.02 1.79 0.32 3.59 0.64 5.58 0.57 0.2-0.39 0.23-0.49-0.13-0.14 0.56 0.8 1.5 1.25 2.39 1.73-0.05 0.01-0.09-0.07-0.09-0.07 0.78 2.24 1.61 4.46 2.31 6.72 0.71 2.26 1.6 4.71-2.82 4.76-1.47-0.65-2.34-1.06-3.22-1.46q-0.23 0.42-0.45 0.84 1.2 0.91 2.4 1.83c0.94 1.56 1.87 3.11 2.85 5.01-0.8 0.67-1.64 0.99-2.81 1.36z"/>
	<path class="s14" d="m93.01 193.99c0.68 3.22 1.71 6.44 1.97 9.73 0.3 3.86-1.52 5.43-5.68 2.82-1.17-1.51-1.97-2.53-2.91-3.93-0.23-0.71-0.39-1.03-0.39-1.36q-0.03-4.3-0.02-8.6 3.37 0.87 6.76 1.71c0.08 0.02 0.22-0.23 0.34-0.35 0 0-0.07 0.02-0.07-0.02z"/>
	<path class="s10" d="m105.59 210.01c0.79 1.53 1.26 2.88 1.75 4.6-0.5 3.14 0.52 7.08-4.98 6.35-0.41-0.03-0.37 0.05-0.43-0.25-0.67-0.8-1.29-1.29-1.92-1.79 0 0-0.03 0.1 0.02 0.13-0.94-1.83-2.3-3.58-2.81-5.55-0.5-1.91-0.13-4.05-0.14-6.09 2.29 0.32 4.59 0.56 6.85 1.01 0.52 0.11 0.9 0.92 1.66 1.59z"/>
	<path class="s11" d="m86.54 203c0.79 1.01 1.59 2.03 2.42 3.33 0.85 3.13 1.62 5.98 2.49 8.8 1.03 3.38-0.04 5.04-4.06 4.44-0.96-1.41-1.54-2.49-2.12-3.58-1.02-3.31-2.04-6.63-2.75-10.41 1.55-1.17 2.79-1.87 4.02-2.58z"/>
	<path class="s5" d="m85.1 216.29c0.75 0.79 1.33 1.87 1.9 3.31 1.36 3.12 2.73 5.89 4.19 9.02-0.44 0.7-0.97 1.03-1.84 1.36-1.03-0.97-1.71-1.94-2.65-2.9-1.89-3.42-3.53-6.85-5.53-11.06 2.05 0.32 2.91 0.44 3.93 0.27z"/>
	<path class="s0" d="m123.93 258.72c-0.42 1.37-1.04 2.47-1.51 3.9-0.94 0.04-2.03-0.25-2.99-1.1-1.5-2.99-3.12-5.43-4.28-8.17 5.56-0.28 2.38-2.98 1.94-4.79-0.37-1.51-0.72-3.03-0.7-4.39 3.76 0.09 4.08-1.89 3.14-4.46-0.73-2-1.68-3.92-2.53-5.88 2.11-0.65 4.22-1.3 6.7-1.65 1.76 3.24 3.14 6.2 4.71 9.48-9.03 1.17-9.03 1.17-3.42 10.05-1.47 0.21-2.8 0.4-5.42 0.77 1.72 2.47 2.94 4.22 4.36 6.24z"/>
	<path class="s0" d="m129.54 243.42c0.64-0.37 1.39-0.23 2.35 0.24-0.61 0.31-1.42 0.29-2.35-0.24z"/>
	<path class="s12" d="m116.96 233.56c0.89 2.23 1.84 4.15 2.57 6.15 0.94 2.57 0.62 4.55-3.34 4.2-2.04-0.89-3.49-1.37-5.05-2.15-0.46-0.48-0.82-0.66-1.18-0.81-0.01 0.03 0.06 0.03 0.06 0.03-0.99-1.68-2.21-3.27-2.89-5.06-0.53-1.41-1.05-3.87-0.39-4.43 1.07-0.89 3.13-0.58 5.06-1.13 0.28-0.35 0.21-0.37-0.06-0.17 0.17 0.71 0.62 1.22 1.08 1.72 1.37 0.46 2.74 0.92 4.14 1.65z"/>
	<path class="s3" d="m111.24 242.05c1.46 0.49 2.91 0.97 4.57 1.71 0.56 1.77 0.91 3.29 1.28 4.8 0.44 1.81 3.62 4.51-1.82 4.33-1.29-0.76-2.25-1.36-3.66-2.17-0.86-0.4-1.26-0.6-1.66-0.8 0 0-0.02 0.09 0.01 0.12-1.01-1.63-2.18-3.23-3.1-4.95-1.61-3-1.12-4.54 2.91-3.77 0.25-0.34 0.18-0.34 0.06 0.01 0.39 0.48 0.9 0.6 1.41 0.72z"/>
	<path class="s18" d="m119.11 219.74q-0.74 0.29-1.27-0.46 0.74-0.29 1.27 0.46z"/>
	<path class="s0" d="m120.23 220.7c-0.58 0.22-0.97 0.07-1.33-0.43 0.52-0.21 1.02-0.07 1.33 0.43z"/>
	<path class="s13" d="m112.87 231.6c-0.51-0.19-0.96-0.7-1.15-1.44 0.58 0.22 0.89 0.67 1.15 1.44z"/>
	<path class="s0" d="m99.54 70.57c-0.06 0.04 0.07-0.04 0 0z"/>
	<path class="s9" d="m86.39 202.61c-1.08 1.1-2.32 1.8-3.92 2.6-0.6-0.26-0.84-0.61-1.35-1.11-0.95-3.52-1.62-6.88-2.06-10.64 0.46-0.41 0.66-0.43 1.3-0.32 1.55-1.08 3.59-2.25 3.61-3.46 0.06-3.23-0.76-6.48-1.25-9.81 0.67 0.04 1.47 0.09 2.46 0.4 1.36-0.24 2.54-0.76 3.99-1.58 0.1-4.1-0.07-7.88-0.23-11.67 0.24-0.03 0.48-0.06 1.08-0.14 3.29 2.1 5.38 0.12 7.77-1.18-0.88 4.84-2.16 9.34 1.19 13.93-2.53 1.27-5.53-3.5-7.81 0.68-2.28 4.18-1.19 8.28 1.3 12.09 0.18 0.27 0.28 0.59 0.52 1.25-0.03 0.48-0.17 0.73-0.25 0.71q-3.39-0.84-6.76-1.71-0.01 4.3 0.02 8.6c0 0.33 0.16 0.65 0.39 1.36z"/>
	<path class="s0" d="m140.64 261.31c0.34-0.41 0.9-0.48 1.99-0.45-0.23 0.33-1 0.56-1.99 0.45z"/>
	<path class="s17" d="m146 276q-0.53 0.37-1.08 0.71c0 0-0.16-0.24-0.25-0.37 0.28-0.12 0.56-0.23 1.09-0.35 0.24 0.01 0.24 0.01 0.24 0.01z"/>
	<path class="s17" d="m146 276c0.09-0.03 0.18-0.07 0.13-0.05-0.13 0.05-0.13 0.05-0.13 0.05z"/>
	<path class="s10" d="m82.03 153.68c0.06 4.3 1.62 8.72-3.39 11.95-1.07 0.05-1.53-0.28-2-0.58-0.01 0.02-0.07-0.05-0.32-0.34-0.62-0.79-0.98-1.29-1.36-1.75-0.01 0.05 0.08 0.08 0.24-0.34 0.73-4.48 1.3-8.54 1.86-12.6 1.6 1.11 3.2 2.22 4.97 3.66z"/>
	<path class="s11" d="m71.94 149.64c0 0 0.04-0.39-0.04-1.02 0.33-4.63 0.75-8.62 1.16-12.62 0 0-0.07-0.01 0.25 0.14 0.48-0.3 0.62-0.73 0.76-1.17 0 0-0.08-0.04-0.11 0 1.23 1.1 3.57 2.16 3.57 3.23 0 3.33-0.87 6.66-1.82 10.51-1.53 0.65-2.65 0.79-3.77 0.93z"/>
	<path class="s13" d="m71.81 150.09c1.25-0.59 2.37-0.73 3.83-0.99 0.55 0.14 0.75 0.42 1.19 0.81-0.33 4.17-0.9 8.23-2 12.73-1.65 0.06-2.76-0.32-3.88-0.7 0 0 0.01 0.07 0.04 0.1 0.24-3.81 0.46-7.66 0.82-11.95z"/>
	<path class="s13" d="m74.16 189.72c-0.53 0.24-0.76 0.21-1.34 0.18-0.75-3.38-1.14-6.76-1.53-10.52 0.46-0.52 0.92-0.67 1.86-0.98 1.23-0.59 1.97-1.01 3.08-1.4 0.6 0.08 0.84 0.13 0.97 0.56-0.13 4.06-0.16 7.75-0.16 11.43 0.02-0.01 0.07-0.03 0.07-0.03-0.89 0.17-1.78 0.33-2.95 0.76z"/>
	<path class="s13" d="m79.93 193.02c-0.21 0.01-0.41 0.03-0.93 0.05-0.64-0.52-0.97-1.06-1.14-1.84 0.16-0.25 0.1-0.19 0.39-0.13 0.75 0.68 1.21 1.3 1.68 1.92z"/>
	<path class="s13" d="m78.05 190.95c-0.54-0.51-1.11-1-1.31-1.74 0.37-0.25 0.32-0.23 0.56-0.07 0.38 0.73 0.52 1.32 0.66 1.9 0 0 0.06-0.06 0.09-0.09z"/>
	<path class="s20" d="m78.01 204.54c-0.14 0.32-0.3 0.38-0.71 0.5-0.12-0.41 0.02-0.86 0.17-1.32 0.17 0.19 0.34 0.38 0.54 0.82z"/>
	<path class="s19" d="m72.72 135.86c-0.07 4.14-0.49 8.13-0.84 12.56-1.05-0.38-2.17-1.19-3.61-2.19-0.3-0.36-0.27-0.54-0.25-0.97 0.6-2.92 1.09-5.63 1.94-8.22 0.2-0.64 1.58-0.89 2.76-1.18z"/>
	<path class="s19" d="m67.38 146.83c-0.22-0.29-0.02-0.51 0.46-0.78 0.08 0.17-0.04 0.46-0.46 0.78z"/>
	<path class="s14" d="m78.25 191.1c-0.43-0.64-0.57-1.23-0.98-1.96-0.23-3.83-0.2-7.52 0.31-11.63 1.73-0.16 2.97 0.1 3.7 0.26 0-3.69 0-7.01 0-10.33 2.04-3.59 4.31-4.48 7.32-0.52 0.5 3.89 0.67 7.67 0.21 11.77-1.69 0.65-2.75 0.98-3.81 1.32-0.81-0.05-1.61-0.1-2.28-0.14 0.49 3.33 1.31 6.58 1.25 9.81-0.02 1.21-2.06 2.38-3.61 3.46-0.9-0.74-1.36-1.36-2.11-2.04z"/>
	<path class="s18" d="m81.07 167.14c0.21 3.62 0.21 6.94 0.21 10.63-0.73-0.16-1.97-0.42-3.59-0.64-0.62 0-0.86-0.05-1.42-0.59-0.08-4.17 0.15-7.84 0.38-11.51 0.46 0.32 0.92 0.65 1.83 0.95 1.09 0.28 1.73 0.57 2.59 1.16z"/>
	<path class="s19" d="m73.73 134.9q0.3 0.77-0.42 1.27-0.3-0.77 0.42-1.27z"/>
	<path class="s13" d="m110.02 250.3c0.33-0.18 0.73 0.02 1.35 0.48-0.29 0.14-0.79 0.02-1.35-0.48z"/>
	<path class="s19" d="m70.98 189.77q-0.25 0.21-0.8-0.3 0.39-0.55 0.8 0.3z"/>
	<path class="s5" d="m76.64 165.05c-0.22 3.65-0.45 7.32-0.73 11.46-0.79 0.88-1.53 1.3-2.61 1.69-3.5-4.84-3.52-10.07-2.35-15.86 1.12-0.02 2.23 0.36 3.71 0.72 0.38-0.02 0.29-0.05 0.23 0.38 0.52 0.81 1.1 1.19 1.68 1.56 0 0 0.06 0.07 0.07 0.05z"/>
	<path class="s3" d="m95.91 241.11c0 0.01 0.1-0.04 0.05 0-0.13 0.08 0.05-0.06-0.05 0z"/>
	<path class="s13" d="m100.47 233.39c-1.1-0.38-1.9-0.99-2.7-1.6q0.22-0.42 0.45-0.84c0.88 0.4 1.75 0.81 2.87 1.46 0.05 0.41-0.13 0.58-0.62 0.98z"/>
	<path class="s13" d="m99.65 219.27c0.99 0.15 1.61 0.64 2.33 1.42-0.83-0.17-1.77-0.62-2.33-1.42z"/>
	<path class="s13" d="m111.14 241.76c-0.41 0.17-0.92 0.05-1.3-0.46 0.48-0.2 0.84-0.02 1.3 0.46z"/>
	<path class="s12" d="m85.18 180.27c0.88-0.6 1.94-0.93 3.36-1.27-0.82 0.51-2 1.03-3.36 1.27z"/>
	<path class="s13" d="m76.32 164.71c-0.33-0.08-0.91-0.46-1.42-1.31 0.44 0.02 0.8 0.52 1.42 1.31z"/>
</svg>