<svg id="Layer_1" data-name="Layer 1" xmlns="http://www.w3.org/2000/svg" viewBox="0 0 554.54 120.66"><defs><style>.cls-1{fill:#e9e9e9;}.cls-2{fill:#e7e7e7;}.cls-3{fill:#e5e5e5;}.cls-4{fill:#e6e6e6;}.cls-5{fill:#f1f1f1;}.cls-6{fill:#e0e0e0;}.cls-7{fill:#f6f6f6;}.cls-8{fill:#ebebeb;}.cls-9{fill:#f0f0f0;}.cls-10{fill:#eee;}.cls-11{fill:#d6d6d6;}.cls-12{fill:#ddd;}.cls-13{fill:#b9b9b9;}.cls-14{fill:#d0d0d0;}</style></defs><title>file1</title><path class="cls-1" d="M518,201.79v20.9c-1.57.68-2.3.43-2.29-1.34,0-9.33,0-18.66,0-28.91,1.38.94,2.47,1.37,3.1,2.16,5.81,7.3,11.54,14.67,17.29,22,.37.47.77.92,1.62,1.93V193.25l2.36-.21v30.64A18.2,18.2,0,0,1,537,221.3c-5.48-6.88-10.87-13.82-16.3-20.73a6,6,0,0,0-2.49-2C518.13,199.53,518.05,200.52,518,201.79Z" transform="translate(-103.81 -155.71)"/><path class="cls-2" d="M351.22,212.65c-3.12,8.27-11.09,12.32-19.32,10-8-2.23-12.41-9.57-10.79-17.86s9.93-13.56,18.79-11.7a15.07,15.07,0,0,1,11.65,18.28c-.08.36-.19.7-.33,1.26m-8.66,7.09.93-.56a13.22,13.22,0,0,0-10.15-24A13,13,0,0,0,323,208.57C323.34,218.1,332.59,223.56,342.56,219.74Z" transform="translate(-103.81 -155.71)"/><path class="cls-2" d="M623.48,197.56a14.73,14.73,0,0,1,3.22,15.81c-2.08,5.9-6.8,8.93-12.79,9.51-4.57.44-9.21.08-14.15.08,0-4.7,0-9.3,0-13.9,0-.39.71-.77,1.09-1.15.38.46,1.07.92,1.09,1.4.1,2.81,0,5.63.06,8.44v2.92c4.48,0,8.77.43,12.94-.1,6.49-.84,10.45-6.15,10.34-12.91-.11-6.47-4.36-11.6-10.76-12.33-4.22-.47-8.51-.23-12.77-.4a7.52,7.52,0,0,1-2.24-.85l.3-1.31c5.47.27,11,.18,16.39,1C618.74,194.08,621,196.13,623.48,197.56Z" transform="translate(-103.81 -155.71)"/><path class="cls-3" d="M554,221.32c-1.14-1-3.5-1.19-2-3.73A15.17,15.17,0,0,0,564.81,221c3.34-.52,5.36-2.31,5.63-5,.29-2.82-1.17-4.73-4.61-5.8-2.77-.86-5.6-1.52-8.35-2.39-3.76-1.19-5.56-3.44-5.63-6.79-.07-3.52,1.9-6.18,5.61-7.44a15.79,15.79,0,0,1,12.63,1.13c.55.27.74,1.28,1,1.77-3.67-.61-6.81-1.44-10-1.52a9,9,0,0,0-5.18,1.89,4.9,4.9,0,0,0,.82,8.2,26.13,26.13,0,0,0,4.55,1.71c1.64.51,3.34.84,5,1.35,4.55,1.4,6.75,4,6.53,7.54-.24,3.8-3.34,6.8-7.82,7.41A17.45,17.45,0,0,1,554,221.32Z" transform="translate(-103.81 -155.71)"/><path class="cls-4" d="M435.13,206.31c2.65.77,5.14,1.31,7.52,2.14,3.62,1.27,5.35,3.58,5.37,6.73a7.2,7.2,0,0,1-5.27,7.15,16.3,16.3,0,0,1-15-2,3.1,3.1,0,0,1-.83-2.43A17.56,17.56,0,0,0,439.68,221c3.66-.52,5.79-2.33,6.06-5.18s-1.4-4.69-5-5.78c-2.69-.81-5.42-1.46-8.09-2.32-3.64-1.19-5.54-3.62-5.56-6.87a7.66,7.66,0,0,1,5.53-7.26,15.93,15.93,0,0,1,12.88,1.12c.55.28.77,1.18,1.21,1.89a98.21,98.21,0,0,0-10-1.72,8.53,8.53,0,0,0-4.82,1.42c-3.66,2.34-3.29,7,.57,8.95C433.2,205.67,434.09,205.91,435.13,206.31Z" transform="translate(-103.81 -155.71)"/><path class="cls-2" d="M461.83,205.18c2.95.94,5.7,1.83,8.48,2.62,5.22,1.47,7.63,4.09,7.31,8s-3.76,6.85-8.8,7.3a16.3,16.3,0,0,1-11.36-2.72,3.16,3.16,0,0,1-.87-2.48,17.19,17.19,0,0,0,13.33,3c3.18-.54,5.3-2.55,5.48-5.15s-1.37-4.55-4.62-5.56c-2.84-.9-5.76-1.57-8.6-2.49-3.65-1.18-5.31-3.33-5.38-6.65a7.18,7.18,0,0,1,5.22-7.42,16,16,0,0,1,13.13,1.12c.52.27.68,1.23.91,1.66-3.79-.59-7.12-1.48-10.44-1.46a8.91,8.91,0,0,0-5.42,2.53C457.92,199.67,458.72,202.83,461.83,205.18Z" transform="translate(-103.81 -155.71)"/><path class="cls-2" d="M294.07,193c2.63,0,5,0,7.35.05,5.64.24,9.51,3.17,10.45,7.81,1.05,5.22-.93,8.92-6.57,11.77l6.92,9.92-.41.66a22.8,22.8,0,0,1-2.55-1.33,4.63,4.63,0,0,1-1-1.31c-5.75-8.24-6.31-8.48-16.8-7.12v9.16l-.6.58c-.56-.49-1.58-1-1.6-1.49-.14-3.42-.07-6.85-.07-10.64,4.32,0,8.38.12,12.43,0,3.46-.14,6.41-1.35,7.64-5,1.79-5.29-1.05-10.13-6.61-10.74-3.77-.41-7.61-.19-11.41-.36a7.85,7.85,0,0,1-2.26-.83l.27-1.09Z" transform="translate(-103.81 -155.71)"/><path class="cls-2" d="M385.79,197.48a7.19,7.19,0,0,1-2.84-.65,14.1,14.1,0,0,0-15.84.91,13.45,13.45,0,0,0-4,14.81c2.69,8,12.8,11.17,20.05,6.36,1-.67,2-1.92,2.9.11-3.77,4.07-10.54,5.45-16.11,3.29a14.68,14.68,0,0,1-9.86-14.24c0-5.82,2.39-10.47,7.54-13.27a15.92,15.92,0,0,1,16.34.27A5.94,5.94,0,0,1,385.79,197.48Z" transform="translate(-103.81 -155.71)"/><path class="cls-4" d="M273,211.92c-5.08.69-10,1.26-15,1.84-.25,2.89-.52,6.05-.86,9.21,0,0-.83,0-1.46,0V211.06c4,0,8,.12,12,0,5.51-.2,8.49-3.25,8.35-8.27-.12-4.13-2.7-7-7.14-7.48-3.78-.36-7.61-.18-11.41-.35a5.65,5.65,0,0,1-1.93-.85c.65-.36,1.31-1,2-1a115,115,0,0,1,12.74.48,8.59,8.59,0,0,1,7.88,7.51C279.06,205.88,277.47,209.19,273,211.92Z" transform="translate(-103.81 -155.71)"/><path class="cls-5" d="M141.08,245.88a8.52,8.52,0,0,1-1.5-2.39,6.23,6.23,0,0,1,0-3.75c.32-.65,2-.71,3.06-.92a7.5,7.5,0,0,1,1.82.25c-1.18-2.66-3.42-5-.64-7.5,1.55-1.37,3.28-.78,4.71.37,1.65,1.32,2.69,3.05,2,5.23-1,3.12-3.57,2.18-6.17,1.66,1.27,2.46,4,4.48,1.55,6.88-.75.74-2.91,0-4.63.08C141,245.86,141.08,245.88,141.08,245.88Z" transform="translate(-103.81 -155.71)"/><path class="cls-6" d="M499.53,216.49c0-7.87,0-15.48,0-23.2,1.22-.35,2.34-.9,2.34,1.19,0,9.41,0,18.82,0,28.23-1.59.67-2.39.42-2.34-1.33C499.56,219.84,499.52,218.3,499.53,216.49Z" transform="translate(-103.81 -155.71)"/><path class="cls-3" d="M586,216a50.51,50.51,0,0,1-.07,5.42c-.07.68-.83,1.29-1.27,1.93l-1-.41v-4.23c0-7.87,0-15.74,0-23.61,0-1.56.22-2.54,2.32-1.75Z" transform="translate(-103.81 -155.71)"/><path class="cls-7" d="M139.2,220.63c.18-3.42,1.17-4.75,3.36-4.76s4.07,1.93,4.36,4.4-.86,4.18-2.83,4.53C141.8,225.22,140.17,223.88,139.2,220.63Z" transform="translate(-103.81 -155.71)"/><path class="cls-8" d="M140.37,253a4.51,4.51,0,0,0,.13,1.23c.44,1.12.95,2.22,1.43,3.32l-3.15,1.26c.64.77,1.53,1.74,2.26,2.8.11.16-.49.81-1.15,1.19A27.6,27.6,0,0,1,136,261l-2.38-3.4,3-.42c-3.06-4.84-3.06-4.84,2-5.27a1.7,1.7,0,0,1,.42.75,2.87,2.87,0,0,0,1.36.33S140.37,253,140.37,253Z" transform="translate(-103.81 -155.71)"/><path class="cls-7" d="M139.27,212.93a10.63,10.63,0,0,1-.57,3.34c-1.08,2.22-3.38,2.53-5.13.79a5.27,5.27,0,0,1-1-6.25,3,3,0,0,1,5-.83A11.59,11.59,0,0,1,139.27,212.93Z" transform="translate(-103.81 -155.71)"/><path class="cls-7" d="M137.23,232.5c-2.41-2.05-3.31-4.48-2.22-6.55.37-.73,1.36-1.81,1.8-1.7,1.54.41,3.57.89,4.27,2a7.24,7.24,0,0,1,.6,5.24c-.53,1.8-2.48,1.75-4.36,1C137.12,232.5,137.23,232.5,137.23,232.5Z" transform="translate(-103.81 -155.71)"/><path class="cls-9" d="M128.81,225.27c-.5-1.6-1.33-3.19-1.37-4.8a3.55,3.55,0,0,1,1.86-2.83,4.32,4.32,0,0,1,3.49,1.11,6.77,6.77,0,0,1,1.52,3.62c.44,2.69-1.91,5.43-5.11,3.21A4.92,4.92,0,0,0,128.81,225.27Z" transform="translate(-103.81 -155.71)"/><path class="cls-5" d="M150.6,230.86A6.51,6.51,0,0,1,149,230c-1.7-1.56-2.35-4.52-.91-5.8a5.38,5.38,0,0,1,4-1c2,.39,3.27,3.12,2.75,5.23S152.88,231.26,150.6,230.86Z" transform="translate(-103.81 -155.71)"/><path class="cls-5" d="M126.8,203.14c1.82-1.13,3.58-1.84,5,.54,1.36,2.19.93,5.57-.92,6.87-1.5,1.06-2.78.59-3.76-.71-1.52-2-1.34-4.19-.37-6.58C126.76,203,126.8,203.14,126.8,203.14Z" transform="translate(-103.81 -155.71)"/><path class="cls-9" d="M148.82,208.05a6.43,6.43,0,0,1,1.54.93c1.55,1.71,2.09,3.82.57,5.58a4.67,4.67,0,0,1-3.92,1.19c-2-.51-2.77-2.47-2.45-4.52C144.91,209,146.13,207.63,148.82,208.05Z" transform="translate(-103.81 -155.71)"/><path class="cls-9" d="M137.07,232.76c.16-.26.05-.26.06-.28-.13.34-.49.8-.38,1.07a29,29,0,0,1,1.37,2.57c1,3.1-.7,4.73-4.07,4.14-.15.2-.13.25,0,.05a.93.93,0,0,0-.68-.4s0,.06.07-.12a1.22,1.22,0,0,0-.61-.44s0,.06,0-.14a6.39,6.39,0,0,1-1.54-6.32C133.22,230.87,135.05,232.65,137.07,232.76Z" transform="translate(-103.81 -155.71)"/><path class="cls-10" d="M128.55,225.46c.29-.19.35-.11.43,0a19.09,19.09,0,0,1,.55,2,37.13,37.13,0,0,1,.44,5.21,13.06,13.06,0,0,1-2.83,1c-3.77-2.87-4.48-5.91-1.91-8.81C126.32,225.06,127.3,225.36,128.55,225.46Z" transform="translate(-103.81 -155.71)"/><path class="cls-5" d="M137.79,203.55c1.32-.86,2.68-2.18,3.79-2s2.34,1.89,2.47,3a6.13,6.13,0,0,1-1.37,4.3c-1.48,1.62-4.26.57-4.88-1.7A13.06,13.06,0,0,1,137.79,203.55Z" transform="translate(-103.81 -155.71)"/><path class="cls-5" d="M159.84,218.66c-.9,3.19-2.33,4.19-4.57,3.4a3.9,3.9,0,0,1-2.29-5.47c.51-.9,1.69-2,2.56-2a6.42,6.42,0,0,1,3.44,1.63C159.52,216.66,159.57,217.7,159.84,218.66Z" transform="translate(-103.81 -155.71)"/><path class="cls-5" d="M129.58,245.38a45.16,45.16,0,0,1-1-5.89,21.2,21.2,0,0,1,4.26-.08s0,0-.11.14a1.09,1.09,0,0,0,.65.42s0-.05-.07.12a1.08,1.08,0,0,0,.6.42.27.27,0,0,0,0-.07,61.81,61.81,0,0,0,1.93,6.16c.25.09.3.12.1,0-1.35.19-2.5.55-3.67.75-.76-.39-1.51-.64-2.23-1.07a3.3,3.3,0,0,0-.47-.89A.08.08,0,0,0,129.58,245.38Z" transform="translate(-103.81 -155.71)"/><path class="cls-5" d="M156.29,233.65c.57-1.49.88-3.33,1.89-3.88s2.86,0,3.93.69a3.61,3.61,0,0,1,.59,5.27,3.65,3.65,0,0,1-5.33-.3A7.81,7.81,0,0,1,156.29,233.65Z" transform="translate(-103.81 -155.71)"/><path class="cls-5" d="M155,244.35a5.05,5.05,0,0,1-1.39-.63c-1.43-1.18-2.84-2.61-1.71-4.51a4.15,4.15,0,0,1,3.12-1.85,4.06,4.06,0,0,1,4,3.66C159.36,243.4,158.21,244.38,155,244.35Z" transform="translate(-103.81 -155.71)"/><path class="cls-8" d="M126.54,203c.26.18.22.08.24.08-1.5-.17-3.18,2.08-4.56-.27-1.47-2.51-.89-4.86.46-7.28-.17-.16-.19-.12-.19-.12,3.78-.75,5.48,1.15,4.59,5.15A10.81,10.81,0,0,0,126.54,203Z" transform="translate(-103.81 -155.71)"/><path class="cls-7" d="M135,194.62a4.53,4.53,0,0,1,1.47,7.5c-1.59,1.47-3.66,1-4.59-1.11C130.69,198.4,132,195.63,135,194.62Z" transform="translate(-103.81 -155.71)"/><path class="cls-7" d="M121.91,210.55c1.85-.71,3.64-.86,4.69,1.2,1.2,2.35,1.6,4.74-.9,6.92-1.34-.18-2.29-.37-3.24-.55,0,0,0,0,0-.18-1.83-2.5-1.13-5-.54-7.41C121.9,210.52,121.91,210.55,121.91,210.55Z" transform="translate(-103.81 -155.71)"/><path class="cls-5" d="M165,228.18c-2.86-.9-4.22-2.63-3.65-4.61.49-1.68,1.52-2.93,3.49-2.73a3.62,3.62,0,0,1,3.51,3.47C168.53,226.5,167.52,227.94,165,228.18Z" transform="translate(-103.81 -155.71)"/><path class="cls-11" d="M649.19,208.8c-3.17,0-6.07,0-9,0-.53,0-1-.62-1.56-.95.49-.35,1-1,1.46-1,5.87-.07,11.74,0,17.62,0l.51.71c-.58.45-1.14,1.25-1.75,1.29C654.17,208.89,651.81,208.8,649.19,208.8Z" transform="translate(-103.81 -155.71)"/><path class="cls-6" d="M143.81,268.76c.27-.81.53-1.63.92-2.81l-1.8-3.09c.56-.18,1.11-.35,1.86-.56.19,0,.23-.06.35.13a3.11,3.11,0,0,0,1.41-.22s.21.06.21.06c.24.49.35,1.18.75,1.44a28.69,28.69,0,0,0,3.12,1.61l-1,1.22-2.05,1.24a8.16,8.16,0,0,1,1.91,1.61c.29.44.06,1.21.06,2.09a4.83,4.83,0,0,1,1.16.88,4.32,4.32,0,0,1-1.48.22,10.44,10.44,0,0,1-2.67-1.25,2.69,2.69,0,0,0-.67-.89,9.6,9.6,0,0,0-2-1.85c-.13.22-.12.17-.12.17m4,1.66-.45.2.13.2c.2-.12.4-.26.73-.44A1.2,1.2,0,0,1,147.79,270.42Z" transform="translate(-103.81 -155.71)"/><path class="cls-12" d="M647.55,220.92c3.18,0,6.09-.07,9,.05.62,0,1.21.73,1.81,1.12-.13.27-.27.53-.4.79H639l-.54-.49c.57-.49,1.11-1.36,1.71-1.4C642.56,220.82,644.92,220.92,647.55,220.92Z" transform="translate(-103.81 -155.71)"/><path class="cls-10" d="M158.24,208.68c.71-2.29,2.19-3.15,4.21-2.43a3.43,3.43,0,0,1,2.26,4.35c-.42,1.77-1.65,2.92-3.54,2.6C158.85,212.8,157.91,211.19,158.24,208.68Z" transform="translate(-103.81 -155.71)"/><path class="cls-10" d="M151.7,251.37a7.52,7.52,0,0,1-1.88-.86c-1.47-1.18-2.94-2.8-1.58-4.52.69-.87,2.91-1.08,4.24-.76,2,.49,3.45,3.3,2.51,4.68C154.43,250.73,153,250.92,151.7,251.37Z" transform="translate(-103.81 -155.71)"/><path class="cls-11" d="M408.42,208.8c-3.34,0-6.41.06-9.48,0-.6,0-1.19-.66-1.79-1,.61-.34,1.2-1,1.81-1,5.32-.08,10.65-.07,16,0,.55,0,1.1.57,1.64.87-.55.39-1.08,1.07-1.66,1.11C412.86,208.89,410.77,208.8,408.42,208.8Z" transform="translate(-103.81 -155.71)"/><path class="cls-12" d="M413.24,223.06c-4.88,0-9.5.05-14.12-.05-.66,0-1.31-.7-2-1.08.62-.34,1.23-1,1.85-1,5.25-.07,10.51-.08,15.76,0,.69,0,1.36.73,2,1.13l-.38,1Z" transform="translate(-103.81 -155.71)"/><path class="cls-7" d="M400.89,193H416.3l.43.78c-.57.38-1.13,1.08-1.71,1.09-5.41.08-10.84.08-16.26,0-.6,0-1.19-.62-1.78-.95l.28-.92Z" transform="translate(-103.81 -155.71)"/><path class="cls-9" d="M155.68,200.78a5.72,5.72,0,0,1,.71,1.07c.77,2,.63,4-1.42,4.84-1,.44-3.39.08-3.69-.58a6.54,6.54,0,0,1-.31-4.88C151.82,199.4,153.79,199.22,155.68,200.78Z" transform="translate(-103.81 -155.71)"/><path class="cls-8" d="M149.46,196.59c.12,2.22-.64,3.9-2.65,4.33-.87.18-2.62-.53-2.86-1.21a7.59,7.59,0,0,1-.06-4.5c.23-.77,2-1.77,2.68-1.52C147.7,194.12,148.5,195.44,149.46,196.59Z" transform="translate(-103.81 -155.71)"/><path class="cls-10" d="M118.76,202.41c3,.45,3.14,2.77,3.18,5,0,1-.32,1.93-.26,3,.23.1.22.07.1-.11-1.28.72-2.42,1.8-4.09.43C115.83,207,116.13,204.75,118.76,202.41Z" transform="translate(-103.81 -155.71)"/><path class="cls-5" d="M123.44,224.42c-.9,1.89-2.15,2.39-4,1.38-.19,0-.16,0-.21-.22a2.94,2.94,0,0,0-.28-.69c-1.36-2.07-2-4.3-.7-6.58s2.87.32,4.3-.17a1.11,1.11,0,0,0-.25.08,4.53,4.53,0,0,0,.61,1.59C123.06,221.27,123.25,222.73,123.44,224.42Z" transform="translate(-103.81 -155.71)"/><path class="cls-10" d="M127,193.79a18.94,18.94,0,0,1,1.23-4.72c.33-.65,2.14-1.33,2.38-1.09.85.84,2,2.2,1.79,3.14a8.29,8.29,0,0,1-2.43,4.61C128.77,196.73,127.53,195.49,127,193.79Z" transform="translate(-103.81 -155.71)"/><path class="cls-7" d="M136.11,246.72s-.05,0-.07,0a39.09,39.09,0,0,0,4.91-.63c.13-.2.09-.22.08-.24-.09.3-.35.75-.23.9.41.54,1.09.9,1.43,1.47.58,1,1.53,2.2,1.31,3.07s-1.76,1.18-2.95,1.72c-.22,0-.17,0-.25-.17a4,4,0,0,0-1.31-.42,5.62,5.62,0,0,0-.46-.66C137.62,249.94,136.87,248.33,136.11,246.72Z" transform="translate(-103.81 -155.71)"/><path class="cls-5" d="M165.85,240.12c.17-1.53.09-3.19.87-4.18.48-.6,2.53-.63,3.39-.1A4.79,4.79,0,0,1,172,239c.1.75-1,2.36-1.62,2.36A13.82,13.82,0,0,1,165.85,240.12Z" transform="translate(-103.81 -155.71)"/><path class="cls-9" d="M170.72,218.93c-3-.48-4.65-2.19-3.8-4.06a4.7,4.7,0,0,1,3.12-2.56c1-.08,2.55,1.3,3,2.38C173.78,216.51,173.1,218.23,170.72,218.93Z" transform="translate(-103.81 -155.71)"/><path class="cls-10" d="M147,257.34a11.47,11.47,0,0,1-1.26-2.22c-.28-1-.71-2.33-.28-2.94s1.88-.71,2.88-.7a2.51,2.51,0,0,1,1.86,1,34.8,34.8,0,0,1,1.89,4.11c-1.38.16-2.75.34-4.13.48-.25,0-.51-.13-.88,0C147,257.3,147,257.34,147,257.34Z" transform="translate(-103.81 -155.71)"/><path class="cls-9" d="M177,229.79c.06,2.36-1,3.91-3.14,3.54a5,5,0,0,1-3.2-2.87c-.27-.78,1-2.71,2-3.19C174.72,226.28,176.19,227.54,177,229.79Z" transform="translate(-103.81 -155.71)"/><path class="cls-10" d="M141.09,194.39c-2.66.85-3.45-.81-3.83-2.68s1.47-4.81,3-4.48c1.1.24,2.71,1.65,2.73,2.57C143,191.28,141.89,192.79,141.09,194.39Z" transform="translate(-103.81 -155.71)"/><path class="cls-9" d="M161.09,244.33c.51-.49.91-1,1.39-1.08,1.91-.41,3.77-.16,4.59,1.82.38.9.3,2.88-.17,3.1a6.09,6.09,0,0,1-4.16.49C161.08,248.07,160.06,246.54,161.09,244.33Z" transform="translate(-103.81 -155.71)"/><path class="cls-9" d="M122.53,195.32c-.14-.1-.33-.3-.44-.26-1,.35-2,.73-2.92,1.11a17.58,17.58,0,0,1-.91-4.3c0-1.18.88-2.34,1.15-3.62-.23-.13-.25-.05-.13.13a4.23,4.23,0,0,0,1.56-.69c2.13.68,3,2.5,2.25,4.8a16.35,16.35,0,0,0-.73,2.67C122.49,195.37,122.51,195.33,122.53,195.32Z" transform="translate(-103.81 -155.71)"/><path class="cls-10" d="M160.71,250.29c.36.1.6.12.69.24a18.12,18.12,0,0,1,2.24,3.42c.13.34-1.1,1.77-1.61,1.73a9.19,9.19,0,0,1-4.16-1.32c-.65-.45-1.13-2.51-.82-2.75A10.53,10.53,0,0,1,160.71,250.29Z" transform="translate(-103.81 -155.71)"/><path class="cls-8" d="M155.94,196a11.3,11.3,0,0,1,1.85-3.9c.39-.41,2.3-.1,2.8.49a4.29,4.29,0,0,1,.92,3.35c-.26,1-1.61,2.31-2.46,2.29C158,198.22,157,196.93,155.94,196Z" transform="translate(-103.81 -155.71)"/><path class="cls-1" d="M125.22,181.74c2.91-1,4-.08,3.41,3a3.73,3.73,0,0,1-.68,2,20.82,20.82,0,0,1-3.07,2c-.38-1.17-1.08-2.36-1-3.52s.9-2.09,1.39-3.33C125.23,181.71,125.22,181.74,125.22,181.74Z" transform="translate(-103.81 -155.71)"/><path class="cls-9" d="M166.23,204a2.84,2.84,0,0,1-.93-.36c-1.59-1.18-2.22-2.8-1.05-4.41.6-.82,2.35-1.66,3-1.34a4.58,4.58,0,0,1,2.4,3.08C169.82,202.77,168.61,204.13,166.23,204Z" transform="translate(-103.81 -155.71)"/><path class="cls-10" d="M178.26,218.27c1.15.33,2.72.53,2.9,1.14.38,1.26.49,3.1-.2,4-.5.67-3,.81-3.62.19-.82-.82-.8-2.6-.83-4C176.5,219.21,177.51,218.76,178.26,218.27Z" transform="translate(-103.81 -155.71)"/><path class="cls-8" d="M148.9,189.68a4.06,4.06,0,0,1,.1-1c.37-1.8,1.35-3.28,3.28-2.65,1,.31,2.26,2,2.15,2.83a4.89,4.89,0,0,1-2.35,3.39C150.33,193,149.32,191.58,148.9,189.68Z" transform="translate(-103.81 -155.71)"/><path class="cls-10" d="M138,183a13,13,0,0,1-1.16,3.93,2.75,2.75,0,0,1-2.47,1,3,3,0,0,1-1.43-2.28,6,6,0,0,1,.86-3.29C135.17,180,136.68,180.25,138,183Z" transform="translate(-103.81 -155.71)"/><path class="cls-2" d="M110.38,235.53c-.53-1.47-1.07-2.94-1.62-4.83a23.1,23.1,0,0,0,.45-2.86c0-1.43-.28-2.84-.28-4.41a3.17,3.17,0,0,1,1.4-.27,6.41,6.41,0,0,0,.63,1.08,4.93,4.93,0,0,0,.47,1.24c.4,2,.77,3.87,1,5.77a4.14,4.14,0,0,1-1.39.26,1.39,1.39,0,0,0-.29-.45,2.91,2.91,0,0,0-.17.93c.53,1.85,1,3.53,1.34,5.13C111.3,236.55,110.84,236,110.38,235.53Z" transform="translate(-103.81 -155.71)"/><path class="cls-9" d="M114.25,203.77a7.44,7.44,0,0,1,.48-8.41,7.4,7.4,0,0,1,2.87,1.49c.09,1.33.15,2.34.2,3.34a7.29,7.29,0,0,1-.51,1.4C116.14,202.47,115.19,203.12,114.25,203.77Z" transform="translate(-103.81 -155.71)"/><path class="cls-13" d="M142,266.6c-.93,1.61.58,1.84,1.61,2.31.21-.15.2-.1.23-.11-.16.57-.35,1.14-.71,2.21-2.07-1.82-3.85-3.54-5.81-5-.75-.56-2.1-.31-2.88-.85a34.57,34.57,0,0,1-5.07-4.38,13.28,13.28,0,0,1,4.23,1.77,4.21,4.21,0,0,0,1.87.82C137.75,264.47,139.87,265.53,142,266.6Z" transform="translate(-103.81 -155.71)"/><path class="cls-7" d="M655.17,194.94c-5,0-9.84,0-14.62,0-.61,0-1.21-.61-1.82-.94.6-.31,1.2-.89,1.81-.89,5-.08,9.93-.09,14.89,0A9,9,0,0,1,658,194C657.17,194.28,656.31,194.61,655.17,194.94Z" transform="translate(-103.81 -155.71)"/><path class="cls-9" d="M174.53,209.39c-2.37-1.78-2.78-4.32-.89-5.31a3.52,3.52,0,0,1,3.17.07,4.3,4.3,0,0,1,1.17,3.26C177.81,209.12,176.37,209.64,174.53,209.39Z" transform="translate(-103.81 -155.71)"/><path class="cls-10" d="M179.87,245.08c-.33.33-.55.68-.73.66-1.39-.19-3-.13-4.06-.82-.48-.31-.43-2.68.16-3.18a4.34,4.34,0,0,1,3.59-.57C180.51,241.74,180.86,243.28,179.87,245.08Z" transform="translate(-103.81 -155.71)"/><path class="cls-8" d="M143.41,182.11c.89-1.66,2.08-3.05,3.67-1.84A4.1,4.1,0,0,1,148,184c-.34,1-2.07,2.37-3,2.23C143,185.93,143,184,143.41,182.11Z" transform="translate(-103.81 -155.71)"/><path class="cls-8" d="M116.7,188.71c-1.22-3,.34-5.31,1.09-7.9-.27-.1-.37-.05-.37-.05,3.87.44,4.19,1,2.68,5.59-.43.81-.68,1.33-.94,1.85a.51.51,0,0,1,0-.11A24,24,0,0,1,116.7,188.71Z" transform="translate(-103.81 -155.71)"/><path class="cls-3" d="M103.81,209.26c.06-2.7.11-5.4.37-8.34a3.8,3.8,0,0,1,1-.85.77.77,0,0,0,.34-.48s0,0,.15.15a22,22,0,0,1,2,1.54,1.79,1.79,0,0,1-.08.57c-.2,2.34-.32,4.43-.63,6.66C105.83,208.85,104.82,209.06,103.81,209.26Z" transform="translate(-103.81 -155.71)"/><path class="cls-8" d="M180.84,237.67c-1.62-2.38-1.26-4.45.82-4.78a3.73,3.73,0,0,1,3.06.93c.54.67.57,2.68.07,3.05C183.81,237.57,182.3,237.53,180.84,237.67Z" transform="translate(-103.81 -155.71)"/><path class="cls-8" d="M156.74,261.67c-.46-.4-1.1-.71-1.35-1.21a28.85,28.85,0,0,1-1.18-3.23,25.44,25.44,0,0,1,3.21-.58,1.89,1.89,0,0,1,1.42.65,32,32,0,0,1,1.73,3.08c-1.16.34-2.32.69-3.67,1.17C156.7,261.68,156.74,261.67,156.74,261.67Z" transform="translate(-103.81 -155.71)"/><path class="cls-9" d="M146.91,262.47a.77.77,0,0,0-.65-.31,9.67,9.67,0,0,0-1.24.08s0,0,0,0a14.52,14.52,0,0,0-.41-1.43c-.38-.94-.8-1.85-1.21-2.78,1.06-.2,2.12-.4,3.4-.67.22-.06.18-.1.16-.12l4.35,4.78A23.61,23.61,0,0,1,146.91,262.47Z" transform="translate(-103.81 -155.71)"/><path class="cls-10" d="M169.84,251.18c-.25-2.1.92-3.06,2.49-3a4.94,4.94,0,0,1,3.06,1.71,2.58,2.58,0,0,1-.33,2.53,6.17,6.17,0,0,1-3.49.53C171,252.92,170.44,252,169.84,251.18Z" transform="translate(-103.81 -155.71)"/><path class="cls-3" d="M129.74,180.19a24.6,24.6,0,0,1,1.72-4.84c.24-.45,1.8-.8,2-.54a2.92,2.92,0,0,1,.78,2.37,15.29,15.29,0,0,1-2.38,4C131.76,181.36,130.52,180.68,129.74,180.19Z" transform="translate(-103.81 -155.71)"/><path class="cls-1" d="M170.53,255.55c.43,1.14.71,2.14,1,3.14-1.07.28-2.28,1-3.17.73a4.24,4.24,0,0,1-2.49-2.43C165.35,255.25,167.57,254.5,170.53,255.55Z" transform="translate(-103.81 -155.71)"/><path class="cls-13" d="M157.49,269.11l-.72,2.52,1.81,1.12-2,1.91,3,1a7.47,7.47,0,0,1-1.49-.22c-1.18-.45-2.32-1-3.48-1.47l0,.31-1.85-3.58a13.42,13.42,0,0,0,.81-1.28C154.85,269.78,156.23,270.86,157.49,269.11Z" transform="translate(-103.81 -155.71)"/><path class="cls-6" d="M110.21,187.66c-.49,1.85-1,3.7-1.43,5.74,0,.19.1.21-.09.17a1.09,1.09,0,0,0-.4.62s0,0-.15-.09c-.64.15-1.39.29-1.5.64-.46,1.41-.73,2.88-1.2,4.25-.41-.39-.69-.7-1-1,.38-1.84.76-3.68,1.39-5.8a11.7,11.7,0,0,0,1.51-2c.66-1.43,1.2-2.91,1.94-4.41A8.54,8.54,0,0,1,110.21,187.66Z" transform="translate(-103.81 -155.71)"/><path class="cls-2" d="M161.67,188.08c-.91-1.91-.33-3.36,1.3-3.9.79-.27,2.58.39,2.81,1a4.24,4.24,0,0,1-.41,3.54C164.26,190.16,162.82,189.62,161.67,188.08Z" transform="translate(-103.81 -155.71)"/><path class="cls-10" d="M124.11,174.59c1.81-.25,2.72.48,2.23,2.31-.42,1.58-1.08,3.09-1.37,4.74.25.1.26.07.28.06,0-.17-.11-.48-.16-.48-3.5.08-4.1-1-2.34-4.3.37-.69.9-1.3,1.35-2.15C124.09,174.57,124.11,174.59,124.11,174.59Z" transform="translate(-103.81 -155.71)"/><path class="cls-8" d="M173.08,189.9c1.42,1.42,1.67,2.94.35,4.15-.6.55-2.31.78-2.79.34a4,4,0,0,1-1.25-3.13C169.72,189.43,171.19,189,173.08,189.9Z" transform="translate(-103.81 -155.71)"/><path class="cls-9" d="M114.29,194.51a11.62,11.62,0,0,1-2.1,1c-.24-.74-.77-1.51-.67-2.2.25-1.72.78-3.41,1.24-5.31,1.5-1.22,2.5-1.12,2.74,1.11C115.16,191,114.75,192.63,114.29,194.51Z" transform="translate(-103.81 -155.71)"/><path class="cls-8" d="M140.49,180.28c-2.36-1.66-2.15-5.09.31-6a2.63,2.63,0,0,1,2.33,1.09C143.65,177.55,143.21,179.52,140.49,180.28Z" transform="translate(-103.81 -155.71)"/><path class="cls-10" d="M186,214.05c-1.59,1.09-3.11,1-3.84-.49a3.88,3.88,0,0,1,.27-3.39,3.17,3.17,0,0,1,3.05-.43C187.11,210.66,187.29,212.29,186,214.05Z" transform="translate(-103.81 -155.71)"/><path class="cls-1" d="M185.42,227.59c-.33-2.19.59-3.53,2.53-3.38.9.07,2.44,1.44,2.39,2.14a4,4,0,0,1-2.1,2.8C187.66,229.42,186.42,228.29,185.42,227.59Z" transform="translate(-103.81 -155.71)"/><path class="cls-10" d="M155.28,179.13c1.12-.17,2.41-.55,3-.07a3,3,0,0,1,.77,2.76c-.43.91-1.72,1.4-2.64,2.08a13.37,13.37,0,0,1-1.75-2.63C154.43,180.75,154.94,180,155.28,179.13Z" transform="translate(-103.81 -155.71)"/><path class="cls-10" d="M156.62,262c.12-.28.08-.27.07-.28a6,6,0,0,0,.42,1.4c.52.89,1.14,1.71,2,3-1.57,0-2.34,0-3.4-.06a1.25,1.25,0,0,0-.74,0c-.33-.15-.78-.2-1-.45-.64-.89-1.19-1.85-1.77-2.77,1.05-.21,2.09-.44,3.15-.61A2.79,2.79,0,0,0,156.62,262Z" transform="translate(-103.81 -155.71)"/><path class="cls-11" d="M165.5,272.58a24.23,24.23,0,0,1-3.27.85l3.42,2.32-.58.62-5.25-5.86C162.55,269.82,164.39,270.18,165.5,272.58Z" transform="translate(-103.81 -155.71)"/><path class="cls-1" d="M182.59,198.27c-.8,1.52-1.91,2.48-3.26,1.37a4.11,4.11,0,0,1-1.21-3.09c0-.6,2-1.7,2.24-1.53A11.89,11.89,0,0,1,182.59,198.27Z" transform="translate(-103.81 -155.71)"/><path class="cls-2" d="M150.93,172.85c.84.57,2.08,1.21,2,1.77a7.55,7.55,0,0,1-1.38,3.43c-.17.26-2,0-2-.29a11.08,11.08,0,0,1-.16-3.68C149.46,173.63,150.28,173.28,150.93,172.85Z" transform="translate(-103.81 -155.71)"/><path class="cls-6" d="M164,264.22a26.9,26.9,0,0,1-.78-2.89c1.27,0,2.65-.33,3.76.08.75.28,1.76,1.9,1.54,2.39C167.53,266,165.78,265,164,264.22Z" transform="translate(-103.81 -155.71)"/><path class="cls-4" d="M128.24,174.38a22.89,22.89,0,0,1,1.56-5c.23-.48,1.33-.54,2-.79.13.66.56,1.44.35,2C131.48,172.38,131.31,174.84,128.24,174.38Z" transform="translate(-103.81 -155.71)"/><path class="cls-8" d="M186.08,245.65a27.88,27.88,0,0,1,2,2.75c-.91.59-1.82,1.61-2.75,1.63-.68,0-1.4-1.27-2.1-2A30.32,30.32,0,0,1,186.08,245.65Z" transform="translate(-103.81 -155.71)"/><path class="cls-1" d="M188.58,240a10.65,10.65,0,0,1,3.16-2c.3-.09,1.6,1.44,1.49,2a3.46,3.46,0,0,1-1.93,2.2C189.74,242.79,188.78,241.83,188.58,240Z" transform="translate(-103.81 -155.71)"/><path class="cls-2" d="M180.45,252.71a29.47,29.47,0,0,1,3.05,2.19c-.55.64-1.13,1.83-1.66,1.81-1.1,0-2.65-.41-3.17-1.2C177.8,254.19,178.81,253.17,180.45,252.71Z" transform="translate(-103.81 -155.71)"/><path class="cls-11" d="M133.66,262.24c-1.38-.55-2.76-1.1-4.34-1.65a12.7,12.7,0,0,1-1.2-.51c-.48-.64-1-1.27-1-1.88s.66-1.09,1.17-1.78c.14-.15.15-.19.19,0a1.48,1.48,0,0,0,1,.37,4,4,0,0,1,1.63,1.21A42,42,0,0,0,133.66,262.24Z" transform="translate(-103.81 -155.71)"/><path class="cls-6" d="M124.1,174.58c-.72-.07-1.46-.14-2.41-.25-.64-2.48,1.12-4.08,2.45-6.06,0-.23-.08-.19-.08-.19,1.74-.09,2.13.87,1.59,2.26s-1.32,2.7-1.76,4.15Z" transform="translate(-103.81 -155.71)"/><path class="cls-3" d="M136.31,173.87a2.37,2.37,0,0,1-.52-1.13c0-2,.58-3.77,2.67-4.45.29-.09,1.26.87,1.37,1.45C140.21,171.81,138.74,173.56,136.31,173.87Z" transform="translate(-103.81 -155.71)"/><path class="cls-1" d="M189.72,200.5a10.15,10.15,0,0,1,1.16,3.44c0,.25-1.84,1.1-2.34.82-.74-.43-1.57-1.79-1.37-2.44S188.7,201.05,189.72,200.5Z" transform="translate(-103.81 -155.71)"/><path class="cls-8" d="M195,216a9.39,9.39,0,0,1-.79,3.4,2.24,2.24,0,0,1-2.13.07,3.72,3.72,0,0,1-1-2.53C191.11,215.19,192.81,214.76,195,216Z" transform="translate(-103.81 -155.71)"/><path class="cls-3" d="M117.59,180.61c-.17.15-.07.1-.06.07-1.41.83-2-.06-1.55-1.15A39,39,0,0,1,119,174a7.83,7.83,0,0,1,.46,3.47A10.45,10.45,0,0,1,117.59,180.61Z" transform="translate(-103.81 -155.71)"/><path class="cls-1" d="M174.46,261c.63-.78,1.25-1.78,2-1.86a3.58,3.58,0,0,1,2.53,1.09,2.11,2.11,0,0,1-.28,2.07,4.41,4.41,0,0,1-2.76.35C175.38,262.53,175,261.69,174.46,261Z" transform="translate(-103.81 -155.71)"/><path class="cls-10" d="M148,171.14a24.48,24.48,0,0,1-2.54,1.35c-.23-.89-.82-1.87-.61-2.64s1.22-2.3,1.83-2.27C149,167.69,148.43,169.46,148,171.14Z" transform="translate(-103.81 -155.71)"/><path class="cls-3" d="M142,266.41a69.48,69.48,0,0,1-6.59-3.23,4.85,4.85,0,0,1,.76-2c1.12.52,2.23,1.05,3.54,1.6A26,26,0,0,1,142,266.41Z" transform="translate(-103.81 -155.71)"/><path class="cls-2" d="M196.85,233.64c-1-.56-2.08-1-2.4-1.86-.18-.46.83-1.74,1.57-2.06.53-.24,1.48.49,2.24.79A28.17,28.17,0,0,1,196.85,233.64Z" transform="translate(-103.81 -155.71)"/><path class="cls-1" d="M166.42,178.75a28.67,28.67,0,0,1,2-2.49c.64.69,1.69,1.32,1.8,2.08s-.81,1.55-1.27,2.33A22.25,22.25,0,0,1,166.42,178.75Z" transform="translate(-103.81 -155.71)"/><path class="cls-6" d="M106.08,220.85c-.32-1.84-.64-3.69-.8-5.78a10,10,0,0,1,2.08,2.73c.22,2,.43,3.89.51,5.71a3.6,3.6,0,0,1-.65.06s0,0,0-.11a1.21,1.21,0,0,0-.49-.51A20.08,20.08,0,0,0,106.08,220.85Z" transform="translate(-103.81 -155.71)"/><path class="cls-8" d="M161.21,267.55c-.18-2.22,1.38-1.84,2.29-1.48a14.55,14.55,0,0,1,3,2.24c-.4.37-.92,1.12-1.18,1A24.06,24.06,0,0,1,161.21,267.55Z" transform="translate(-103.81 -155.71)"/><path class="cls-12" d="M155,266.31c.2-.34.35-.35.57-.29-1,2,1.51,1.65,1.88,2.92-1.18,1.92-2.56.84-4.09.34a19.88,19.88,0,0,1-2.24-2.37A15.51,15.51,0,0,0,155,266.31Z" transform="translate(-103.81 -155.71)"/><path class="cls-1" d="M174.9,185.1a7.45,7.45,0,0,1-.07-3.07c.1-.3,1.65-.55,2.11-.23a2.84,2.84,0,0,1,1.13,2.21C177.84,185.94,176.48,185.86,174.9,185.1Z" transform="translate(-103.81 -155.71)"/><path class="cls-6" d="M174.75,264.82a16.72,16.72,0,0,1,1.21,2.24c-.91.21-1.88.72-2.71.55s-1.83-1.15-1.78-1.65C171.7,264,173.24,264.43,174.75,264.82Z" transform="translate(-103.81 -155.71)"/><path class="cls-3" d="M130.43,166.6c-.75.69-1.39,1.23-2.55,2.21a6.17,6.17,0,0,1,3.29-6.3l.77.31C131.48,164,131,165.23,130.43,166.6Z" transform="translate(-103.81 -155.71)"/><path class="cls-8" d="M137.49,162.7c.79,2.69-.49,4.22-2.62,5.49C133.87,165.41,134.55,164,137.49,162.7Z" transform="translate(-103.81 -155.71)"/><path class="cls-14" d="M124,167.86c.11.22.14.18.16.19-.48-.23-1-.49-2-1l3.55-4.71a2.52,2.52,0,0,1,.48-.3,6.9,6.9,0,0,1-.28,2.82C125.44,165.88,124.55,166.72,124,167.86Z" transform="translate(-103.81 -155.71)"/><path class="cls-6" d="M142.78,162.79a10.6,10.6,0,0,1,2.1,0,18,18,0,0,1-1,3.45c-.18.39-1.19.4-1.82.57a14.38,14.38,0,0,1-.17-2.44C142,163.86,142.4,163.41,142.78,162.79Z" transform="translate(-103.81 -155.71)"/><path class="cls-4" d="M156.88,169.86c-.94,0-2.37.16-2.48-.16a4.23,4.23,0,0,1,.23-2.73c.17-.39,1.2-.4,1.84-.59A27.91,27.91,0,0,1,156.88,169.86Z" transform="translate(-103.81 -155.71)"/><path class="cls-8" d="M162.07,175.57a2.42,2.42,0,0,1-1.24,0c-1.38-.82-1.86-2.07-.8-3.32a2.52,2.52,0,0,1,2.37-.52C163.82,172.84,163.76,174.27,162.07,175.57Z" transform="translate(-103.81 -155.71)"/><path class="cls-12" d="M186.52,188.67a5.17,5.17,0,0,1-2.31,1.64c-.39.06-1.26-1.16-1.36-1.88-.07-.51,1-1.72,1.16-1.66A10.33,10.33,0,0,1,186.52,188.67Z" transform="translate(-103.81 -155.71)"/><path class="cls-2" d="M199.87,207.83a20.28,20.28,0,0,1-2.16,1.89c-.44-.61-1.21-1.2-1.23-1.83s.74-1.21,1.15-1.82A19.36,19.36,0,0,1,199.87,207.83Z" transform="translate(-103.81 -155.71)"/><path class="cls-13" d="M119.53,163.73c1.18-.92,2.25-1.67,3.43-2.58.48,1.48.15,2.1-2.6,5.06A8.11,8.11,0,0,1,119.53,163.73Z" transform="translate(-103.81 -155.71)"/><path class="cls-6" d="M189.1,259.89a19.88,19.88,0,0,1-2.76-1.47,12.54,12.54,0,0,1,2.39-1.64c.32-.14,1.44.58,1.41.81A6.13,6.13,0,0,1,189.1,259.89Z" transform="translate(-103.81 -155.71)"/><path class="cls-4" d="M193.35,250.09a14.48,14.48,0,0,1,1.74,1.9,7.1,7.1,0,0,1-2,1.43c-.39.11-1-.66-1.56-1A25.13,25.13,0,0,1,193.35,250.09Z" transform="translate(-103.81 -155.71)"/><path class="cls-14" d="M137,159.76l-1.81,2.78c-1.14-2.79-.44-3.95,2.74-5.56C137.56,158.12,137.33,158.87,137,159.76Z" transform="translate(-103.81 -155.71)"/><path class="cls-4" d="M200.18,222.56a19.63,19.63,0,0,1,2.37-1.72c.34.57,1,1.21.95,1.7-.13.65-1,1.74-1.31,1.67A4.83,4.83,0,0,1,200.18,222.56Z" transform="translate(-103.81 -155.71)"/><path class="cls-14" d="M129.65,159.4l2.95-2.55.71.65-3.63,4.66-.82-.49c.25-.66.5-1.33.78-2.12C129.67,159.42,129.63,159.39,129.65,159.4Z" transform="translate(-103.81 -155.71)"/><path class="cls-12" d="M172.4,271.88c-1.21-.51-2.24-1-3.72-1.75,2.24-1.41,3.68-1.19,4.87.19C173.67,270.46,172.93,271.35,172.4,271.88Z" transform="translate(-103.81 -155.71)"/><path class="cls-12" d="M119.2,172.1a23.71,23.71,0,0,1-2.34,1.78c.44-3,1.55-5,3.8-6.49A42.82,42.82,0,0,1,119.2,172.1Z" transform="translate(-103.81 -155.71)"/><path class="cls-6" d="M152,165c-.82-.15-2.11-.54-2.09-.77a6.56,6.56,0,0,1,1-2.61c.13-.2.92,0,1.41,0A30.68,30.68,0,0,1,152,165Z" transform="translate(-103.81 -155.71)"/><path class="cls-3" d="M200,243c.78,1.66.2,2.68-1.32,2.9-.51.07-1.14-.71-1.71-1.11.62-.73,1.21-1.49,1.89-2.16C199,242.52,199.5,242.79,200,243Z" transform="translate(-103.81 -155.71)"/><path class="cls-6" d="M140.65,158.9c.75-.78,1.39-1.39,2-2l.92.66-2.3,4.09-1-.4C140.39,160.51,140.47,159.78,140.65,158.9Z" transform="translate(-103.81 -155.71)"/><path class="cls-13" d="M106,221a6.72,6.72,0,0,1,.82,2.12c.19.4.33.44.48.49,0,0,0,0-.17.19.13,2.09.38,4,.64,5.92C107.08,226.82,106.45,224,106,221Z" transform="translate(-103.81 -155.71)"/><path class="cls-6" d="M192.09,192.88a4.36,4.36,0,0,1,2.32-.62c.32.06.66,1.22.57,1.81-.07.41-1.21,1.07-1.28,1A8.81,8.81,0,0,1,192.09,192.88Z" transform="translate(-103.81 -155.71)"/><path class="cls-3" d="M185.86,263.3c-.23.82-.44,1.82-1,2.09s-1.49-.13-2.13-.48a1.44,1.44,0,0,1-.25-1.37,3.51,3.51,0,0,1,1.8-.85C184.72,262.62,185.24,263,185.86,263.3Z" transform="translate(-103.81 -155.71)"/><path class="cls-14" d="M147,159.61a39.1,39.1,0,0,1,1.71-3.9C150,159.06,149.31,160.14,147,159.61Z" transform="translate(-103.81 -155.71)"/><path class="cls-14" d="M117,245.36c.56,1.33,1.13,2.66,1.67,4.2-1.29-1.5-2.56-3.21-3.92-5.08.08-.39.25-.61.78-.77A7.3,7.3,0,0,1,117,245.36Z" transform="translate(-103.81 -155.71)"/><path class="cls-12" d="M205.22,237.13a11.26,11.26,0,0,1-2.18,0c.1-.66,0-1.46.36-1.94s1.08-.32,1.65-.46A13,13,0,0,1,205.22,237.13Z" transform="translate(-103.81 -155.71)"/><path class="cls-13" d="M149.32,272.74a4.47,4.47,0,0,1,1.55-.21,15.57,15.57,0,0,1,2,1l-.69.88C151.23,273.9,150.32,273.4,149.32,272.74Z" transform="translate(-103.81 -155.71)"/><path class="cls-2" d="M122.72,253.16a9.42,9.42,0,0,1,2.88,2.48,8.18,8.18,0,0,1-2.54-1A3,3,0,0,1,122.72,253.16Z" transform="translate(-103.81 -155.71)"/><path class="cls-2" d="M124.67,250.26c.47.89,1.1,1.81-.72,1.83-.2,0-.4.48-.79.85a2,2,0,0,1-1.56-.34,6.38,6.38,0,0,1,1.52-1.78C123.76,250.62,124.21,250.44,124.67,250.26Z" transform="translate(-103.81 -155.71)"/><path class="cls-14" d="M123.05,254.82c.84.25,1.67.69,2.59,1a5.86,5.86,0,0,1-.83,1.52A11.77,11.77,0,0,1,123.05,254.82Z" transform="translate(-103.81 -155.71)"/><path class="cls-14" d="M122.93,250.84c-.43.49-.85,1-1.42,1.54a1.13,1.13,0,0,1-.69-.8c0-.17,0-.15-.1-.12a2.64,2.64,0,0,1-.44-.5,3.05,3.05,0,0,1,1.43-.6A3.8,3.8,0,0,1,122.93,250.84Z" transform="translate(-103.81 -155.71)"/><path class="cls-3" d="M103.92,211c.36-.06,1,.08,1,.3a32.06,32.06,0,0,1,.08,3.35C104.68,213.7,104.31,212.48,103.92,211Z" transform="translate(-103.81 -155.71)"/><path class="cls-14" d="M111.9,237.12a2.06,2.06,0,0,1-.69,1.18,7.74,7.74,0,0,1-.92-2.6A11,11,0,0,1,111.9,237.12Z" transform="translate(-103.81 -155.71)"/><path class="cls-12" d="M104.27,198.07a3.13,3.13,0,0,1,1.18,1.06c.12.32.11.42.09.51s0,0-.08,0a.8.8,0,0,0-.4.43,4.57,4.57,0,0,1-.84.62A6.69,6.69,0,0,1,104.27,198.07Z" transform="translate(-103.81 -155.71)"/><path class="cls-13" d="M145.72,270.49a1.32,1.32,0,0,1,.79.65A1.35,1.35,0,0,1,145.72,270.49Z" transform="translate(-103.81 -155.71)"/><path class="cls-2" d="M112.62,187.38a1.53,1.53,0,0,1-1.47.1,66.84,66.84,0,0,1,2-7.46c1.66-.55,1.77.61,1.49,1.6C114.14,183.51,113.35,185.33,112.62,187.38Z" transform="translate(-103.81 -155.71)"/><path class="cls-12" d="M113.18,179.09a1.64,1.64,0,0,1-1.17-.53c.92-2.11,1.86-4,2.8-5.94l1.19.58C115.08,175.11,114.17,177,113.18,179.09Z" transform="translate(-103.81 -155.71)"/><path class="cls-11" d="M110.92,178.38c-.53,2.19-1.27,4.42-2.07,6.84a3,3,0,0,1-1.07-1.2C109.36,182.36,108.21,179.41,110.92,178.38Z" transform="translate(-103.81 -155.71)"/><path class="cls-6" d="M123.12,250.82a10.92,10.92,0,0,1-1.19-.49,51.79,51.79,0,0,1-2.79-4.76,8.76,8.76,0,0,1,2.33-.36,12.36,12.36,0,0,1-1.41-2.64,16.11,16.11,0,0,1-.22-3.28,13.62,13.62,0,0,0,3,.32c.11-.22.13-.27-.07-.08a3.54,3.54,0,0,0,1.3.94s0,0,0,0c.43,1.22.88,2.43,1.27,3.67s.86,2.56-1.54,2.59l-1.75-.8-.25.46,1.31,1c.51.84,1,1.69,1.55,2.73A4.2,4.2,0,0,1,123.12,250.82Z" transform="translate(-103.81 -155.71)"/><path class="cls-10" d="M119.19,225.76a40.15,40.15,0,0,1,1.08,5.3c.16,2.1-.83,3-3.1,1.54-.63-.83-1.07-1.38-1.58-2.14a3.37,3.37,0,0,1-.21-.74c0-1.56,0-3.13,0-4.69l3.69.93s.12-.12.18-.19S119.2,225.78,119.19,225.76Z" transform="translate(-103.81 -155.71)"/><path class="cls-7" d="M126.05,234.49a12.3,12.3,0,0,1,1,2.5c-.27,1.71.28,3.86-2.71,3.46-.23,0-.2,0-.23-.13a6.61,6.61,0,0,0-1-1s0,0,0,.07a15.88,15.88,0,0,1-1.53-3,14.1,14.1,0,0,1-.08-3.32c1.25.17,2.5.31,3.74.55C125.43,233.68,125.63,234.12,126.05,234.49Z" transform="translate(-103.81 -155.71)"/><path class="cls-8" d="M115.67,230.67a21.38,21.38,0,0,1,1.32,1.81c.46,1.71.88,3.26,1.35,4.8.57,1.84,0,2.74-2.21,2.41a17.93,17.93,0,0,1-1.15-1.94,50.42,50.42,0,0,1-1.5-5.68A19.7,19.7,0,0,1,115.67,230.67Z" transform="translate(-103.81 -155.71)"/><path class="cls-4" d="M114.89,237.91a5.69,5.69,0,0,1,1,1.8c.74,1.7,1.49,3.21,2.28,4.92a1.78,1.78,0,0,1-1,.73c-.56-.53-.93-1.05-1.44-1.58-1-1.86-1.92-3.73-3-6A6.72,6.72,0,0,0,114.89,237.91Z" transform="translate(-103.81 -155.71)"/><path class="cls-9" d="M132.24,247.31c.49,1.22,1,2.26,1.4,3.36.51,1.39.34,2.47-1.82,2.28-1.11-.48-1.9-.75-2.75-1.17a1.67,1.67,0,0,0-.64-.44s0,0,0,0a18.36,18.36,0,0,1-1.57-2.75c-.29-.77-.58-2.11-.21-2.41.58-.49,1.7-.32,2.75-.62.15-.19.12-.2,0-.09a2.35,2.35,0,0,0,.59.94A15.55,15.55,0,0,1,132.24,247.31Z" transform="translate(-103.81 -155.71)"/><path class="cls-2" d="M129.13,251.94a25.26,25.26,0,0,1,2.48.93c.31,1,.5,1.79.7,2.61.24,1,2,2.46-1,2.37-.7-.42-1.22-.75-2-1.19l-.91-.43s0,0,0,.06c-.55-.89-1.19-1.76-1.69-2.69-.88-1.64-.61-2.48,1.59-2.06.13-.19.09-.18,0,0A1.27,1.27,0,0,0,129.13,251.94Z" transform="translate(-103.81 -155.71)"/><path class="cls-13" d="M148.06,270.43c-.19.13-.39.27-.59.39l-.13-.2a2.39,2.39,0,0,1,.59-.19Z" transform="translate(-103.81 -155.71)"/><path class="cls-13" d="M148.06,270.43l.07,0Z" transform="translate(-103.81 -155.71)"/><path class="cls-7" d="M113.21,203.8c0,2.35.89,4.75-1.84,6.51a1.56,1.56,0,0,1-1.09-.31s0,0-.18-.19c-.33-.43-.53-.7-.74-.95,0,0,0,0,.14-.19.39-2.44.7-4.65,1-6.86C111.38,202.42,112.25,203,113.21,203.8Z" transform="translate(-103.81 -155.71)"/><path class="cls-8" d="M107.72,201.6a2.87,2.87,0,0,0,0-.55c.18-2.52.4-4.7.63-6.88,0,0,0,0,.14.08a1.07,1.07,0,0,0,.41-.64s0,0-.06,0c.67.6,1.94,1.18,1.94,1.76a23.71,23.71,0,0,1-1,5.72A6.49,6.49,0,0,1,107.72,201.6Z" transform="translate(-103.81 -155.71)"/><path class="cls-14" d="M111,231.51c-.07.17-.16.2-.38.27a1.23,1.23,0,0,1,.09-.72A1.39,1.39,0,0,1,111,231.51Z" transform="translate(-103.81 -155.71)"/><path class="cls-10" d="M111.15,224.19c-.23-.36-.31-.67-.53-1.07a33.94,33.94,0,0,1,.17-6.34,6.71,6.71,0,0,1,2,.14V211.3c1.11-2,2.34-2.44,4-.28a26.34,26.34,0,0,1,.11,6.41c-.92.35-1.5.53-2.08.71l-1.24-.07a33.21,33.21,0,0,1,.68,5.34c0,.66-1.12,1.3-2,1.89C111.82,224.89,111.56,224.56,111.15,224.19Z" transform="translate(-103.81 -155.71)"/><path class="cls-4" d="M110.28,210c-.12,2-.25,4-.4,6.24a3.15,3.15,0,0,1-1.42.92c-1.91-2.64-1.92-5.49-1.28-8.64a8.87,8.87,0,0,1,2,.39c.2,0,.16,0,.13.21a2.66,2.66,0,0,0,.91.85S110.27,210,110.28,210Z" transform="translate(-103.81 -155.71)"/><path class="cls-2" d="M120.77,251.43h0C120.73,251.47,120.83,251.39,120.77,251.43Z" transform="translate(-103.81 -155.71)"/><path class="cls-9" d="M114.93,218.29a5.26,5.26,0,0,1,1.83-.69A5.69,5.69,0,0,1,114.93,218.29Z" transform="translate(-103.81 -155.71)"/></svg>